<svg xmlns="http://www.w3.org/2000/svg" width="118.385" height="112.611" viewBox="0 0 118.385 112.611"><defs><style>.a{fill:#d0cde1;}.b{fill:#6c63ff;}.c{fill:#f2f2f2;}.d{fill:#3f3d56;}</style></defs><g transform="translate(-706.153 -4540.415)"><rect class="a" width="118.385" height="112.611" transform="translate(706.153 4540.415)"/><rect class="b" width="91.479" height="69.955" transform="translate(719.606 4553.867)"/><circle class="c" cx="22.21" cy="22.21" r="22.21" transform="translate(737.044 4574.81)"/><path class="d" d="M381.613,407.557a27.846,27.846,0,1,1,27.846-27.846A27.846,27.846,0,0,1,381.613,407.557Zm0-54.679a26.833,26.833,0,1,0,26.833,26.833,26.833,26.833,0,0,0-26.833-26.833Z" transform="translate(384.187 4206.594)"/><rect class="c" width="49.758" height="2.619" transform="translate(719.515 4638.622)"/><rect class="c" width="69.4" height="2.619" transform="translate(719.515 4630.765)"/><circle class="d" cx="5.238" cy="5.238" r="5.238" transform="translate(760.107 4541.724)"/></g></svg>