<svg xmlns="http://www.w3.org/2000/svg" xmlns:xlink="http://www.w3.org/1999/xlink" width="305.814" height="69.99" viewBox="0 0 305.814 69.99">
  <defs>
    <style>
      .cls-1, .cls-5 {
        fill: none;
      }

      .cls-1 {
        clip-rule: evenodd;
      }

      .cls-2 {
        clip-path: url(#clip-path);
      }

      .cls-3 {
        fill: url(#linear-gradient);
      }

      .cls-4 {
        fill: #fff;
      }

      .cls-4, .cls-6, .cls-7 {
        fill-rule: evenodd;
      }

      .cls-5 {
        stroke: #1a1818;
        stroke-miterlimit: 2.613;
        stroke-width: 2px;
      }

      .cls-6 {
        fill: #e50019;
      }

      .cls-7, .cls-8 {
        fill: #1a1818;
      }
    </style>
    <clipPath id="clip-path">
      <path id="Path_415" data-name="Path 415" class="cls-1" d="M402.5,287.422V257.2l-1.542-.541c-.644-.226-15.984-5.553-28.107-5.553s-27.459,5.328-28.108,5.553l-1.537.541v30.22c0,20.349,27.668,30.875,28.844,31.313l.8.3.8-.3c1.175-.438,28.845-10.964,28.845-31.313" transform="translate(-343.209 -251.108)"/>
    </clipPath>
    <linearGradient id="linear-gradient" x1="-2.903" y1="2.538" x2="-2.895" y2="2.538" gradientUnits="objectBoundingBox">
      <stop offset="0" stop-color="#d7d8d9"/>
      <stop offset="0.32" stop-color="#fff"/>
      <stop offset="0.5" stop-color="#fff"/>
      <stop offset="0.69" stop-color="#fff"/>
      <stop offset="1" stop-color="#d7d8d9"/>
    </linearGradient>
  </defs>
  <g id="Group_415" data-name="Group 415" transform="translate(-91.482 -250.108)">
    <g id="Group_414" data-name="Group 414" transform="translate(217.732 251.108)">
      <g id="Group_413" data-name="Group 413" class="cls-2">
        <rect id="Rectangle_114" data-name="Rectangle 114" class="cls-3" width="59.294" height="67.925" transform="translate(0 0)"/>
      </g>
    </g>
    <path id="Path_416" data-name="Path 416" class="cls-4" d="M372.855,319.032l-.8-.3c-1.177-.437-28.843-10.964-28.843-31.313V257.2l1.537-.541c.648-.224,15.989-5.552,28.108-5.552s27.462,5.328,28.106,5.552l1.542.541v30.221c0,20.349-27.67,30.876-28.846,31.313Z" transform="translate(-125.477)"/>
    <path id="Path_417" data-name="Path 417" class="cls-5" d="M372.855,319.032l-.8-.3c-1.177-.437-28.843-10.964-28.843-31.313V257.2l1.537-.541c.648-.224,15.989-5.552,28.108-5.552s27.462,5.328,28.106,5.552l1.542.541v30.221c0,20.349-27.67,30.876-28.846,31.313Z" transform="translate(-125.477)"/>
    <path id="Path_418" data-name="Path 418" class="cls-6" d="M402.488,317.767v-5.782c-4.83,15.825-27.349,25.22-27.349,25.22s-22.523-9.394-27.351-25.219v5.792c.01,18.98,27.351,29.147,27.351,29.147s27.349-10.171,27.349-29.157" transform="translate(-127.759 -30.345)"/>
    <path id="Path_419" data-name="Path 419" class="cls-6" d="M384.521,264.594c3.629-.574,7.022,1.306,9.276,3.259,2.55,2.216,3.184,6.715,1.274,9.309-3.795,5.162-10.254,7.05-16.767,9.079,4.442-2.86,6.609-7.5,4.5-11.386-2.216-4.071-7.841-7.154-12.815-8.248a22.158,22.158,0,0,1,6.423-1.689,9.813,9.813,0,0,1,3.542.032,23.035,23.035,0,0,1,3.8,3.133c2.684,2.587,4.425,5.861,3.866,9.35C391.8,274.4,389.62,268.066,384.521,264.594Zm-13.159-2.432q1.985-.122,3.966-.239a41.768,41.768,0,0,0-5.832,1.962c-1.334.567-3.533,1.712-3.911,3.39,1.918.687,3.836,1.39,5.693,2.255a23.627,23.627,0,0,1,8.432,6.188c2.573,3.171.763,6.587-2.528,7.79-6.689,2.441-15.558.711-22.392-2.447,4.211.442,14.546,1.379,14.764-4.588.117-3.053-2.377-5.247-4.263-7.078a18.408,18.408,0,0,0-6.576-3.9c1.068.6,2.293,1.315,3.232,1.939a18.5,18.5,0,0,1,4.629,4.731c.254.375.514.747.731,1.144a45.477,45.477,0,0,1-7.034-1.48c-1.26-.354-5.8-2.238-4.518-4.47a6.8,6.8,0,0,1,2.286-2.123c-.005,0-.008,0-.011,0,.028-.013.054-.021.084-.036l.028-.02s0,0,.005,0A34.253,34.253,0,0,1,371.362,262.162Zm31.126,9.538V261.115s-15.486-5.427-27.349-5.427-27.341,5.424-27.351,5.427V271.7c1.043,18.1,27.351,27.784,27.351,27.784S401.446,289.8,402.488,271.7Z" transform="translate(-127.759 -2.283)"/>
    <path id="Path_420" data-name="Path 420" class="cls-7" d="M108.223,297.657a15.012,15.012,0,0,0-7.082-1.71q-5.563,0-5.563,1.981,0,1.166,2.09,1.518,2.847.246,5.7.518a14.635,14.635,0,0,1,5.833,1.465,3.87,3.87,0,0,1,1.928,3.554,4.613,4.613,0,0,1-2.4,4.151,13.5,13.5,0,0,1-6.961,1.465q-6.43,0-10.283-2.929l1.763-2.308a14.372,14.372,0,0,0,8.466,2.414,10.648,10.648,0,0,0,4.369-.718q1.545-.719,1.545-1.913,0-1.327-1.9-1.871a16.05,16.05,0,0,0-3.283-.407q-3.476-.163-4.262-.245a9.671,9.671,0,0,1-4.558-1.329,3.451,3.451,0,0,1-1.464-3.011,4.255,4.255,0,0,1,2.346-3.788,12.946,12.946,0,0,1,6.581-1.4,15.66,15.66,0,0,1,9.144,2.441Z" transform="translate(0 -20.931)"/>
    <path id="Path_421" data-name="Path 421" class="cls-7" d="M152.25,293.962a6.033,6.033,0,0,1,4.231,1.439,4.959,4.959,0,0,1,1.576,3.852,4.791,4.791,0,0,1-1.644,3.9,7.169,7.169,0,0,1-4.707,1.369H142.02v6.133h-3.256V293.962Zm-.49,7.626q2.957,0,2.958-2.28,0-2.413-3.146-2.413H142.02v4.693Z" transform="translate(-23.568 -21.361)"/>
    <path id="Path_422" data-name="Path 422" class="cls-7" d="M203.943,301.7a7.934,7.934,0,0,1-3.5,6.675,13.807,13.807,0,0,1-14.949,0,8.045,8.045,0,0,1,.027-13.295,13.439,13.439,0,0,1,14.9,0,7.871,7.871,0,0,1,3.528,6.619m-3.392-.014a5.193,5.193,0,0,0-2.12-4.254,9.795,9.795,0,0,0-10.967.013,5.382,5.382,0,0,0-.041,8.552,8.716,8.716,0,0,0,5.543,1.645A8.614,8.614,0,0,0,198.471,306a5.234,5.234,0,0,0,2.079-4.311" transform="translate(-45.116 -20.795)"/>
    <path id="Path_423" data-name="Path 423" class="cls-7" d="M254.763,310.651h-3.732l-4.37-6.133h-8.289v6.133h-3.255V293.962H248.6a6.04,6.04,0,0,1,4.233,1.439,4.966,4.966,0,0,1,1.573,3.852q0,4.153-4.152,5.075Zm-6.648-9.063q2.955,0,2.957-2.28,0-2.413-3.147-2.413h-9.553v4.693Z" transform="translate(-71.597 -21.361)"/>
    <path id="Path_424" data-name="Path 424" class="cls-7" d="M298.368,296.894H290.39V310.65h-3.255V296.894h-7.976v-2.932h19.21Z" transform="translate(-93.55 -21.361)"/>
    <path id="Path_425" data-name="Path 425" class="cls-7" d="M503.577,293.962l-9.227,16.688H490.6l-9.223-16.688h3.6l7.5,13.85,7.5-13.85Z" transform="translate(-194.351 -21.361)"/>
    <rect id="Rectangle_115" data-name="Rectangle 115" class="cls-8" width="3.254" height="16.688" transform="translate(312.209 272.601)"/>
    <path id="Path_426" data-name="Path 426" class="cls-7" d="M562.928,297.657a15,15,0,0,0-7.08-1.71q-5.56,0-5.563,1.981,0,1.166,2.089,1.518,2.85.246,5.7.518a14.652,14.652,0,0,1,5.833,1.465,3.872,3.872,0,0,1,1.925,3.554,4.607,4.607,0,0,1-2.4,4.151,13.475,13.475,0,0,1-6.958,1.465q-6.429,0-10.283-2.929l1.762-2.308a14.381,14.381,0,0,0,8.468,2.414,10.652,10.652,0,0,0,4.367-.718c1.028-.479,1.548-1.115,1.548-1.913,0-.885-.637-1.509-1.9-1.871a16.074,16.074,0,0,0-3.284-.407q-3.47-.163-4.261-.245a9.648,9.648,0,0,1-4.556-1.329,3.447,3.447,0,0,1-1.47-3.011,4.259,4.259,0,0,1,2.352-3.788,12.927,12.927,0,0,1,6.58-1.4,15.641,15.641,0,0,1,9.14,2.441Z" transform="translate(-226.656 -20.931)"/>
    <rect id="Rectangle_116" data-name="Rectangle 116" class="cls-8" width="3.254" height="16.688" transform="translate(343.25 272.601)"/>
    <path id="Path_427" data-name="Path 427" class="cls-7" d="M631.277,301.7a7.932,7.932,0,0,1-3.5,6.675,12.243,12.243,0,0,1-7.461,2.2,12.376,12.376,0,0,1-7.491-2.2,8.046,8.046,0,0,1,.032-13.295,13.438,13.438,0,0,1,14.895,0,7.87,7.87,0,0,1,3.527,6.619m-3.394-.014a5.19,5.19,0,0,0-2.118-4.254,9.792,9.792,0,0,0-10.966.013,5.379,5.379,0,0,0-.043,8.552,8.711,8.711,0,0,0,5.544,1.645A8.608,8.608,0,0,0,625.8,306a5.231,5.231,0,0,0,2.078-4.311" transform="translate(-258.127 -20.795)"/>
    <path id="Path_428" data-name="Path 428" class="cls-7" d="M681.9,310.65h-4.856l-11.343-13.92v13.92h-3.255V293.962H667.3l11.351,13.927V293.962H681.9Z" transform="translate(-284.608 -21.361)"/>
  </g>
</svg>
