<svg xmlns="http://www.w3.org/2000/svg" width="206.868" height="549.673" viewBox="0 0 206.868 549.673"><defs><style>.a{fill:#ffb8b8;}.b{fill:#575a89;}.c{fill:#2f2e41;}.d{fill:#d0cde1;}.e{opacity:0.1;}</style></defs><g transform="translate(-1544.105 -4358.004)"><path class="a" d="M901.536,420.156,897.52,432.2s-25.094,29.109-7.026,33.124,20.075-31.117,20.075-31.117l5.019-10.038Z" transform="translate(671.366 4187.282)"/><path class="b" d="M931.936,245.716s-6.023-1-8.03,23.087-3.011,66.248-3.011,66.248l-23.086,59.222,29.109,9.034,14.053-67.252Z" transform="translate(669.072 4216.177)"/><path class="a" d="M840.923,555.2l-3.011,19.072h27.1l-1-19.072Z" transform="translate(747.035 4265.036)"/><path class="a" d="M945.786,580.065l-2.008,26.1,18.068,2.007V578.057Z" transform="translate(729.5 4261.25)"/><path class="c" d="M931.722,376.67l-23.087,132.5,6.023,120.451h31.117V520.208L975.887,464l24.09,70.263L1006,651.7l34.128-6.023-8.03-114.429s-6.022-152.572-12.045-154.579S931.722,376.67,931.722,376.67Z" transform="translate(667.278 4194.633)"/><path class="c" d="M917.377,689.659s0-10.038-8.03-4.015-18.068,17.064-18.068,17.064-38.143,21.079-11.041,24.09A56.937,56.937,0,0,0,924.4,712.746l3.011,3.011s16.06-3.011,16.06-7.026a77.51,77.51,0,0,0-1-10.038s-2.111-17.026-4.569-13.532S921.392,695.682,917.377,689.659Z" transform="translate(673.593 4143.625)"/><path class="c" d="M1041.678,723.664s-18.068-9.034-22.083-1-7.026,24.09-7.026,24.09-13.049,25.094,10.038,23.086,22.083-15.056,22.083-18.068-1-10.038,0-13.049S1041.678,723.664,1041.678,723.664Z" transform="translate(650.671 4137.726)"/><circle class="a" cx="28.105" cy="28.105" r="28.105" transform="translate(1624.595 4366.034)"/><path class="a" d="M896.661,60.753l-1,36.135,36.135-3.011V60.753Z" transform="translate(737.47 4346.937)"/><path class="d" d="M1009.572,198.8s-17.064,11.041-22.083,13.049-16.06-8.03-16.06-8.03-3.011,2.008-3.011,4.015-2.008,10.038-2.008,10.038l-24.09,79.3,2.008,56.211s73.275,7.026,81.3-2.008-4.015-138.519-4.015-138.519Z" transform="translate(661.698 4223.948)"/><path class="e" d="M1009.734,224.062s-27.1,10.038-36.135,1C973.6,225.066,986.648,228.077,1009.734,224.062Z" transform="translate(656.517 4219.763)"/><path class="b" d="M1084.49,437.478c-11.042,7.026-47.177,16.06-47.177,16.06s-3.945-84.968-18.068-98.369c-14.042-13.34-36.969-109.51-16.351-126.233a3.1,3.1,0,0,1,.291-.241l13.049-30.113s2.008-3.011,6.023,1a109.6,109.6,0,0,1,9.034,11.041l.572.231L1059.4,221.67l-11.041,49.184S1095.532,430.452,1084.49,437.478Z" transform="translate(653.028 4224.163)"/><path class="e" d="M1033.5,210.859l-7.6,27.874-21.37-9.8a3.087,3.087,0,0,1,.291-.241l13.049-30.113s2.008-3.011,6.023,1a109.609,109.609,0,0,1,9.034,11.041Z" transform="translate(651.394 4224.163)"/><path class="b" d="M965.781,204.212,962.77,238.34l-.161,1.556L939.683,458.164s-20.075-7.026-27.1-15.056,16.06-97.365,16.06-97.365l2.008-112.421s17.807-12.537,25.084-19.423c1.706-1.606,2.831-2.9,3.021-3.664C959.758,206.22,965.781,204.212,965.781,204.212Z" transform="translate(666.845 4223.051)"/><path class="e" d="M973.119,204.212l-3.011,34.128-.161,1.556-14.394-2.058,7.518-23.94c1.706-1.606,2.831-2.9,3.021-3.664C967.1,206.22,973.119,204.212,973.119,204.212Z" transform="translate(659.506 4223.051)"/><path class="a" d="M1038.777,406.923l-11.042,10.038s5.019,21.079,11.042,22.083c0,0,4.015-6.023,5.019-11.041s10.038-10.038,10.038-10.038Z" transform="translate(647.55 4189.474)"/><path class="b" d="M1052.822,224.062l13.049,2.008s43.162,73.275,38.143,99.372-45.169,71.267-45.169,71.267l-25.094-20.075,37.139-50.188-19.071-60.226Z" transform="translate(646.554 4219.763)"/><path class="c" d="M966.906,160.5s0-24.786,6.023-30.419h7.228s8.432-12.393,19.274-7.886,28.911,12.393,27.707,24.786a67.852,67.852,0,0,1-4.962,20.4s-2.008,0-6.482-6.737c-5.979-9,7.83-6.2-10.239-9.576s-28.911-7.886-31.321-3.38S966.906,160.5,966.906,160.5Z" transform="translate(657.626 4236.801)"/><path class="c" d="M982.645,132.106s.963-7.244,4.925-8.8Z" transform="translate(655.019 4236.453)"/><path class="c" d="M982.494,133.647s-2.011-7.025,1-10.038Z" transform="translate(655.153 4236.402)"/></g></svg>