<svg xmlns="http://www.w3.org/2000/svg" width="122.081" height="122.147" viewBox="0 0 122.081 122.147"><defs><style>.a{fill:#d0cde1;}</style></defs><g transform="translate(-1053.694 -4481.723)"><path class="a" d="M735.654,262.911l85.737,6.3,24.246,1.781-1.506-1.506,4.553,65.865,2.277,32.933c.092,1.331.186,2.661.276,3.992.074,1.106.379,2.172-.931,2.445-2.606.543-5.319.769-7.959,1.1q-8.049,1.016-16.134,1.71a408.887,408.887,0,0,1-64.833.406q-8.091-.593-16.154-1.508c-2-.227-4.48-.312-5.21-2.554a43.872,43.872,0,0,1-1.222-7.337q-2.274-16.027-3.1-32.218a369.652,369.652,0,0,1,2.278-64.461q.485-3.927,1.059-7.842c.276-1.9-2.625-2.714-2.9-.8a372.737,372.737,0,0,0-3.72,66.749q.583,16.748,2.681,33.4.531,4.2,1.153,8.4c.33,2.224.412,4.847,1.736,6.758,1.277,1.844,3.422,2.436,5.53,2.717,2.683.358,5.383.614,8.076.877a408.71,408.71,0,0,0,67.277,1q8.462-.573,16.9-1.5,4.154-.455,8.3-1,2.029-.265,4.055-.547a18.669,18.669,0,0,0,3.727-.649c2.537-.915,2.536-3.362,2.379-5.642l-.586-8.483-1.173-16.965-4.726-68.36-.586-8.483a1.55,1.55,0,0,0-1.506-1.506l-85.737-6.3L735.654,259.9c-1.933-.142-1.924,2.87,0,3.011Z" transform="translate(321.505 4221.828)"/><path class="a" d="M804.6,390.129a5.006,5.006,0,1,0-5.006-5.006A5.063,5.063,0,0,0,804.6,390.129Z" transform="translate(310.339 4201.914)"/><path class="a" d="M778.016,302.256c.433-1.149-.656,1.326-.109.231.145-.291.281-.585.435-.872a16.649,16.649,0,0,1,1.018-1.654c.369-.529.931-.733-.162.187a7.871,7.871,0,0,0,.634-.735,18.517,18.517,0,0,1,1.629-1.579c.413-.354,1.194-.656-.2.129.276-.155.533-.388.8-.565q.812-.546,1.676-1.011.431-.232.874-.444c.5-.239,1.335-.322-.242.082.677-.173,1.332-.493,2.008-.685q.863-.245,1.745-.412c.525-.1,1.478-.024-.315.017.321-.007.649-.069.97-.091a18.3,18.3,0,0,1,1.943-.029c.324.013.645.045.968.064,1.074.064-1.625-.3,0,.011a16.388,16.388,0,0,1,1.885.475,7.175,7.175,0,0,0,.922.324l-.833-.359q.307.133.607.279a16.763,16.763,0,0,1,1.735.971c.278.178.545.371.818.557.857.583-1.149-.981.067.084q.619.542,1.187,1.139.341.358.663.733c.361.421.638,1.19-.116-.188.69,1.261,1.552,2.4,2.2,3.705.554,1.109-.505-1.377-.084-.21.113.315.236.626.343.943q.321.952.554,1.93c.156.653.232,1.32.375,1.974-.395-1.8-.106-.759-.067-.27q.053.667.064,1.337.013.836-.041,1.671c-.021.326-.094.672-.09,1-.023-1.69.122-.848.017-.281a18.922,18.922,0,0,1-.468,1.948q-.143.481-.312.954-.15.419-.317.833.486-1.131.077-.215c-1.663,3.326-3.735,6.428-5.371,9.765a44.557,44.557,0,0,0-3.9,26.835,6.026,6.026,0,0,0,2.768,3.6,6.15,6.15,0,0,0,4.641.607c3.395-1.1,4.729-4.062,4.206-7.408-.184-1.179.1,1.051-.024-.136-.052-.509-.1-1.017-.139-1.528q-.108-1.53-.088-3.066.017-1.315.126-2.626a7.787,7.787,0,0,1,.158-1.526s-.194,1.211-.063.516c.054-.287.093-.577.144-.865a37.2,37.2,0,0,1,1.5-5.719c.144-.414.3-.822.455-1.233.4-1.085-.418.871.068-.179.433-.937.882-1.861,1.376-2.768,2.073-3.809,4.418-7.377,5.929-11.474a24.077,24.077,0,0,0,1.336-10.038c-.559-7.024-3.537-14.151-9.088-18.7a23.7,23.7,0,0,0-20.94-4.771A25.036,25.036,0,0,0,766.4,299.054c-1.113,2.954,1.234,6.732,4.206,7.409,3.426.78,6.217-1.044,7.408-4.206Z" transform="translate(315.884 4218.033)"/></g></svg>