<svg xmlns="http://www.w3.org/2000/svg" width="235.069" height="193.005" viewBox="0 0 235.069 193.005">
  <g id="Group_46" data-name="Group 46" opacity="0.21">
    <g id="Group_42" data-name="Group 42" transform="translate(16.846 120.637)">
      <path id="Path_160" data-name="Path 160" d="M750.745,1070.281a10.494,10.494,0,0,1-9.69-6.449c-.831-1.956-19.869-44.922-80.508-44.922-61.3,0-80.3,44.422-80.488,44.873a10.494,10.494,0,1,1-19.405-8c.968-2.364,24.7-57.868,99.893-57.868s98.928,55.5,99.9,57.868a10.5,10.5,0,0,1-9.7,14.494Z" transform="translate(-559.859 -997.919)" fill="#2f2e41"/>
    </g>
    <g id="Group_45" data-name="Group 45">
      <g id="Group_43" data-name="Group 43">
        <path id="Path_161" data-name="Path 161" d="M565.213,1042.617a10.495,10.495,0,0,1-5.258-19.582l36.737-21.21-36.737-21.21a10.495,10.495,0,1,1,10.5-18.176l52.476,30.3a10.492,10.492,0,0,1,0,18.176l-52.476,30.3A10.44,10.44,0,0,1,565.213,1042.617Z" transform="translate(-554.707 -961.029)" fill="#2f2e41"/>
      </g>
      <g id="Group_44" data-name="Group 44" transform="translate(161.6)">
        <path id="Path_162" data-name="Path 162" d="M667.087,1042.617a10.441,10.441,0,0,1-5.239-1.406l-52.476-30.3a10.492,10.492,0,0,1,0-18.176l52.476-30.3a10.494,10.494,0,1,1,10.494,18.176l-36.734,21.21,36.734,21.21a10.494,10.494,0,0,1-5.255,19.582Z" transform="translate(-604.124 -961.029)" fill="#2f2e41"/>
      </g>
    </g>
  </g>
</svg>
