<svg xmlns="http://www.w3.org/2000/svg" width="239.218" height="199.494" viewBox="0 0 239.218 199.494">
  <g id="Group_51" data-name="Group 51" opacity="0.206">
    <g id="Group_47" data-name="Group 47">
      <path id="Rectangle_55" data-name="Rectangle 55" d="M6.972,0H39.09a6.972,6.972,0,0,1,6.972,6.972V56.452a6.973,6.973,0,0,1-6.973,6.973H6.973A6.973,6.973,0,0,1,0,56.452V6.972A6.972,6.972,0,0,1,6.972,0Z" fill="#2f2e41"/>
    </g>
    <g id="Group_48" data-name="Group 48" transform="translate(158.168 3.285)">
      <path id="Path_163" data-name="Path 163" d="M554.274,1044.892a10.5,10.5,0,0,1-10.494-10.5v-6.129a19.258,19.258,0,0,0-19.235-19.235c-11.2,0-19.833,8.63-19.833,19.235v6.129a10.5,10.5,0,1,1-20.991,0v-6.129a40.526,40.526,0,0,1,81.05,0v6.129A10.5,10.5,0,0,1,554.274,1044.892Z" transform="translate(-483.721 -988.04)" fill="#2f2e41"/>
    </g>
    <g id="Group_49" data-name="Group 49" transform="translate(28.191 130.938)">
      <path id="Path_164" data-name="Path 164" d="M526.646,1095.632c-49.553,0-75.344-35.668-82.061-54.527a10.5,10.5,0,0,1,19.761-7.079c.664,1.8,15.543,40.615,62.3,40.615,47.289,0,62.146-40.17,62.29-40.575a10.5,10.5,0,1,1,19.775,7.04C601.993,1059.964,576.2,1095.632,526.646,1095.632Z" transform="translate(-443.974 -1027.076)" fill="#2f2e41"/>
    </g>
  </g>
</svg>
