<svg xmlns="http://www.w3.org/2000/svg" width="256.709" height="206.409" viewBox="0 0 256.709 206.409">
  <g id="Group_41" data-name="Group 41" opacity="0.21">
    <g id="Group_39" data-name="Group 39">
      <g id="Group_36" data-name="Group 36">
        <g id="Group_35" data-name="Group 35">
          <path id="Path_157" data-name="Path 157" d="M366.412,1011.267a10.5,10.5,0,0,1-10.494-10.494v-6.131a19.255,19.255,0,0,0-19.232-19.235c-11.207,0-19.833,8.63-19.833,19.235v6.131a10.5,10.5,0,0,1-20.991,0v-6.131a40.525,40.525,0,0,1,81.047,0v6.131A10.5,10.5,0,0,1,366.412,1011.267Z" transform="translate(-295.862 -954.419)" fill="#2f2e41"/>
        </g>
      </g>
      <g id="Group_38" data-name="Group 38" transform="translate(175.666)">
        <g id="Group_37" data-name="Group 37">
          <path id="Path_158" data-name="Path 158" d="M420.13,1011.267a10.5,10.5,0,0,1-10.5-10.494v-6.131A19.255,19.255,0,0,0,390.4,975.407c-11.207,0-19.833,8.63-19.833,19.235v6.131a10.5,10.5,0,0,1-20.991,0v-6.131a40.523,40.523,0,0,1,81.044,0v6.131A10.5,10.5,0,0,1,420.13,1011.267Z" transform="translate(-349.58 -954.419)" fill="#2f2e41"/>
        </g>
      </g>
    </g>
    <g id="Group_40" data-name="Group 40" transform="translate(2.47 127.66)">
      <path id="Path_159" data-name="Path 159" d="M422.5,1072.206c-93.9,0-123.667-61.191-124.887-63.794a10.494,10.494,0,0,1,18.983-8.951c1.105,2.276,26.044,51.753,105.9,51.753,80.71,0,105.649-51.194,105.891-51.711a10.494,10.494,0,1,1,19,8.908C546.174,1011.014,516.409,1072.206,422.5,1072.206Z" transform="translate(-296.617 -993.457)" fill="#2f2e41"/>
    </g>
  </g>
</svg>
