<svg xmlns="http://www.w3.org/2000/svg" width="527.284" height="20" viewBox="0 0 527.284 20"><defs><style>.a,.b{fill:#fff;}.a{font-size:16px;font-family:HelveticaNeue-Medium, Helvetica Neue;font-weight:500;}.c{fill:#00b9ad;}</style></defs><g transform="translate(-756 -5079)"><text class="a" transform="translate(756 5079)"><tspan x="0" y="16">© All rights reserved 2020 Karneval nauke, Powered by</tspan></text><g transform="translate(1157.412 5065.4)"><path class="b" d="M304.881,36.467l-.34.243a3.1,3.1,0,0,1-1.628.486,1.258,1.258,0,0,1-1.045-.413,1.774,1.774,0,0,1-.389-1.215v-4.5h3.353V28.91h-3.353V25.8h-2.527v3.086H294.7V39.31h2.527V31.073h1.7v4.617a3.543,3.543,0,0,0,3.839,3.912,5.754,5.754,0,0,0,2.7-.826l.267-.146A4.37,4.37,0,0,1,304.881,36.467Z" transform="translate(-214.313 -9.236)"/><path class="c" d="M13.082,60.2c-.826,0-1.482,2.017-1.482,5.151h2.964c0-3.134-.68-5.151-1.482-5.151" transform="translate(0 -35.277)"/><path class="c" d="M55.242,13.6c-2.09,0-3.742,7-3.742,16.5h7.508c-.024-9.5-1.7-16.5-3.766-16.5" transform="translate(-30.205)"/><path class="c" d="M30.257,37.5c-1.312,0-2.357,4.4-2.357,10.667h4.714c0-6.269-1.045-10.667-2.357-10.667" transform="translate(-12.339 -18.093)"/><path class="b" d="M110.577,38.542a5.138,5.138,0,0,0-3.4-1.142,5.041,5.041,0,0,0-3.645,1.555,5.826,5.826,0,0,0,0,7.872,5,5,0,0,0,3.645,1.555,5.138,5.138,0,0,0,3.4-1.142v.85H113.1v-10.4h-2.527Zm-.9,2.041a3.112,3.112,0,0,1,.923,2.308,3.022,3.022,0,0,1-.923,2.308,3.08,3.08,0,0,1-4.325.024,3.138,3.138,0,0,1-.85-2.333,3.237,3.237,0,0,1,.85-2.333,2.929,2.929,0,0,1,2.187-.875,2.981,2.981,0,0,1,2.138.9" transform="translate(-68.435 -18.017)"/><path class="b" d="M167.138,37.4a4.545,4.545,0,0,0-3.693,1.652,3.359,3.359,0,0,0-1.263-1.142,4.2,4.2,0,0,0-2.065-.51,4.288,4.288,0,0,0-2.989,1.069v-.778H154.6V48.115h2.527V42.94a3.709,3.709,0,0,1,.656-2.381,2.142,2.142,0,0,1,1.774-.778,1.94,1.94,0,0,1,1.458.583,2.147,2.147,0,0,1,.583,1.579v6.147h2.527V42.94a3.57,3.57,0,0,1,.68-2.381,2.159,2.159,0,0,1,1.8-.778,1.94,1.94,0,0,1,1.458.583,2.147,2.147,0,0,1,.583,1.579v6.147h2.5v-6.56a3.953,3.953,0,0,0-1.166-2.964,3.868,3.868,0,0,0-2.843-1.166" transform="translate(-108.254 -18.017)"/><path class="b" d="M233.529,37.4a5.138,5.138,0,0,0-3.4,1.142v-.85H227.6V51.517h2.527V47.241a5.138,5.138,0,0,0,3.4,1.142,4.909,4.909,0,0,0,3.645-1.555,5.826,5.826,0,0,0,0-7.872,5,5,0,0,0-3.645-1.555m2.7,5.491a3.237,3.237,0,0,1-.85,2.333,3.08,3.08,0,0,1-4.325-.024,3.112,3.112,0,0,1-.923-2.308,3.022,3.022,0,0,1,.923-2.308,3.08,3.08,0,0,1,4.325-.024,3.237,3.237,0,0,1,.85,2.333" transform="translate(-163.517 -18.017)"/><rect class="b" width="2.527" height="14.724" transform="translate(76.037 15.349)"/><path class="b" d="M348.435,43.411a4.025,4.025,0,0,1-.729,2.624,2.445,2.445,0,0,1-1.992.875,1.992,1.992,0,0,1-1.579-.68,2.767,2.767,0,0,1-.607-1.847V38.6H341v6.245a4.45,4.45,0,0,0,1.166,3.207,4.009,4.009,0,0,0,3.062,1.239,4.531,4.531,0,0,0,3.207-1.166v.9h2.527V38.6h-2.527Z" transform="translate(-249.363 -18.926)"/><path class="b" d="M395.277,25.975a5.138,5.138,0,0,0-3.4-1.142,5.041,5.041,0,0,0-3.645,1.555,5.367,5.367,0,0,0-1.531,3.936,5.367,5.367,0,0,0,1.531,3.936,5,5,0,0,0,3.645,1.555,5.23,5.23,0,0,0,3.4-1.142v.85h2.551V20.8h-2.551Zm-.923,2.041a3.112,3.112,0,0,1,.923,2.308,2.952,2.952,0,0,1-.923,2.308,3.015,3.015,0,0,1-2.138.875,2.912,2.912,0,0,1-2.162-.875,3.138,3.138,0,0,1-.85-2.333,3.217,3.217,0,0,1,.85-2.308,3.05,3.05,0,0,1,4.3.024" transform="translate(-283.959 -5.451)"/><path class="b" d="M445.525,39.131a5.892,5.892,0,0,0-7.9-.024,5.514,5.514,0,0,0,0,7.824,5.857,5.857,0,0,0,7.9,0,5.485,5.485,0,0,0,0-7.8m-.85,3.912a3.113,3.113,0,0,1-3.086,3.207,2.971,2.971,0,0,1-2.187-.9,3.413,3.413,0,0,1,0-4.617,3.08,3.08,0,0,1,4.349,0,3.112,3.112,0,0,1,.923,2.308" transform="translate(-321.281 -18.169)"/><path class="b" d="M295.131,23.837a1.626,1.626,0,0,0,1.118-.413,1.484,1.484,0,0,0,.437-1.093,1.564,1.564,0,0,0-.437-1.093,1.483,1.483,0,0,0-1.093-.437,1.539,1.539,0,0,0-1.118.437,1.484,1.484,0,0,0-.437,1.093,1.416,1.416,0,0,0,.462,1.093,1.341,1.341,0,0,0,1.069.413" transform="translate(-213.481 -5.451)"/></g></g></svg>