<svg xmlns="http://www.w3.org/2000/svg" width="24.041" height="19.721" viewBox="0 0 24.041 19.721"><defs><style>.a{fill:#edc106;fill-rule:evenodd;}</style></defs><g transform="translate(0 -46)"><path class="a" d="M22.632,47.878H21.224v-.47a1.409,1.409,0,0,0-2.817,0v.47h-1.08v-.47a1.409,1.409,0,1,0-2.817,0v.47h-1.08v-.47a1.409,1.409,0,0,0-2.817,0v.47H9.532v-.47a1.409,1.409,0,0,0-2.817,0v.47H5.635v-.47a1.409,1.409,0,0,0-2.817,0v.47H1.409A1.41,1.41,0,0,0,0,49.287V65.252a.47.47,0,0,0,.47.47h23.1a.47.47,0,0,0,.47-.47V49.287A1.41,1.41,0,0,0,22.632,47.878Zm-3.287-.47a.47.47,0,0,1,.939,0v1.878a.47.47,0,1,1-.939,0Zm-3.9,0a.47.47,0,0,1,.939,0v1.878a.47.47,0,1,1-.939,0Zm-3.9,0a.47.47,0,0,1,.939,0v1.878a.47.47,0,1,1-.939,0Zm-3.9,0a.47.47,0,0,1,.939,0v1.878a.47.47,0,1,1-.939,0Zm-3.9,0a.47.47,0,0,1,.939,0v1.878a.47.47,0,1,1-.939,0ZM1.409,48.817H2.817v.47a1.409,1.409,0,0,0,2.817,0v-.47h1.08v.47a1.409,1.409,0,0,0,2.817,0v-.47h1.08v.47a1.409,1.409,0,0,0,2.817,0v-.47h1.08v.47a1.409,1.409,0,0,0,2.817,0v-.47h1.08v.47a1.409,1.409,0,0,0,2.817,0v-.47h1.409a.47.47,0,0,1,.47.47v2.348H.939V49.287a.47.47,0,0,1,.47-.47ZM23.1,64.782H.939V52.574H23.1Z"/><path class="a" d="M71.411,216h-.939a.47.47,0,0,0-.47.47v.939a.47.47,0,0,0,.47.47h.939a.47.47,0,0,0,.47-.47v-.939A.47.47,0,0,0,71.411,216Z" transform="translate(-66.715 -162.019)"/><path class="a" d="M154.41,216h-.939a.47.47,0,0,0-.47.47v.939a.47.47,0,0,0,.47.47h.939a.47.47,0,0,0,.47-.47v-.939A.47.47,0,0,0,154.41,216Z" transform="translate(-145.817 -162.019)"/><path class="a" d="M320.41,216h-.939a.47.47,0,0,0-.47.47v.939a.47.47,0,0,0,.47.47h.939a.47.47,0,0,0,.47-.47v-.939A.47.47,0,0,0,320.41,216Z" transform="translate(-304.022 -162.019)"/><path class="a" d="M237.41,216h-.939a.47.47,0,0,0-.47.47v.939a.47.47,0,0,0,.47.47h.939a.47.47,0,0,0,.47-.47v-.939A.47.47,0,0,0,237.41,216Z" transform="translate(-224.92 -162.019)"/><path class="a" d="M403.41,216h-.939a.47.47,0,0,0-.47.47v.939a.47.47,0,0,0,.47.47h.939a.47.47,0,0,0,.47-.47v-.939A.47.47,0,0,0,403.41,216Z" transform="translate(-383.125 -162.019)"/><path class="a" d="M71.411,296h-.939a.47.47,0,0,0-.47.47v.939a.47.47,0,0,0,.47.47h.939a.47.47,0,0,0,.47-.47v-.939A.47.47,0,0,0,71.411,296Z" transform="translate(-66.715 -238.263)"/><path class="a" d="M154.41,296h-.939a.47.47,0,0,0-.47.47v.939a.47.47,0,0,0,.47.47h.939a.47.47,0,0,0,.47-.47v-.939A.47.47,0,0,0,154.41,296Z" transform="translate(-145.817 -238.263)"/><path class="a" d="M320.41,296h-.939a.47.47,0,0,0-.47.47v.939a.47.47,0,0,0,.47.47h.939a.47.47,0,0,0,.47-.47v-.939A.47.47,0,0,0,320.41,296Z" transform="translate(-304.022 -238.263)"/><path class="a" d="M237.41,296h-.939a.47.47,0,0,0-.47.47v.939a.47.47,0,0,0,.47.47h.939a.47.47,0,0,0,.47-.47v-.939A.47.47,0,0,0,237.41,296Z" transform="translate(-224.92 -238.263)"/><path class="a" d="M403.41,296h-.939a.47.47,0,0,0-.47.47v.939a.47.47,0,0,0,.47.47h.939a.47.47,0,0,0,.47-.47v-.939A.47.47,0,0,0,403.41,296Z" transform="translate(-383.125 -238.263)"/><path class="a" d="M71.411,376h-.939a.47.47,0,0,0-.47.47v.939a.47.47,0,0,0,.47.469h.939a.47.47,0,0,0,.47-.469v-.939A.47.47,0,0,0,71.411,376Z" transform="translate(-66.715 -314.507)"/><path class="a" d="M154.41,376h-.939a.47.47,0,0,0-.47.47v.939a.47.47,0,0,0,.47.469h.939a.47.47,0,0,0,.47-.469v-.939A.47.47,0,0,0,154.41,376Z" transform="translate(-145.817 -314.507)"/><path class="a" d="M320.41,376h-.939a.47.47,0,0,0-.47.47v.939a.47.47,0,0,0,.47.469h.939a.47.47,0,0,0,.47-.469v-.939A.47.47,0,0,0,320.41,376Z" transform="translate(-304.022 -314.507)"/><path class="a" d="M237.41,376h-.939a.47.47,0,0,0-.47.47v.939a.47.47,0,0,0,.47.469h.939a.47.47,0,0,0,.47-.469v-.939A.47.47,0,0,0,237.41,376Z" transform="translate(-224.92 -314.507)"/><path class="a" d="M403.41,376h-.939a.47.47,0,0,0-.47.47v.939a.47.47,0,0,0,.47.469h.939a.47.47,0,0,0,.47-.469v-.939A.47.47,0,0,0,403.41,376Z" transform="translate(-383.125 -314.507)"/></g></svg>