<svg xmlns="http://www.w3.org/2000/svg" width="24.132" height="26.677" viewBox="0 0 24.132 26.677"><defs><style>.a{fill:#57b894;}</style></defs><path class="a" d="M938.15,723.25s-28.78-1.73-25.34,18.45a4.929,4.929,0,0,0,2.56,5.19s0-1.5,3-1a13.127,13.127,0,0,0,3.13.15,6.517,6.517,0,0,0,3.82-1.58h0s8.09-3.34,11.23-16.56c0,0,2.33-2.89,2.24-3.63l-4.86,2.08s1.66,3.5.36,6.41c0,0-.16-6.29-1.09-6.14-.19,0-2.53,1.21-2.53,1.21s2.86,6.11.7,10.54c0,0,.82-7.52-1.59-10.09l-3.42,2s3.34,6.31,1.08,11.45c0,0,.58-7.89-1.8-11l-3.09,2.41s3.13,6.22,1.22,10.48c0,0-.25-9.18-1.9-9.87,0,0-2.71,2.38-3.12,3.37,0,0,2.15,4.51.82,6.89,0,0-.82-6.12-1.49-6.15,0,0-2.7,4.05-3,6.83a14.772,14.772,0,0,1,2.33-7.22,8.148,8.148,0,0,0-4.14,2.14s.42-2.86,4.8-3.11c0,0,2.23-3.08,2.83-3.27,0,0-4.36-.36-7,.81,0,0,2.33-2.7,7.8-1.47l3.06-2.5s-5.74-.79-8.17.08c0,0,2.8-2.39,9-.65l3.33-2s-4.89-1.05-7.8-.67c0,0,3.07-1.66,8.78.14l2.38-1.07s-3.59-.71-4.63-.82-1.11-.4-1.11-.4a12.428,12.428,0,0,1,6.73.75S938.23,723.57,938.15,723.25Z" transform="matrix(0.017, -1, 1, 0.017, -739.029, 926.028)"/></svg>