<svg xmlns="http://www.w3.org/2000/svg" width="676.462" height="179.755" viewBox="0 0 676.462 179.755"><defs><style>.a{fill:#082d60;}.b{fill:#dc003c;}.c{fill:#092d5f;}</style></defs><g transform="translate(-139.787 -101.058)"><g transform="translate(139.787 124.314)"><path class="a" d="M803.42,268.827h-650.8c-7.074,0-12.829-6-12.829-13.382V125.706c0-7.377,5.755-13.378,12.829-13.378H688.582v4.232H152.616a8.894,8.894,0,0,0-8.6,9.146V255.445a8.9,8.9,0,0,0,8.6,9.15h650.8a8.9,8.9,0,0,0,8.6-9.15V125.706a8.894,8.894,0,0,0-8.6-9.146H734.3v-4.232H803.42c7.074,0,12.829,6,12.829,13.378V255.445C816.249,262.824,810.494,268.827,803.42,268.827Z" transform="translate(-139.787 -112.328)"/></g><path class="b" d="M220.688,182.948c0,17.381-12.594,30.79-27.872,30.79-7.815,0-13.529-2.683-17.377-7.115v5.483H157.944v-81.64h17.495v28.809c3.849-4.432,9.562-7.115,17.377-7.115C208.094,152.16,220.688,165.571,220.688,182.948Zm-17.493,0c0-8.745-5.832-14.228-13.879-14.228s-13.877,5.483-13.877,14.228,5.829,14.23,13.877,14.23S203.2,191.7,203.2,182.948Z" transform="translate(19.311 31.277)"/><path class="b" d="M191.74,171.767a30.907,30.907,0,1,1,30.908,30.79A30.566,30.566,0,0,1,191.74,171.767Zm44.321,0c0-8.279-5.832-13.76-13.413-13.76s-13.413,5.481-13.413,13.76,5.832,13.762,13.413,13.762S236.061,180.048,236.061,171.767Z" transform="translate(55.254 42.458)"/><path class="b" d="M225.086,171.767a30.907,30.907,0,1,1,30.906,30.79A30.564,30.564,0,0,1,225.086,171.767Zm44.319,0c0-8.279-5.832-13.76-13.413-13.76s-13.411,5.481-13.411,13.76,5.83,13.762,13.411,13.762S269.4,180.048,269.4,171.767Z" transform="translate(90.719 42.458)"/><path class="b" d="M306.635,183.428c0,13.415-11.663,19.129-24.259,19.129-11.663,0-20.526-4.43-25.074-13.877l15.161-8.632c1.517,4.43,4.781,6.884,9.913,6.884,4.2,0,6.3-1.288,6.3-3.619,0-6.413-28.691-3.029-28.691-23.207,0-12.713,10.73-19.127,22.86-19.127,9.447,0,17.843,4.2,22.742,12.478l-14.928,8.048c-1.634-3.031-3.966-5.132-7.815-5.132-3.031,0-4.9,1.166-4.9,3.265C277.944,166.286,306.635,161.854,306.635,183.428Z" transform="translate(124.982 42.458)"/><path class="b" d="M309.163,166.981v20.642c0,5.014,4.315,5.481,12.012,5.014V208.5c-22.86,2.332-29.507-4.548-29.507-20.877V166.981h-9.329v-16.8h9.329V139.107l17.495-5.25v16.329h12.012v16.8Z" transform="translate(151.61 34.883)"/><path class="b" d="M454.268,130.449c-7.815,0-13.529,2.683-17.377,7.115v-5.483H419.4v44.183c.033.937.076,1.88.132,2.806a4.4,4.4,0,0,1,3.388,7.084,5.81,5.81,0,0,1,1.771,7.3,10.176,10.176,0,0,1,2.615,12.051,5.853,5.853,0,0,1,1.3,8.215h8.289V184.914c3.849,4.432,9.563,7.115,17.377,7.115,15.276,0,27.872-13.411,27.872-30.79S469.544,130.449,454.268,130.449Zm-26.009,63.058a.739.739,0,1,1,.739-.739A.738.738,0,0,1,428.259,193.507Zm3.694,15.834a1.476,1.476,0,1,1,1.475-1.477A1.476,1.476,0,0,1,431.953,209.34Zm18.815-33.873c-8.048,0-13.877-5.481-13.877-14.228s5.83-14.228,13.877-14.228,13.879,5.481,13.879,14.228S458.816,175.467,450.768,175.467Z" transform="translate(297.376 31.259)"/><path class="b" d="M436.029,189.556a5.9,5.9,0,0,1,3.436-4.893,3.673,3.673,0,0,1,3.281-6.341c.153-1.857.274-3.966.355-6.238V131.24H425.606v31.84c0,8.281-4.43,12.014-10.846,12.014-5.6,0-10.147-3.382-10.147-10.615V131.24H387.121v35.807c0,15.745,10.029,24.141,21.808,24.141,7.7,0,13.529-2.8,16.678-7.115v5.483Zm-.774-6.909a.739.739,0,1,1-.739.739A.738.738,0,0,1,435.255,182.647Z" transform="translate(263.05 32.1)"/><g transform="translate(483.862 183.437)"><path class="c" d="M394,165.12v35.8H376.5V166.637c0-5.832-2.8-9.565-8.4-9.565-5.832,0-9.1,4.082-9.1,10.964v32.889H341.516V166.637c0-5.832-2.8-9.565-8.4-9.565-5.829,0-9.1,4.082-9.1,10.964v32.889H306.527V142.611h17.495v5.365c2.68-3.966,7.815-7,15.627-7,6.882,0,12.014,2.8,15.278,7.7,3.265-4.666,8.63-7.7,16.911-7.7C385.251,140.979,394,150.544,394,165.12Z" transform="translate(-306.527 -140.979)"/><path class="c" d="M385.863,186.932a15.239,15.239,0,0,0,11.2-4.432l13.995,8.044c-5.714,7.932-14.346,12.014-25.425,12.014-19.942,0-32.307-13.409-32.307-30.79s12.6-30.788,31.025-30.788c17.026,0,29.622,13.18,29.622,30.788a33.92,33.92,0,0,1-.7,7h-41.4C374.082,184.831,379.447,186.932,385.863,186.932Zm10.73-21.23c-1.865-6.764-7.115-9.212-12.363-9.212-6.649,0-11.079,3.265-12.714,9.212Z" transform="translate(-256.757 -140.979)"/></g><path class="c" d="M433.843,134.077l-.017.054c2.383-23.789-9.556-33.072-9.556-33.072s-11.938,9.284-9.554,33.072l-.017-.054-4.924,7.654v8.4a.7.7,0,0,0,1.009.625l6.7-3.234,1.4,4.274h.047a19.059,19.059,0,0,1,10.51,0h.221l1.4-4.274,6.7,3.234a.7.7,0,0,0,1.009-.625v-8.4Zm-9.657-4.94a4.245,4.245,0,1,1,4.243-4.245A4.245,4.245,0,0,1,424.186,129.137Z" transform="translate(287.145)"/></g></svg>