<svg xmlns="http://www.w3.org/2000/svg" width="526.184" height="139.822" viewBox="0 0 526.184 139.822"><defs><style>.a,.c{opacity:0.6;}.b,.c{fill:#fff;}</style></defs><g transform="translate(-139.787 -101.058)"><g class="a" transform="translate(139.787 119.148)"><path class="b" d="M655.992,234.06H149.766a10.212,10.212,0,0,1-9.979-10.409V122.734a10.211,10.211,0,0,1,9.979-10.406h416.9v3.292h-416.9a6.918,6.918,0,0,0-6.687,7.114V223.651a6.92,6.92,0,0,0,6.687,7.117H655.992a6.92,6.92,0,0,0,6.687-7.117V122.734a6.918,6.918,0,0,0-6.687-7.114H602.23v-3.292h53.762a10.211,10.211,0,0,1,9.979,10.406V223.651A10.212,10.212,0,0,1,655.992,234.06Z" transform="translate(-139.787 -112.328)"/></g><path class="b" d="M206.749,171.289c0,13.52-9.8,23.95-21.68,23.95-6.079,0-10.523-2.087-13.517-5.534v4.265H157.944v-63.5h13.608v22.409c2.994-3.448,7.438-5.534,13.517-5.534C196.953,147.341,206.749,157.772,206.749,171.289Zm-13.607,0c0-6.8-4.536-11.067-10.8-11.067s-10.794,4.265-10.794,11.067,4.534,11.069,10.794,11.069S193.143,178.093,193.143,171.289Z" transform="translate(10.987 17.795)"/><path class="b" d="M191.74,164.927a24.041,24.041,0,1,1,24.042,23.95A23.775,23.775,0,0,1,191.74,164.927Zm34.475,0c0-6.44-4.536-10.7-10.433-10.7s-10.433,4.263-10.433,10.7,4.536,10.7,10.433,10.7S226.215,171.369,226.215,164.927Z" transform="translate(31.438 24.157)"/><path class="b" d="M225.086,164.927a24.041,24.041,0,1,1,24.04,23.95A23.774,23.774,0,0,1,225.086,164.927Zm34.473,0c0-6.44-4.536-10.7-10.433-10.7s-10.432,4.263-10.432,10.7,4.535,10.7,10.432,10.7S259.559,171.369,259.559,164.927Z" transform="translate(51.616 24.157)"/><path class="b" d="M295.676,174c0,10.435-9.072,14.879-18.87,14.879-9.072,0-15.966-3.446-19.5-10.794l11.793-6.714c1.18,3.446,3.719,5.355,7.711,5.355,3.266,0,4.9-1,4.9-2.815,0-4.989-22.318-2.356-22.318-18.051,0-9.889,8.347-14.878,17.781-14.878,7.348,0,13.879,3.266,17.69,9.706l-11.611,6.26c-1.271-2.358-3.085-3.992-6.079-3.992-2.358,0-3.811.907-3.811,2.539C273.358,160.664,295.676,157.216,295.676,174Z" transform="translate(71.111 24.157)"/><path class="b" d="M303.2,159.622v16.056c0,3.9,3.356,4.263,9.343,3.9v12.339c-17.782,1.814-22.952-3.538-22.952-16.239V159.622h-7.257V146.558H289.6V137.94l13.608-4.083v12.7h9.343v13.064Z" transform="translate(86.261 19.847)"/><path class="b" d="M446.521,130.449c-6.079,0-10.523,2.087-13.517,5.534v-4.265H419.4v34.367c.026.729.059,1.462.1,2.183a3.426,3.426,0,0,1,2.636,5.51,4.519,4.519,0,0,1,1.377,5.679,7.915,7.915,0,0,1,2.034,9.374,4.553,4.553,0,0,1,1.011,6.39H433V172.815c2.994,3.448,7.438,5.534,13.517,5.534,11.883,0,21.68-10.432,21.68-23.95S458.4,130.449,446.521,130.449ZM426.29,179.5a.575.575,0,1,1,.575-.575A.574.574,0,0,1,426.29,179.5Zm2.873,12.316a1.148,1.148,0,1,1,1.148-1.149A1.148,1.148,0,0,1,429.163,191.814ZM443.8,165.466c-6.26,0-10.794-4.263-10.794-11.067s4.534-11.067,10.794-11.067,10.8,4.263,10.8,11.067S450.059,165.466,443.8,165.466Z" transform="translate(169.197 17.785)"/><path class="b" d="M425.164,176.6a4.587,4.587,0,0,1,2.673-3.806,2.857,2.857,0,0,1,2.552-4.933c.119-1.445.213-3.085.276-4.852V131.24H417.057v24.767c0,6.441-3.446,9.345-8.436,9.345-4.355,0-7.892-2.631-7.892-8.257V131.24H387.121v27.852c0,12.247,7.8,18.778,16.963,18.778,5.989,0,10.523-2.177,12.973-5.534V176.6Zm-.6-5.374a.575.575,0,1,1-.575.575A.574.574,0,0,1,424.562,171.227Z" transform="translate(149.667 18.264)"/><g class="a" transform="translate(407.425 165.136)"><path class="b" d="M374.566,159.757v27.85H360.958V160.937c0-4.536-2.178-7.44-6.531-7.44-4.536,0-7.077,3.175-7.077,8.528v25.582H333.743V160.937c0-4.536-2.178-7.44-6.533-7.44-4.534,0-7.075,3.175-7.075,8.528v25.582H306.527V142.249h13.608v4.173c2.085-3.085,6.079-5.443,12.156-5.443,5.353,0,9.345,2.177,11.884,5.987,2.539-3.629,6.713-5.987,13.154-5.987C367.762,140.979,374.566,148.419,374.566,159.757Z" transform="translate(-306.527 -140.979)"/><path class="b" d="M378.634,176.723a11.854,11.854,0,0,0,8.709-3.448l10.886,6.257c-4.445,6.17-11.159,9.345-19.777,9.345-15.512,0-25.13-10.43-25.13-23.95s9.8-23.948,24.133-23.948c13.244,0,23.042,10.252,23.042,23.948a26.383,26.383,0,0,1-.544,5.445H367.748C369.471,175.089,373.644,176.723,378.634,176.723Zm8.347-16.513c-1.451-5.262-5.534-7.165-9.616-7.165-5.172,0-8.618,2.539-9.889,7.165Z" transform="translate(-278.21 -140.979)"/></g><path class="c" d="M428.5,126.742l-.013.042c1.854-18.5-7.433-25.725-7.433-25.725s-9.286,7.221-7.432,25.725l-.013-.042-3.83,5.953v6.538a.545.545,0,0,0,.785.486l5.21-2.515,1.088,3.324h.037a14.825,14.825,0,0,1,8.175,0h.172l1.088-3.324,5.21,2.515a.545.545,0,0,0,.785-.486v-6.538Zm-7.512-3.843a3.3,3.3,0,1,1,3.3-3.3A3.3,3.3,0,0,1,420.985,122.9Z" transform="translate(163.376)"/></g></svg>