<svg xmlns="http://www.w3.org/2000/svg" width="936.984" height="772.5" viewBox="0 0 936.984 772.5"><defs><style>.a{fill:#f2f2f2;}.b{fill:none;stroke:#3f3d56;stroke-miterlimit:10;}.c{fill:#57b894;}.d{fill:#656380;}.e{opacity:0.2;}.f{fill:#edc106;}.g{fill:#ffb8b8;}.h{fill:#575a89;}.i{fill:#3f3d56;}.j{opacity:0.1;}</style></defs><path class="a" d="M321.941,657.864s348.645-290.975,549.444,0" transform="translate(-145.26 -59.686)"/><ellipse class="a" cx="161.478" cy="25.165" rx="161.478" ry="25.165" transform="translate(587.315 722.169)"/><ellipse class="b" cx="161.478" cy="25.165" rx="161.478" ry="25.165" transform="translate(613.529 712.732)"/><path class="c" d="M958.544,538.288a16.283,16.283,0,1,0,2.168-31.228l.408,8.381-3.965-7.182a16.221,16.221,0,0,0-8.359,9.171,15.963,15.963,0,0,0-.937,4.4A16.28,16.28,0,0,0,958.544,538.288Z" transform="translate(-114.869 -60.747)"/><path class="b" d="M976.9,636.139c-1.4-7.128,4.665-13.446,10.656-17.553s12.991-8.143,15.035-15.113c2.938-10.017-5.813-19.191-12.624-27.1a98.025,98.025,0,0,1-12.927-19.213,26.446,26.446,0,0,1-3.092-8.736c-.537-4.44.889-8.859,2.327-13.094q7.181-21.164,15.356-41.973" transform="translate(-113.606 -61.395)"/><path class="b" d="M959.183,536.23A16.283,16.283,0,1,0,961.352,505l.408,8.381-3.965-7.182a16.222,16.222,0,0,0-8.358,9.171,15.968,15.968,0,0,0-.937,4.4,16.28,16.28,0,0,0,10.684,16.454Z" transform="translate(-114.838 -60.847)"/><path class="c" d="M974.905,491.091a16.264,16.264,0,0,1,11.72-10.325l1.341,7.967,2.486-8.368a16.281,16.281,0,1,1-15.546,10.726Z" transform="translate(-113.601 -62.026)"/><path class="b" d="M975.758,488.347a16.264,16.264,0,0,1,11.72-10.325l1.341,7.967,2.486-8.368a16.281,16.281,0,1,1-15.546,10.726Z" transform="translate(-113.56 -62.159)"/><path class="c" d="M986.992,574.143a16.281,16.281,0,0,0,14.41-28.965l-1.91,6.43-1.354-8.061a.279.279,0,0,0-.042-.016,16.282,16.282,0,1,0-11.1,30.612Z" transform="translate(-113.488 -59.006)"/><path class="b" d="M987.731,571.364a16.281,16.281,0,0,0,14.41-28.965l-1.91,6.43-1.354-8.061a.284.284,0,0,0-.041-.016,16.282,16.282,0,1,0-11.1,30.612Z" transform="translate(-113.452 -59.141)"/><path class="c" d="M970.34,599.352a16.274,16.274,0,1,0,3.138-12.75l7.254,10.919-9.912-5.8a16.129,16.129,0,0,0-.48,7.627Z" transform="translate(-113.788 -57.175)"/><path class="b" d="M970.979,597.295a16.274,16.274,0,1,0,3.138-12.75l7.255,10.919-9.912-5.8a16.13,16.13,0,0,0-.48,7.627Z" transform="translate(-113.757 -57.275)"/><path class="d" d="M955.2,639.334s14.368-5.631,18.7-8.714,22.1-6.765,23.176-1.82,21.593,24.6,5.371,24.727-37.692,2.661-42.014.029S955.2,639.334,955.2,639.334Z" transform="translate(-114.511 -54.936)"/><path class="e" d="M1002.734,651.205c-16.222.131-37.692,2.662-42.014.029-3.291-2-4.6-9.2-5.042-12.518-.3.013-.48.019-.48.019s.91,11.588,5.232,14.221,25.792.1,42.014-.029c4.683-.038,6.3-1.7,6.211-4.171C1008.005,650.246,1006.219,651.177,1002.734,651.205Z" transform="translate(-114.511 -54.337)"/><rect class="f" width="62.913" height="165.672" rx="11.851" transform="translate(166.721 433.03)"/><rect class="f" width="62.913" height="265.285" rx="11.851" transform="translate(286.256 333.417)"/><rect class="f" width="62.913" height="334.49" rx="11.851" transform="translate(405.792 264.212)"/><rect class="f" width="62.913" height="400.549" rx="11.851" transform="translate(525.327 198.153)"/><rect class="f" width="62.913" height="515.89" rx="11.851" transform="translate(644.862 82.812)"/><rect class="b" width="62.913" height="165.672" rx="11.851" transform="translate(175.109 424.641)"/><rect class="b" width="62.913" height="265.285" rx="11.851" transform="translate(294.644 325.028)"/><rect class="b" width="62.913" height="334.49" rx="11.851" transform="translate(414.18 255.824)"/><rect class="b" width="62.913" height="400.549" rx="11.851" transform="translate(533.715 189.765)"/><rect class="b" width="62.913" height="515.89" rx="11.851" transform="translate(653.251 74.423)"/><line class="b" x1="903" transform="translate(0 599.5)"/><path class="g" d="M960.69,556.951s9.868,35.524-2.631,40.787-8.552-39.471-8.552-39.471Z" transform="translate(-114.816 -58.307)"/><path class="h" d="M876.183,774.042s-9.21-.658-12.5,1.316a7.938,7.938,0,0,1-6.579.658s-14.473-1.316-9.21,5.921,10.526,9.868,10.526,13.157,21.709,3.289,22.367,0,1.316-20.393,0-21.051S876.183,774.042,876.183,774.042Z" transform="translate(-119.777 -47.78)"/><path class="h" d="M898.281,774.042s9.21-.658,12.5,1.316a7.939,7.939,0,0,0,6.579.658s14.473-1.316,9.21,5.921-10.526,9.868-10.526,13.157-21.709,3.289-22.367,0-1.316-20.393,0-21.051S898.281,774.042,898.281,774.042Z" transform="translate(-117.535 -47.78)"/><path class="i" d="M849.226,550.4s-4.6,103.941-1.974,109.2,11.841,94.073,10.526,99.336-7.894,26.972,0,30.261,25,0,25,0,4.6-26.314,2.631-40.129-2.631-71.706-2.631-71.706l13.157-60.523,4.6,57.233s1.316,78.285-7.894,94.073,3.289,22.367,3.289,22.367,25,3.289,27.63,2.631-1.974-26.314,0-37.5,6.579-73.68,10.526-88.81,26.314-99.336,9.868-116.44S849.226,550.4,849.226,550.4Z" transform="translate(-119.792 -58.994)"/><circle class="g" cx="23.025" cy="23.025" r="23.025" transform="translate(754.432 235.503)"/><path class="g" d="M878.584,338.083s3.947,31.577,1.974,32.235,34.866,0,34.866,0-7.236-19.078,0-34.208Z" transform="translate(-118.231 -69.03)"/><path class="a" d="M878.584,362.785s16.034-15.789,34.989,0l1.227,4.706-9.9-.1H878.584Z" transform="translate(-118.231 -68.076)"/><path class="h" d="M959.092,564.527c-1.52.3-5.243.921-10.1,1.658-16.163,2.441-44.806,6.138-45.819,3.605-1.316-3.289-5.921-15.131-9.21-9.868s-1.316,9.868-15.131,10.526c-9.4.447-23.064-.934-30.63-3.105-3.552-1.02-5.763-2.21-5.552-3.473.658-3.947,7.894-78.943,7.894-86.179s2.631-42.1,2.631-42.1l-18.907-37.2-1.487-2.927s1.974-7.236,7.894-8.552,34.208-17.762,34.208-17.762,5.921-9.21,17.1-8.552,13.815-3.947,28.946,8.552c0,0,18.42,7.894,25,11.841s13.815,3.947,14.473,10.526c.132,1.322-.586,3.868-1.816,7.085-4.506,11.789-15.894,32.649-17.677,35.9-.158.283-.243.434-.243.434s-.342,11.828.02,25.676v.033c.355,13.282,1.355,28.419,3.927,36.787C949.883,514.53,965.671,563.211,959.092,564.527Z" transform="translate(-120.455 -67.856)"/><path class="i" d="M926.2,320.308a15.684,15.684,0,0,0-2.6-5.815,31.42,31.42,0,0,0-4.69-13.531,14.2,14.2,0,0,0-4.2-4.85,12.405,12.405,0,0,0-6.611-1.648c-.42-.007-1.175.12-1.854.151-.435-.135-.874-.255-1.314-.368-.257-.571-.766-2.236-.908-2.123l-1.918,1.524c-.811-.141-1.626-.251-2.445-.338l-.894-2.549a17.466,17.466,0,0,0-1.268,2.382q-1.222-.06-2.445-.042l-1.63-1.566a2.3,2.3,0,0,1-1.8,1.762c-.75.077-1.5.178-2.242.3-.061,0-.122,0-.182,0-4.015-.1-8.336-.28-11.694,1.924a11.524,11.524,0,0,0-3.722,4.225c-.411.279-.824.557-1.223.853a13.366,13.366,0,0,0-3.444,3.415,14.48,14.48,0,0,0-1.524,3.693,35.4,35.4,0,0,0-1.754,12.094,17.948,17.948,0,0,0,4.412,11.2c1.722,1.85,3.911,3.217,5.636,5.065,3.551,3.805,4.216,9.113,7.253,13.139,3.212,4.259,9.075,7.061,14.224,7.864a23.76,23.76,0,0,0,17.7-4.414,10.95,10.95,0,0,0,3.014-3.16c1.787-3.091,1.03-6.976,1.693-10.485C921.009,332.43,927.285,326.912,926.2,320.308Z" transform="translate(-118.851 -71.232)"/><path class="g" d="M840.231,558.833s9.868,35.524-2.631,40.787-8.552-39.471-8.552-39.471Z" transform="translate(-120.665 -58.215)"/><path class="j" d="M851.787,486.232s-4.316,64.049-3.651,79.482c-3.552-1.02-5.763-2.21-5.552-3.473.658-3.947,7.894-78.943,7.894-86.179s2.631-42.1,2.631-42.1l-18.907-37.2c.3-1.842.487-2.927.487-2.927l9.539,20.065,13.486,3.618Z" transform="translate(-120.386 -66.227)"/><path class="h" d="M837.952,390.065l-4.6,3.947s-5.921,34.866-5.263,43.418S814.269,575.58,825.453,575.58s23.683-1.974,21.709-6.579,3.285-82.587,3.285-82.587l5.925-68.72Z" transform="translate(-121.017 -66.41)"/><path class="j" d="M953.585,397.242c-4.506,11.789-15.894,32.649-17.677,35.9.053-8.414.085-14.368.085-14.368l13.815-28.288,2.96-2.3S953.085,391.663,953.585,397.242Z" transform="translate(-115.447 -66.502)"/><path class="j" d="M954.121,559.88c-1.52.3-5.243.921-10.1,1.658-2.519-18.63-9.256-72.206-8.828-77.252.211-2.487.388-14.775.526-28.294.355,13.282,1.355,28.419,3.927,36.787C944.911,509.883,960.7,558.564,954.121,559.88Z" transform="translate(-115.483 -63.209)"/><path class="h" d="M945.575,385.673l9.868,2.631s6.579,73.022,7.236,85.521,8.552,89.468,7.236,92.757-21.709,7.894-22.367,4.6-10.221-77.511-9.716-83.489-2.784-67.817-2.784-67.817Z" transform="translate(-115.489 -66.623)"/><path class="b" d="M196.5,360.669l119.536-99.613L436.62,192.9l119.535-66.059L675.69,11.5" transform="translate(9.541 0.534)"/><circle class="a" cx="11.534" cy="11.534" r="11.534" transform="translate(191.362 354.912)"/><circle class="a" cx="11.534" cy="11.534" r="11.534" transform="translate(310.897 255.299)"/><circle class="a" cx="11.534" cy="11.534" r="11.534" transform="translate(431.481 187.143)"/><circle class="a" cx="11.534" cy="11.534" r="11.534" transform="translate(551.017 121.084)"/><circle class="a" cx="11.534" cy="11.534" r="11.534" transform="translate(670.552 5.743)"/><circle class="b" cx="11.534" cy="11.534" r="11.534" transform="translate(194.507 349.669)"/><circle class="b" cx="11.534" cy="11.534" r="11.534" transform="translate(314.043 250.057)"/><circle class="b" cx="11.534" cy="11.534" r="11.534" transform="translate(434.627 181.9)"/><circle class="b" cx="11.534" cy="11.534" r="11.534" transform="translate(554.162 115.841)"/><circle class="b" cx="11.534" cy="11.534" r="11.534" transform="translate(673.698 0.5)"/></svg>