<svg xmlns="http://www.w3.org/2000/svg" width="51.25" height="49.903" viewBox="0 0 51.25 49.903"><defs><style>.a{fill:#edc106;}</style></defs><path class="a" d="M582.128,118.027q-.242,7.459-3.634,11.958t-8.06,4.5q-3.8,0-6.665-4.4t-2.863-13.546q0-2.021.1-3.85t.241-3.465l1.685-15.832H551.811q-2.887,30.028-4.74,35.731t-6.28,5.7a5.311,5.311,0,0,1-3.561-1.492,5.014,5.014,0,0,1-1.684-3.946q0-2.213,3.489-6.184t3.874-7.243L545.8,93.388h-4.668a8.269,8.269,0,0,0-3.778.939,7.126,7.126,0,0,0-2.719,2.189l-2.069,3.08h-1.684q2.357-7.314,5.8-11a10.556,10.556,0,0,1,7.916-3.681h36.765v8.469H568.942q-.577,5.775-.89,11.549t-.312,11.6a10.442,10.442,0,0,0,1.828,6.4,5.506,5.506,0,0,0,4.572,2.454,6.021,6.021,0,0,0,3.537-1.371,4.973,4.973,0,0,0,2.094-3.585q.145-1.058.216-1.661t.072-.746Z" transform="translate(-530.878 -84.919)"/></svg>