<?xml version="1.0" encoding="utf-8"?>
<!-- Generator: Adobe Illustrator 24.1.0, SVG Export Plug-In . SVG Version: 6.00 Build 0)  -->
<svg version="1.1" id="Layer_1" xmlns="http://www.w3.org/2000/svg" xmlns:xlink="http://www.w3.org/1999/xlink" x="0px" y="0px"
	 viewBox="0 0 1889.66 1345.28" style="enable-background:new 0 0 1889.66 1345.28;" xml:space="preserve">
<style type="text/css">
	.st0{fill:#4D61AA;}
	.st1{fill:#020203;}
	.st2{fill:#777778;}
	.st3{fill:url(#SVGID_1_);}
	.st4{opacity:0.1;fill:#2B2B2B;enable-background:new    ;}
	.st5{fill:#E8EAF7;}
	.st6{filter:url(#Adobe_OpacityMaskFilter);}
	.st7{fill-rule:evenodd;clip-rule:evenodd;fill:#FFFFFF;}
	.st8{mask:url(#f_4_);}
	.st9{fill-rule:evenodd;clip-rule:evenodd;fill:#4E61AA;}
	.st10{opacity:0.245;fill-rule:evenodd;clip-rule:evenodd;fill:#FFFFFF;enable-background:new    ;}
	.st11{opacity:0.104;fill-rule:evenodd;clip-rule:evenodd;fill:#FFFFFF;enable-background:new    ;}
	.st12{opacity:0.75;fill-rule:evenodd;clip-rule:evenodd;fill:#FFFFFF;enable-background:new    ;}
	.st13{opacity:0.25;fill-rule:evenodd;clip-rule:evenodd;fill:#FFFFFF;enable-background:new    ;}
	.st14{filter:url(#Adobe_OpacityMaskFilter_1_);}
	.st15{mask:url(#f_3_);}
	.st16{opacity:0.5;fill-rule:evenodd;clip-rule:evenodd;fill:#252A45;enable-background:new    ;}
	.st17{fill-rule:evenodd;clip-rule:evenodd;fill:#F28D5F;}
	.st18{opacity:0.25;fill-rule:evenodd;clip-rule:evenodd;fill:#252A45;enable-background:new    ;}
	.st19{fill-rule:evenodd;clip-rule:evenodd;fill:#6BC5D6;}
	.st20{fill-rule:evenodd;clip-rule:evenodd;fill:#9B7DB7;}
	.st21{fill-rule:evenodd;clip-rule:evenodd;fill:#EC7979;}
</style>
<path class="st0" d="M1889.66,1344.78H690.3c-269.27,0-487.56-218.29-487.56-487.56v-488.1h1686.92V1344.78z"/>
<g transform="translate(39 9)">
	<g transform="translate(.5 .5)">
		<g>
			<g>
				<path id="c" class="st1" d="M32.83-9.5h1463.2c39.94,0,72.33,32.38,72.33,72.33v926.32c0,39.94-32.38,72.33-72.33,72.33H32.83
					c-39.94,0-72.33-32.38-72.33-72.33V62.83C-39.5,22.88-7.12-9.5,32.83-9.5z"/>
			</g>
			<g>
				<path id="c_1_" class="st2" d="M32.83-9.5h1463.2c39.94,0,72.33,32.38,72.33,72.33v926.32c0,39.94-32.38,72.33-72.33,72.33
					H32.83c-39.94,0-72.33-32.38-72.33-72.33V62.83C-39.5,22.88-7.12-9.5,32.83-9.5z"/>
			</g>
		</g>
		
			<linearGradient id="SVGID_1_" gradientUnits="userSpaceOnUse" x1="657.316" y1="1199.8079" x2="654.6326" y2="1200.9946" gradientTransform="matrix(574.23 0 0 -381.865 -375902.9375 458922.0625)">
			<stop  offset="0" style="stop-color:#151515"/>
			<stop  offset="1" style="stop-color:#3D3E3E"/>
		</linearGradient>
		<path class="st3" d="M35.61-3.94h1458.28c38.41,0,69.54,31.14,69.54,69.54v923.17c0,38.41-31.14,69.54-69.54,69.54H35.61
			c-38.41,0-69.54-31.14-69.54-69.54V65.61C-33.94,27.2-2.8-3.94,35.61-3.94z"/>
		<g transform="translate(21.03 16.303)">
			<path class="st4" d="M103.68,19.55h1283.68c7.68,0,13.91,6.23,13.91,13.91V989.7c0,7.68-6.23,13.91-13.91,13.91H103.68
				c-7.68,0-13.91-6.23-13.91-13.91V33.46C89.77,25.78,96,19.55,103.68,19.55z"/>
			<g>
				<path id="e_1_" class="st5" d="M20.22,27.89h1446.51c12.29,0,22.25,9.96,22.25,22.25v917.98c0,12.29-9.96,22.25-22.25,22.25
					H20.22c-12.29,0-22.25-9.96-22.25-22.25V50.15C-2.03,37.86,7.93,27.89,20.22,27.89z"/>
			</g>
			<defs>
				<filter id="Adobe_OpacityMaskFilter" filterUnits="userSpaceOnUse" x="-11.85" y="28.44" width="1521.62" height="164.12">
					<feColorMatrix  type="matrix" values="1 0 0 0 0  0 1 0 0 0  0 0 1 0 0  0 0 0 1 0"/>
				</filter>
			</defs>
			<mask maskUnits="userSpaceOnUse" x="-11.85" y="28.44" width="1521.62" height="164.12" id="f_4_">
				<g class="st6">
					<path id="e_5_" class="st7" d="M20.22,27.89h1446.51c12.29,0,22.25,9.96,22.25,22.25v917.98c0,12.29-9.96,22.25-22.25,22.25
						H20.22c-12.29,0-22.25-9.96-22.25-22.25V50.15C-2.03,37.86,7.93,27.89,20.22,27.89z"/>
				</g>
			</mask>
			<g class="st8">
				<path class="st9" d="M-11.85,28.44h1521.62v164.12H-11.85L-11.85,28.44z"/>
				<g transform="translate(22.47 17.197)">
					<circle class="st10" cx="82.51" cy="94.7" r="44.51"/>
					<circle class="st11" cx="1364.9" cy="94.7" r="44.51"/>
					<g transform="translate(47 6)">
						<path class="st12" d="M130.09,60.88h317.12c4.61,0,8.35,3.74,8.35,8.35l0,0c0,4.61-3.74,8.35-8.35,8.35H130.09
							c-4.61,0-8.35-3.74-8.35-8.35l0,0C121.75,64.62,125.48,60.88,130.09,60.88z"/>
						<path class="st13" d="M130.09,99.82h161.34c4.61,0,8.35,3.74,8.35,8.35l0,0c0,4.61-3.74,8.35-8.35,8.35H130.09
							c-4.61,0-8.35-3.74-8.35-8.35l0,0C121.75,103.56,125.48,99.82,130.09,99.82z"/>
					</g>
				</g>
			</g>
			<defs>
				<filter id="Adobe_OpacityMaskFilter_1_" filterUnits="userSpaceOnUse" x="156.53" y="286.6" width="1176.68" height="879.03">
					<feColorMatrix  type="matrix" values="1 0 0 0 0  0 1 0 0 0  0 0 1 0 0  0 0 0 1 0"/>
				</filter>
			</defs>
			<mask maskUnits="userSpaceOnUse" x="156.53" y="286.6" width="1176.68" height="879.03" id="f_3_">
				<g class="st14">
					<path id="e_4_" class="st7" d="M20.22,27.89h1446.51c12.29,0,22.25,9.96,22.25,22.25v917.98c0,12.29-9.96,22.25-22.25,22.25
						H20.22c-12.29,0-22.25-9.96-22.25-22.25V50.15C-2.03,37.86,7.93,27.89,20.22,27.89z"/>
				</g>
			</mask>
			<g class="st15">
				<g transform="translate(57 96)">
					<path class="st7" d="M121.78,190.6h681.53c12.29,0,22.25,9.96,22.25,22.25v834.53c0,12.29-9.96,22.25-22.25,22.25H121.78
						c-12.29,0-22.25-9.96-22.25-22.25V212.85C99.53,200.56,109.49,190.6,121.78,190.6z"/>
					<path class="st7" d="M942.4,190.6h311.56c12.29,0,22.25,9.96,22.25,22.25v834.53c0,12.29-9.96,22.25-22.25,22.25H942.4
						c-12.29,0-22.25-9.96-22.25-22.25V212.85C920.15,200.56,930.11,190.6,942.4,190.6z"/>
					<path class="st16" d="M326.16,296.85h317.12c4.61,0,8.35,3.74,8.35,8.35l0,0c0,4.61-3.74,8.35-8.35,8.35H326.16
						c-4.61,0-8.35-3.74-8.35-8.35l0,0C317.81,300.59,321.55,296.85,326.16,296.85z"/>
				</g>
			</g>
		</g>
	</g>
	<g transform="translate(110 135)">
		<circle class="st17" cx="200.11" cy="302.47" r="44.51"/>
		<path class="st18" d="M953.96,230.15h228.1c4.61,0,8.35,3.74,8.35,8.35l0,0c0,4.61-3.74,8.35-8.35,8.35h-228.1
			c-4.61,0-8.35-3.74-8.35-8.35l0,0C945.62,233.88,949.36,230.15,953.96,230.15z"/>
		<path class="st18" d="M953.96,285.78h228.1c4.61,0,8.35,3.74,8.35,8.35l0,0c0,4.61-3.74,8.35-8.35,8.35h-228.1
			c-4.61,0-8.35-3.74-8.35-8.35l0,0C945.62,289.52,949.36,285.78,953.96,285.78z"/>
		<path class="st18" d="M953.96,341.42h228.1c4.61,0,8.35,3.74,8.35,8.35l0,0c0,4.61-3.74,8.35-8.35,8.35h-228.1
			c-4.61,0-8.35-3.74-8.35-8.35l0,0C945.62,345.15,949.36,341.42,953.96,341.42z"/>
		<path class="st18" d="M953.96,397.05h228.1c4.61,0,8.35,3.74,8.35,8.35l0,0c0,4.61-3.74,8.35-8.35,8.35h-228.1
			c-4.61,0-8.35-3.74-8.35-8.35l0,0C945.62,400.79,949.36,397.05,953.96,397.05z"/>
		<path class="st18" d="M953.96,491.63h228.1c4.61,0,8.35,3.74,8.35,8.35l0,0c0,4.61-3.74,8.35-8.35,8.35h-228.1
			c-4.61,0-8.35-3.74-8.35-8.35l0,0C945.62,495.37,949.36,491.63,953.96,491.63z"/>
		<path class="st18" d="M953.96,547.27h228.1c4.61,0,8.35,3.74,8.35,8.35l0,0c0,4.61-3.74,8.35-8.35,8.35h-228.1
			c-4.61,0-8.35-3.74-8.35-8.35l0,0C945.62,551,949.36,547.27,953.96,547.27z"/>
		<path class="st18" d="M953.96,602.9h228.1c4.61,0,8.35,3.74,8.35,8.35l0,0c0,4.61-3.74,8.35-8.35,8.35h-228.1
			c-4.61,0-8.35-3.74-8.35-8.35l0,0C945.62,606.64,949.36,602.9,953.96,602.9z"/>
		<path class="st18" d="M294.69,313.6h161.34c4.61,0,8.35,3.74,8.35,8.35l0,0c0,4.61-3.74,8.35-8.35,8.35H294.69
			c-4.61,0-8.35-3.74-8.35-8.35l0,0C286.34,317.33,290.08,313.6,294.69,313.6z"/>
	</g>
	<g transform="translate(110 201)">
		<circle class="st19" cx="200.11" cy="392.25" r="44.51"/>
		<path class="st16" d="M294.69,364.43h317.12c4.61,0,8.35,3.74,8.35,8.35l0,0c0,4.61-3.74,8.35-8.35,8.35H294.69
			c-4.61,0-8.35-3.74-8.35-8.35l0,0C286.34,368.17,290.08,364.43,294.69,364.43z"/>
		<path class="st18" d="M294.69,403.38h161.34c4.61,0,8.35,3.74,8.35,8.35l0,0c0,4.61-3.74,8.35-8.35,8.35H294.69
			c-4.61,0-8.35-3.74-8.35-8.35l0,0C286.34,407.11,290.08,403.38,294.69,403.38z"/>
	</g>
	<g transform="translate(110 257)">
		<circle class="st20" cx="200.11" cy="492.03" r="44.51"/>
		<path class="st16" d="M294.69,464.21h317.12c4.61,0,8.35,3.74,8.35,8.35l0,0c0,4.61-3.74,8.35-8.35,8.35H294.69
			c-4.61,0-8.35-3.74-8.35-8.35l0,0C286.34,467.95,290.08,464.21,294.69,464.21z"/>
		<path class="st18" d="M294.69,503.15h161.34c4.61,0,8.35,3.74,8.35,8.35l0,0c0,4.61-3.74,8.35-8.35,8.35H294.69
			c-4.61,0-8.35-3.74-8.35-8.35l0,0C286.34,506.89,290.08,503.15,294.69,503.15z"/>
	</g>
	<g transform="translate(110 313)">
		<circle class="st21" cx="200.11" cy="591.81" r="44.51"/>
		<path class="st16" d="M294.69,563.99h317.12c4.61,0,8.35,3.74,8.35,8.35l0,0c0,4.61-3.74,8.35-8.35,8.35H294.69
			c-4.61,0-8.35-3.74-8.35-8.35l0,0C286.34,567.72,290.08,563.99,294.69,563.99z"/>
		<path class="st18" d="M294.69,602.93h161.34c4.61,0,8.35,3.74,8.35,8.35l0,0c0,4.61-3.74,8.35-8.35,8.35H294.69
			c-4.61,0-8.35-3.74-8.35-8.35l0,0C286.34,606.67,290.08,602.93,294.69,602.93z"/>
	</g>
</g>
</svg>
