<?xml version="1.0" encoding="utf-8"?>
<!-- Generator: Adobe Illustrator 24.1.0, SVG Export Plug-In . SVG Version: 6.00 Build 0)  -->
<svg version="1.1" id="Layer_1" xmlns="http://www.w3.org/2000/svg" xmlns:xlink="http://www.w3.org/1999/xlink" x="0px" y="0px"
	 viewBox="0 0 1911.08 1345.28" style="enable-background:new 0 0 1911.08 1345.28;" xml:space="preserve">
<style type="text/css">
	.st0{fill:#4D61AA;}
	.st1{fill:#E8EAF7;}
	.st2{filter:url(#Adobe_OpacityMaskFilter);}
	.st3{fill-rule:evenodd;clip-rule:evenodd;fill:#FFFFFF;}
	.st4{mask:url(#b_2_);}
	.st5{fill-rule:evenodd;clip-rule:evenodd;fill:#252A45;}
	.st6{opacity:0.245;fill-rule:evenodd;clip-rule:evenodd;fill:#FFFFFF;enable-background:new    ;}
	.st7{opacity:0.75;fill-rule:evenodd;clip-rule:evenodd;fill:#FFFFFF;enable-background:new    ;}
	.st8{opacity:0.25;fill-rule:evenodd;clip-rule:evenodd;fill:#FFFFFF;enable-background:new    ;}
	.st9{filter:url(#Adobe_OpacityMaskFilter_1_);}
	.st10{mask:url(#d_2_);fill-rule:evenodd;clip-rule:evenodd;fill:#3B4B9A;}
	.st11{fill-rule:evenodd;clip-rule:evenodd;fill:#31639A;}
	.st12{fill-rule:evenodd;clip-rule:evenodd;fill:#F49D8A;}
	.st13{filter:url(#Adobe_OpacityMaskFilter_2_);}
	.st14{opacity:0.152;mask:url(#f_2_);fill-rule:evenodd;clip-rule:evenodd;fill:#FFFFFF;enable-background:new    ;}
	.st15{opacity:0.149;fill-rule:evenodd;clip-rule:evenodd;fill:#020203;enable-background:new    ;}
	.st16{opacity:0.128;fill-rule:evenodd;clip-rule:evenodd;fill:#020203;enable-background:new    ;}
	.st17{fill-rule:evenodd;clip-rule:evenodd;fill:#163044;}
	.st18{fill-rule:evenodd;clip-rule:evenodd;fill:#F4F2F9;}
	.st19{fill-rule:evenodd;clip-rule:evenodd;fill:#DFDFEA;}
	.st20{fill-rule:evenodd;clip-rule:evenodd;fill:#6596CF;}
	.st21{fill-rule:evenodd;clip-rule:evenodd;fill:#90BCE6;}
	.st22{fill-rule:evenodd;clip-rule:evenodd;fill:#E4DCEE;}
	.st23{fill-rule:evenodd;clip-rule:evenodd;fill:#8F2C44;}
	.st24{fill-rule:evenodd;clip-rule:evenodd;fill:#5DBDAF;}
	.st25{opacity:0.184;fill-rule:evenodd;clip-rule:evenodd;fill:#F4F2F9;enable-background:new    ;}
	.st26{fill-rule:evenodd;clip-rule:evenodd;fill:#FBDEDD;}
	.st27{fill-rule:evenodd;clip-rule:evenodd;fill:#EA526D;}
	.st28{fill-rule:evenodd;clip-rule:evenodd;fill:#45AD9A;}
	.st29{fill-rule:evenodd;clip-rule:evenodd;fill:#261F27;}
	.st30{fill-rule:evenodd;clip-rule:evenodd;fill:#234B7E;}
	.st31{fill-rule:evenodd;clip-rule:evenodd;fill:#8FC4EB;}
	.st32{fill-rule:evenodd;clip-rule:evenodd;fill:#9C2A41;}
	.st33{fill-rule:evenodd;clip-rule:evenodd;fill:#F194A9;}
	.st34{fill-rule:evenodd;clip-rule:evenodd;fill:#52A696;}
	.st35{fill-rule:evenodd;clip-rule:evenodd;fill:#42887B;}
	.st36{fill-rule:evenodd;clip-rule:evenodd;fill:#E78470;}
	.st37{fill-rule:evenodd;clip-rule:evenodd;fill:#CFC3E1;}
	.st38{fill-rule:evenodd;clip-rule:evenodd;fill:#C4B8D7;}
</style>
<path class="st0" d="M1227.19,1342.17H0V273.45h1714.75v581.16C1714.75,1123.89,1496.46,1342.17,1227.19,1342.17z"/>
<g>
	<g>
		<path id="a_1_" class="st1" d="M643.46,0.34h972.74c12.87,0,23.3,10.43,23.3,23.3v961.09c0,12.87-10.43,23.3-23.3,23.3H643.46
			c-12.87,0-23.3-10.43-23.3-23.3V23.64C620.16,10.78,630.59,0.34,643.46,0.34z"/>
	</g>
	<defs>
		<filter id="Adobe_OpacityMaskFilter" filterUnits="userSpaceOnUse" x="609.88" y="0.92" width="1593.09" height="171.83">
			<feColorMatrix  type="matrix" values="1 0 0 0 0  0 1 0 0 0  0 0 1 0 0  0 0 0 1 0"/>
		</filter>
	</defs>
	<mask maskUnits="userSpaceOnUse" x="609.88" y="0.92" width="1593.09" height="171.83" id="b_2_">
		<g class="st2">
			<path id="a_3_" class="st3" d="M643.46,0.34h972.74c12.87,0,23.3,10.43,23.3,23.3v961.09c0,12.87-10.43,23.3-23.3,23.3H643.46
				c-12.87,0-23.3-10.43-23.3-23.3V23.64C620.16,10.78,630.59,0.34,643.46,0.34z"/>
		</g>
	</mask>
	<g class="st4">
		<path class="st5" d="M609.88,0.92h1593.09v171.83H609.88L609.88,0.92z"/>
		<g transform="translate(22.47 14.197)">
			<circle class="st6" cx="709.73" cy="74.09" r="46.6"/>
			<g transform="translate(47 6)">
				<path class="st7" d="M761.75,38.97h332.01c4.83,0,8.74,3.91,8.74,8.74l0,0c0,4.83-3.91,8.74-8.74,8.74H761.75
					c-4.83,0-8.74-3.91-8.74-8.74l0,0C753.02,42.88,756.93,38.97,761.75,38.97z"/>
				<path class="st8" d="M761.75,79.74h168.92c4.83,0,8.74,3.91,8.74,8.74l0,0c0,4.83-3.91,8.74-8.74,8.74H761.75
					c-4.83,0-8.74-3.91-8.74-8.74l0,0C753.02,83.66,756.93,79.74,761.75,79.74z"/>
			</g>
		</g>
	</g>
	<path class="st3" d="M722.09,247.9h643.64c12.87,0,23.3,10.43,23.3,23.3v52.42c0,12.87-10.43,23.3-23.3,23.3H722.09
		c-12.87,0-23.3-10.43-23.3-23.3V271.2C698.8,258.33,709.23,247.9,722.09,247.9z"/>
	<path class="st3" d="M722.09,387.69h643.64c12.87,0,23.3,10.43,23.3,23.3v52.42c0,12.87-10.43,23.3-23.3,23.3H722.09
		c-12.87,0-23.3-10.43-23.3-23.3v-52.42C698.8,398.13,709.23,387.69,722.09,387.69z"/>
	<path class="st3" d="M722.09,527.49h643.64c12.87,0,23.3,10.43,23.3,23.3v52.42c0,12.87-10.43,23.3-23.3,23.3H722.09
		c-12.87,0-23.3-10.43-23.3-23.3v-52.42C698.8,537.92,709.23,527.49,722.09,527.49z"/>
	<path class="st3" d="M722.09,667.29h643.64c12.87,0,23.3,10.43,23.3,23.3v52.42c0,12.87-10.43,23.3-23.3,23.3H722.09
		c-12.87,0-23.3-10.43-23.3-23.3v-52.42C698.8,677.72,709.23,667.29,722.09,667.29z"/>
	<path class="st3" d="M722.09,807.08h643.64c12.87,0,23.3,10.43,23.3,23.3v52.42c0,12.87-10.43,23.3-23.3,23.3H722.09
		c-12.87,0-23.3-10.43-23.3-23.3v-52.42C698.8,817.51,709.23,807.08,722.09,807.08z"/>
	<g transform="matrix(-1 0 0 1 440 83)">
		<defs>
			<filter id="Adobe_OpacityMaskFilter_1_" filterUnits="userSpaceOnUse">
				<feColorMatrix  type="matrix" values="1 0 0 0 0  0 1 0 0 0  0 0 1 0 0  0 0 0 1 0"/>
			</filter>
		</defs>
		<mask maskUnits="userSpaceOnUse" id="d_2_">
			<g class="st9">
				<path id="c_2_" class="st3" d="M-1461.62,159.21h1018.7v861.93h-1018.7V159.21z"/>
			</g>
		</mask>
		<path class="st10" d="M-446.04,888.17c-1.95,5.88-4.99,11.64-9.24,17.29c-73.4,97.49-347.67,129.99-618.08,110.13
			c-141.18-10.37-240.77-71.43-303.71-127.42c-13.65-12.13-26.64-24.99-38.91-38.51c-13.6-14.98-24.21-31.63-31.77-49.21
			c-22.27-51.78-17.98-111.59,14.92-160.65c27.89-41.58,66.18-72.3,85.95-106.43c37.66-65-161.45-229.31-31.88-333.12
			c45.74-36.65,143.17-45.11,249.48-39.42c129.39,6.93,271.92,34.82,350.32,58.38C-616.71,267.95-515.16,338.56-491.98,418
			c23.18,79.44-38.77,115.38-92.85,191.21C-635.78,680.64-414.3,792.68-446.04,888.17"/>
		<path class="st11" d="M-720.27,423.73l-49.47-8.36l-7.47,46.01l61.16,18.06L-720.27,423.73z"/>
		<path class="st12" d="M-771.38,418.62c0,0-38.37-1.01-78.63-17.82l18.92,35.69l54.62,16.73L-771.38,418.62z"/>
		<g transform="translate(2 2)">
			<defs>
				<filter id="Adobe_OpacityMaskFilter_2_" filterUnits="userSpaceOnUse">
					<feColorMatrix  type="matrix" values="1 0 0 0 0  0 1 0 0 0  0 0 1 0 0  0 0 0 1 0"/>
				</filter>
			</defs>
			<mask maskUnits="userSpaceOnUse" id="f_2_">
				<g class="st13">
					<path id="e_2_" class="st3" d="M-1457.79,163.04h459.65v640.27h-459.65V163.04z"/>
				</g>
			</mask>
			<path class="st14" d="M-1000.35,314.89c-23.63,116.96-425.23,296.16-444.54,488.43c-20.73-51.7-16.74-111.42,13.89-160.41
				c25.96-41.52,61.6-72.19,80.01-106.27c35.06-64.89-150.29-228.97-29.68-332.62c42.58-36.59,133.27-45.04,232.24-39.36
				C-1118.31,171.54-979.04,209.3-1000.35,314.89"/>
		</g>
		<path class="st15" d="M-436.98,866.79c2.87,22.91-6.82,38.84-10.6,44.35c-65.32,95.15-420.82,126.87-661.49,107.49
			c-125.66-10.12-228.64-74.89-291.39-146.26L-436.98,866.79z"/>
		<path class="st16" d="M-1247.19,877.89c0,0-29.35,1.78-28.9,10.66c0.45,8.88,18.96,28.42,18.96,28.42l-27.69-9.92l-83.61-3.18
			l9.03,7.77c0,0,67.36,3.11,70.36,5.48c3.01,2.37,41.54,31.38,48.16,32.57c6.62,1.19,427.21,0.66,427.21,0.66
			s43.27,1.72,50.5-11.61c7.22-13.32,33.41-12.44,40.64-0.89c7.22,11.55,6.22,54.18,6.22,54.18s19.78-5.16,20.87-5.62
			c68.63-29.02,145.39-119.61,145.39-119.61L-1247.19,877.89z"/>
		<path class="st17" d="M-1336.38,763.97l42.08,143.18c0,0,5.99,7.12,10.34,0.52l-28.29-145.73L-1336.38,763.97z M-1394.24,759.03
			l-20.78,96.51l9.89,11.25l27.97-104.98L-1394.24,759.03z"/>
		<path class="st18" d="M-775.77,791.31l17.55,99.6l2.91,16.51l-6.38,0.94l-0.45,0.07l-13.94,2.05c0,0-46.51-114.59-50.47-142.09
			c-3.96-27.5,73.23-137.5,73.23-137.5l83.78,7.13c2.22,23.94-31.29,69.06-61.24,104.18C-754.38,769.86-775.77,791.31-775.77,791.31
			"/>
		<path class="st19" d="M-774.64,786.8l20.03,115.82l-6.25,0.93l-0.21,1.1l-0.23-1.03c-2.55-11.15-32.44-109.91-33.35-130.03
			c-0.97-21.34,40.85-87.37,40.85-87.37l23.2,51.59C-753.7,765.4-774.64,786.8-774.64,786.8"/>
		<path class="st20" d="M-663.62,642.53l-83.49-6.95l-3.88-139c0,0,20.39-72.48,42.72-72.48c13.26,0,26.17,5.25,34.08,18.04
			c5.4,8.75,8.45,21.03,7.67,37.56c-1.78,37.21,2.13,142.44,2.82,160.25C-663.66,641.63-663.62,642.53-663.62,642.53"/>
		<path class="st21" d="M-686.58,631.69l1.57-165.48l-19.38-39.38l22.61-2.73l7.95,9.35c5.21,8.75,8.16,21.03,7.4,37.55
			c-1.72,37.2,2.15,144.99,2.81,162.79L-686.58,631.69z"/>
		<path class="st11" d="M-686.92,470.7l-61.21,116.5l-1.59-52.4l-1.27-42.52l51.04-21.58H-686.92z"/>
		<path class="st3" d="M-843.23,945.42h-374.71c-13.95,0-25.25-11.38-25.25-25.43V277.7c0-14.04,11.31-25.43,25.25-25.43h374.71
			c13.95,0,25.25,11.38,25.25,25.43V920C-817.97,934.04-829.28,945.42-843.23,945.42"/>
		<path class="st22" d="M-841.28,343.4v257.51c0,5.29-4.24,9.58-9.47,9.58h-359.66c-5.23,0-9.47-4.29-9.47-9.58V343.4
			c0-5.29,4.24-9.58,9.47-9.58h359.66C-845.52,333.82-841.28,338.11-841.28,343.4"/>
		<path class="st23" d="M-1028.1,403.72l-4.52,3.45l-9.61,41.85l0.21,6.89l15.22,0.23c1.03,0.01,2.08-0.19,3-0.73
			c4.35-2.56,6.21-9.68,3.81-16c-1.29-3.4-4.6-9.41-4.99-12.06C-1025.9,420.99-1028.1,403.72-1028.1,403.72"/>
		<path class="st24" d="M-949.04,619.23l-157.92-0.61l-5.23-0.02c0,0-18.89-89.26,11.7-123.66c7.45-8.37,17.13-14.54,27.69-18.55
			c32.83-12.51,74.13-4.24,82.98,23.2C-978.12,535.86-949.04,619.23-949.04,619.23"/>
		<path class="st12" d="M-1071.82,477.95c0,0,6.45,17.55,20.69,21.24c14.24,3.7,30.55-9.39,29.21-24.63c0,0-13.64-2-15.86-8.62
			c-2.7-8.04-0.89-8.31-0.89-8.31s5.34-10.16,7.12-17.55c1.78-7.39-0.89-36.03-13.34-38.79c-7.88-1.75-20.47,0.92-29.36,13.85
			c0,0,4.45,24.94,10.68,36.95C-1057.36,464.1-1054.25,469.64-1071.82,477.95"/>
		<path class="st25" d="M-850.5,255.22l-386.86,542.37v123.03c0,13.7,10.78,24.8,24.07,24.8h349.97c15.4,0,27.88-12.87,27.88-28.74
			V266.33C-835.45,257.8-842.24,254.81-850.5,255.22"/>
		<path class="st24" d="M-966.51,565.19l20.33-88.66l32.09,5.29L-945.2,610.5L-966.51,565.19z"/>
		<path class="st12" d="M-939.72,474.01l1.75-9.05c0,0-5.24-3.45-4.37-8.62c0.87-5.17-0.87-17.23-0.87-17.23s2.79-1.88,4.59,1.51
			c1.28,2.41,3.28,7.97,3.28,7.97s6.69-17.96,8.23-22.69c0.66-2.01,1.32-5.15,2.84-4.67c0.8,0.25,0.51,2.08,0.37,3.87
			c-0.41,5.37-2.7,13.93-2.7,13.93l1.16,0.68l4.84-15.37c0.21-0.75,0.56-1.88,1.35-1.94c0.69-0.06,1.38,0.32,1.38,2.04
			c0,3.45-3.71,17.7-3.71,17.7l0.93,0.64l5.64-12.46c0.39-0.94,1.79-0.86,2.02,0.13c0.19,0.78,0.13,1.89-0.5,3.47
			c-1.75,4.31-3.49,11.2-3.49,11.2l0.44,0.5l3.06-6.32c0.55-1.01,1.89-1.66,2.28-0.58c0.55,1.51-4.25,14.47-4.25,15.34
			c0,0.86-3.28,12.6-6.77,13.46s-3.71,8.98-3.71,8.98L-939.72,474.01L-939.72,474.01z"/>
		<path class="st26" d="M-1142.28,686.22h-64.94c-3.78,0-6.85-3.12-6.85-6.97v-9.35c0-3.85,3.07-6.97,6.85-6.97h64.94
			c3.78,0,6.85,3.12,6.85,6.97v9.35C-1135.43,683.1-1138.5,686.22-1142.28,686.22 M-1049.08,686.22h-64.94
			c-3.78,0-6.85-3.12-6.85-6.97v-9.35c0-3.85,3.07-6.97,6.85-6.97h64.94c3.78,0,6.85,3.12,6.85,6.97v9.35
			C-1042.23,683.1-1045.3,686.22-1049.08,686.22 M-950.06,686.22H-1015c-3.78,0-6.85-3.12-6.85-6.97v-9.35
			c0-3.85,3.07-6.97,6.85-6.97h64.94c3.78,0,6.85,3.12,6.85,6.97v9.35C-943.21,683.1-946.28,686.22-950.06,686.22 M-856.87,686.22
			h-64.94c-3.78,0-6.85-3.12-6.85-6.97v-9.35c0-3.85,3.07-6.97,6.85-6.97h64.94c3.78,0,6.85,3.12,6.85,6.97v9.35
			C-850.02,683.1-853.08,686.22-856.87,686.22"/>
		<path class="st18" d="M-863.26,741.56h-343.39c-4.1,0-7.42-3.15-7.42-7.02v-9.26c0-3.87,3.32-7.02,7.42-7.02h343.39
			c4.1,0,7.42,3.15,7.42,7.02v9.26C-855.84,738.41-859.16,741.56-863.26,741.56 M-1206.65,788.15c-4.1,0-7.42-3.15-7.42-7.02v-9.26
			c0-3.87,3.32-7.02,7.42-7.02h343.39c4.1,0,7.42,3.15,7.42,7.02v9.26c0,3.87-3.32,7.02-7.42,7.02H-1206.65z M-863.26,834.75
			h-343.39c-4.1,0-7.42-3.15-7.42-7.02v-9.26c0-3.87,3.32-7.02,7.42-7.02h343.39c4.1,0,7.42,3.15,7.42,7.02v9.26
			C-855.84,831.61-859.16,834.75-863.26,834.75 M-863.26,872.61h-343.39c-4.1,0-7.42-3.15-7.42-7.02v-9.26
			c0-3.87,3.32-7.02,7.42-7.02h343.39c4.1,0,7.42,3.15,7.42,7.02v9.26C-855.84,869.47-859.16,872.61-863.26,872.61"/>
		<path class="st27" d="M-1080.74,393c0,0,18.35-25.77,52.98-10.85c34.62,14.92-2.96,39.33-2.96,39.33s-0.74-9.49-6.22-12.21
			l0.45,8.44l-19.39,3.39l-3.11-8.14l-2,9.27l-9.77,3.61c0,0,7.99,28.03,12.65,32.1c0,0,2,6.55,1.33,7.91
			c-0.66,1.36-30.18,8.82-33.96,2.04c-3.77-6.78,4-16.27,6.44-22.6C-1081.85,438.96-1088.73,405.36-1080.74,393"/>
		<path class="st22" d="M-1165.58,322.17h-50.37c-3.78,0-6.85-3.91-6.85-8.74s3.07-8.74,6.85-8.74h50.37c3.78,0,6.85,3.91,6.85,8.74
			S-1161.8,322.17-1165.58,322.17"/>
		<path class="st28" d="M-1088.83,531.86c0,0,7.76,56.17,16.63,78.63h46.77c0,0,7.71-23.7-29.26-31.45
			C-1080.41,573.65-1088.83,531.86-1088.83,531.86 M-996.77,517.3c0,0,9.49,29.12,7.71,37.86c-1.78,8.74-9.49,15.14-9.49,20.97
			c0,5.82,4.75,27.96,4.75,27.96l27.29,0.58c0,0-4.53-0.77-14.83-8.88c-15.72-12.38-2.23-39.68-5.56-55.19
			C-988.65,532.46-996.77,517.3-996.77,517.3 M-966.51,563.23c0,0,0.62,24.41,5.58,20.66c4.96-3.76,1.86-40.07,6.19-52.59
			c4.34-12.52,17.35-52.59,17.35-52.59l-11.15-2.19L-966.51,563.23z"/>
		<path class="st12" d="M-892.6,451.7c0,0,4.59,2.02,10.19,8.87c1.85,2.27,11.74,5.89,14.08,8.7
			c33.91,40.83,79.21,72.35,108.23,59.8c37.07-16.02,44.06-30.92,44.06-30.92l-24.5-33.09c0,0-28.14,42.98-50.77,31.28
			c-22.64-11.71-67.25-42.4-67.25-42.4l-1.18-18.83c0,0-2.61-0.7-3.86,2.9c-1.25,3.6-1.31,6.71-1.31,6.71l-17.62-20.46
			c0,0-3.38-1.05-2.35,2.24c1.03,3.29,7.25,12.72,7.25,12.72s0.64,1.79-0.71,0.98c-1.57-0.95-13.88-14.83-13.88-14.83
			s-2.83-0.19-1.68,2.52c0.89,2.09,8.34,11.91,10.86,15.59c0.75,1.1-0.82,0.68-0.82,0.68l-10.18-8.65c-1.38-0.93-2.8-0.62-2.53,1.07
			c0.22,1.34,2.99,4.42,4.64,5.65c4.12,3.05,6.99,8.6,6.99,8.6l-8.87-3.2C-893.82,447.63-895.55,449.17-892.6,451.7 M-684.01,343.98
			l-11.21,82.48l-36.83,6.38c0,0,1.86-1.95,4-4.54c2.18-2.64,4.63-5.97,5.72-8.64c2.48-6.13,2.49-11.84,2.49-11.84
			s-16.33,1.84-18.86-7.56c-2.54-9.41,3.33-53.25,3.33-53.25S-728.09,319.46-684.01,343.98"/>
		<path class="st29" d="M-714.92,344.92c0,0-18.16,13.72-35.59,2.03c0,0,11.04-1.02,14.48-6.61c0,0-6.87,1.78-14.97-9.65
			c0,0,14.23,2.03,19.14-2.29c4.91-4.32,29.94-11.18,44.91-0.76c14.97,10.41,14.73,18.04,14.73,18.04s8.83,3.3,8.59,8.38
			c-0.25,5.08-21.84,46.74-21.84,46.74l-4.66-18.54c0,0,3.68,1.1,5.89-7.53c2.21-8.64-7.36-4.91-8.34-3.13
			c-0.98,1.78-7.36-12.19-7.36-12.19l0.98-8.13C-698.96,351.27-695.77,340.86-714.92,344.92"/>
		<path class="st3" d="M-680.47,731.02c-10.46,42.19,8.88,210.88,8.88,210.88l-18.92,3.52c-76.19-174.79-58.76-317.45-58.76-317.45
			l85.65,7.03c0,0-0.22-3.56-0.31-2.72C-664.91,641.04-670.94,692.54-680.47,731.02"/>
		<path class="st20" d="M-775.08,899.05l-22,17.06c0,0-8.66-1.05-10.33,2.96c-1.67,4-1.83,8.53-1.83,8.53l23,0.35l38.16-15.15
			l-6-16.89L-775.08,899.05z M-688.23,949.33c0,0-7.78,12.59-15.63,22.87c-2.64,3.45-9.08,4.95-11.59,13.38
			c-2.16,7.25,2.16,12.27,2.16,12.27s14.46-2.6,24.52-11.52c10.06-8.92,25.15-26.03,25.15-26.03l-4.13-14.87L-688.23,949.33
			L-688.23,949.33z"/>
		<path class="st30" d="M-1269.4,738.64c0,11.26-37.81,20.39-84.46,20.39s-84.46-9.13-84.46-20.39s37.81-20.39,84.46-20.39
			S-1269.4,727.38-1269.4,738.64"/>
		<path class="st20" d="M-1269.4,735.73c0,11.26-37.81,20.39-84.46,20.39s-84.46-9.13-84.46-20.39s37.81-20.39,84.46-20.39
			S-1269.4,724.47-1269.4,735.73"/>
		<path class="st17" d="M-1330.56,724.08c0,4.83-15.65,8.74-34.95,8.74c-19.3,0-34.95-3.91-34.95-8.74s15.65-8.74,34.95-8.74
			C-1346.21,715.34-1330.56,719.26-1330.56,724.08 M-1438.32,732.82v11.61c0,0,0.2,7.18,14.56,11.69l-3.43-12.58
			C-1427.19,743.54-1437.28,739.19-1438.32,732.82"/>
		<path class="st31" d="M-1269.42,732.82v11.9c0,0,1.14,5.95-14.54,11.4l4.81-13.88C-1279.15,742.24-1270.82,738.52-1269.42,732.82"
			/>
		<path class="st27" d="M-1324.74,695.07l-5.73,22.4c-1.42,5.57-7.06,9.53-13.55,9.53h-12.33c-4.62,0-8.81-1.99-11.36-5.16
			c-0.89-1.11-1.58-2.37-2.02-3.72l-4.97-15.47l-2.47-7.68L-1324.74,695.07z"/>
		<path class="st32" d="M-1324.74,692.04c0,1.61-11.74,2.91-26.21,2.91c-14.47,0-26.21-1.3-26.21-2.91c0-1.61,11.74-2.91,26.21-2.91
			C-1336.47,689.13-1324.74,690.44-1324.74,692.04"/>
		<path class="st33" d="M-1360.87,723.08c1.03,0.4,2,0.74,2.91,1l-6.15-0.94c-0.86-1.19-1.51-2.52-1.91-3.93l-4.71-16.33
			c-0.24-0.79-0.61-2.04-0.61-2.09c0,0,12.28,3.62,23.3,2.38c-3.59,0.48-12.55,1.2-17.96,0.93c-1.16-0.07-2.16,0.81-2.24,1.97
			c-0.01,0.13,0,0.27,0.01,0.4C-1367.54,711.3-1365.59,721.25-1360.87,723.08"/>
		<path class="st34" d="M-1348.03,685.93l-1.98,8.99l-1.44,0.03c0,0-0.08-9.03-10.7-14.56c-10.63-5.53-9.11-26.21-9.11-26.21
			l0.01,0.03c0.26,0.53,4.33,9.03,7.42,9.58c3.19,0.59,5.16,5.68,5.16,5.68s1.52,2.18,3.34,1.75c1.82-0.44,3.64,4.37,3.64,4.37
			l0.6,5.1C-1351.08,680.69-1348.03,685.93-1348.03,685.93z"/>
		<path class="st24" d="M-1362.58,703.66c0,0-2.04-68.26,33.78-87.33c0,0,10.2,3.94-1.75,20.29c-11.94,16.35-2.33,28.16-7.57,32.41
			c-5.24,4.24-12.81,6.96-11.65,12.42s-0.29,10.9-2.62,11.51c-2.33,0.6-7.57,3.82-8.39,10.75L-1362.58,703.66L-1362.58,703.66z"/>
		<path class="st35" d="M-1362.6,691.46l-0.12,3.46l-1.57,0.03c0,0-0.09-9.03-11.63-14.56c-11.56-5.53-9.9-26.21-9.9-26.21
			l0.01,0.03l0.98,3.11c0,18.78,10.84,22.68,15.18,25.19C-1365.31,685.01-1362.6,691.46-1362.6,691.46"/>
		<path class="st11" d="M-722.41,433.15c0,0,30.73,0.5,33.48-3.22l2.01,5.53c0,0-24.35,13.27-40.77,7.64L-722.41,433.15z"/>
		<path class="st31" d="M-765.55,473.37l36.66,41.02c0,0,48.99-43.92,47.78-57.69c-1.21-13.77-19.16-42.27-46.7-16.09
			C-754.6,466.09-765.55,473.37-765.55,473.37"/>
		<path class="st18" d="M-671.09,944.42l-7.47,1.01c0,0-35.02-123.69-23.5-215.07c3.46-27.48,15.56-96.55,15.56-96.55l22.88,2.15
			c-0.93,8.8-6.86,57.83-15.8,96.51C-689.23,774.86-671.09,944.42-671.09,944.42"/>
		<path class="st36" d="M-710.95,428.64c-4.33,0.94-6.7,1.24-8,1.29c2.03-2.81,4.32-6.35,5.34-9.2c2.31-6.53,2.33-12.61,2.33-12.61
			s8.65-2.28,9.54-1.2C-700.86,407.99-701.75,426.63-710.95,428.64"/>
		<path class="st37" d="M-1135.43,438.67c0,30.56-23.44,55.34-52.34,55.34c-12.1,0-23.24-4.34-32.12-11.64v-87.4
			c8.87-7.3,20.01-11.64,32.12-11.64C-1158.87,383.33-1135.43,408.11-1135.43,438.67"/>
		<path class="st38" d="M-1135.43,440.12c0,29.75-21.82,53.88-48.74,53.88c-11.27,0-21.64-4.23-29.9-11.33v-85.1
			c8.26-7.1,18.63-11.33,29.9-11.33C-1157.25,386.24-1135.43,410.37-1135.43,440.12"/>
		<path class="st28" d="M-1059.71,488.46c0,0-5.78-3.22-6.69-3.8c-0.91-0.58-12.79,2.63-28.62,18.98
			c-15.82,16.35-2.13,30.07-8.82,38.82c-6.7,8.76-0.31,27.15,3.04,39.71c3.35,12.55,0,28.31,0,28.31l-0.17,0.02l-5.3-0.02
			c0,0-19.18-84.08,11.87-116.48c7.56-7.88,17.39-13.7,28.1-17.47L-1059.71,488.46L-1059.71,488.46z"/>
	</g>
</g>
</svg>
