<svg xmlns="http://www.w3.org/2000/svg" xmlns:xlink="http://www.w3.org/1999/xlink" width="38.855" height="38.855" viewBox="0 0 38.855 38.855"><defs><style>.a,.c{fill:none;}.b{fill:#fff;}.c{stroke:#fff;opacity:0.669;}.d{clip-path:url(#a);}.e{fill:#67859e;}.f{stroke:none;}</style><clipPath id="a"><rect class="a" width="10.467" height="9.159"/></clipPath></defs><g transform="translate(0 38.855) rotate(-90)"><circle class="b" cx="17.207" cy="17.207" r="17.207" transform="translate(2.22 2.22)"/><g class="c" transform="translate(0 0)"><circle class="f" cx="19.428" cy="19.428" r="19.428"/><circle class="a" cx="19.428" cy="19.428" r="18.928"/></g><g class="d" transform="translate(14.234 14.848)"><path class="e" d="M.654,5.234H8.416L6.04,8.086a.654.654,0,1,0,1.006.837L10.316,5a.612.612,0,0,0,.057-.1.62.62,0,0,0,.046-.081.645.645,0,0,0,.047-.234s0,0,0,0v0a.645.645,0,0,0-.047-.234.62.62,0,0,0-.046-.081.612.612,0,0,0-.057-.1L7.045.236a.654.654,0,1,0-1.006.837L8.416,3.925H.654a.654.654,0,1,0,0,1.308" transform="translate(0 0)"/></g></g></svg>