<svg xmlns="http://www.w3.org/2000/svg" xmlns:xlink="http://www.w3.org/1999/xlink" width="1920" height="1280" viewBox="0 0 1920 1280"><defs><style>.a{fill:none;}.b{fill:#1d084b;}.c{fill:#161743;}.d{fill:url(#a);}.e{fill:url(#b);}.f{fill:#004887;}.aa,.ab,.ac,.bd,.bj,.bk,.bl,.bm,.f,.h,.q,.r{opacity:0.24;}.g{clip-path:url(#c);}.h{fill:url(#d);}.i,.j{opacity:0.08;}.i{fill:url(#e);}.j{fill:url(#f);}.k{fill:url(#g);}.l{fill:url(#h);}.m{fill:url(#i);}.n{opacity:0.06;fill:url(#j);}.o{fill:url(#k);}.aq,.bf,.p{opacity:0.32;}.p{fill:url(#l);}.q{fill:url(#m);}.r{fill:url(#n);}.az,.bg,.s{opacity:0.12;}.s{fill:url(#o);}.t{opacity:0.25;}.bh,.t{fill:url(#p);}.u{fill:url(#q);}.v{opacity:0.18;}.v,.w{fill:url(#r);}.x{fill:url(#t);}.az,.y{fill:#b7bed0;}.z{opacity:0.31;fill:url(#u);}.aa{fill:url(#v);}.ab{fill:url(#x);}.ac{fill:url(#y);}.ad{fill:url(#z);}.ae{fill:url(#aa);}.af{fill:url(#ab);}.ag{fill:url(#ac);}.ah{fill:#fff87b;}.ai{fill:url(#ad);}.aj{fill:url(#ae);}.ak{fill:url(#af);}.al,.am,.an,.ar,.as{opacity:0.56;}.al{fill:url(#ag);}.am{fill:url(#ai);}.an{fill:url(#aj);}.ao{fill:url(#am);}.ap{fill:url(#an);}.aq{fill:url(#aq);}.ar{fill:url(#ar);}.as{fill:url(#as);}.at{fill:url(#au);}.au{fill:url(#aw);}.av{fill:url(#ay);}.aw{fill:url(#ba);}.ax{fill:url(#bc);}.ay{fill:url(#be);}.ba{fill:url(#bg);}.bb{opacity:0.22;fill:url(#bi);}.bc{fill:url(#bj);}.bd{fill:url(#bl);}.be{fill:url(#bn);}.bf{fill:url(#bo);}.bg{fill:url(#br);}.bi{fill:url(#bw);}.bj{fill:url(#by);}.bk{fill:url(#cb);}.bl{fill:url(#cd);}.bm{fill:url(#cf);}.bn{fill:url(#cg);}.bo{fill:url(#ci);}.bp{fill:url(#ck);}.bq{fill:url(#cl);}.br{fill:url(#cm);}.bs{fill:url(#cn);}.bt{fill:url(#co);}.bu{fill:url(#cq);}.bv{fill:#321c7f;opacity:0.69;}</style><linearGradient id="a" x1="0.414" y1="-1.021" x2="1.374" y2="-1.021" gradientUnits="objectBoundingBox"><stop offset="0" stop-color="#300d5d"/><stop offset="1" stop-color="#2d0d53" stop-opacity="0"/></linearGradient><linearGradient id="b" x1="-0.005" y1="0.505" x2="1.014" y2="0.505" gradientUnits="objectBoundingBox"><stop offset="0.106" stop-color="#2add90"/><stop offset="0.99" stop-color="#22007f" stop-opacity="0"/></linearGradient><clipPath id="c"><rect class="a" width="1920" height="1280"/></clipPath><linearGradient id="d" x1="-1.176" y1="1.837" x2="-0.199" y2="1.837" xlink:href="#a"/><linearGradient id="e" y1="0.5" x2="1" y2="0.5" gradientUnits="objectBoundingBox"><stop offset="0.002" stop-color="#486bed"/><stop offset="0.077" stop-color="#4358d1"/><stop offset="0.218" stop-color="#3b3aa1"/><stop offset="0.342" stop-color="#35237f"/><stop offset="0.445" stop-color="#32156a"/><stop offset="0.512" stop-color="#311163"/><stop offset="0.596" stop-color="#301062" stop-opacity="0.941"/><stop offset="0.705" stop-color="#30105f" stop-opacity="0.78"/><stop offset="0.827" stop-color="#2f0f5b" stop-opacity="0.51"/><stop offset="0.958" stop-color="#2d0d55" stop-opacity="0.137"/><stop offset="1" stop-color="#2d0d53" stop-opacity="0"/></linearGradient><linearGradient id="f" x1="-2.22" y1="0.896" x2="-1.244" y2="0.896" xlink:href="#e"/><linearGradient id="g" x1="-0.074" y1="-0.474" x2="0.828" y2="-0.474" xlink:href="#a"/><linearGradient id="h" x1="-0.091" y1="-0.708" x2="0.804" y2="-0.708" gradientUnits="objectBoundingBox"><stop offset="0" stop-color="#00bfa7"/><stop offset="0.075" stop-color="#00aaa1"/><stop offset="0.228" stop-color="#007493"/><stop offset="0.344" stop-color="#004887"/><stop offset="0.631" stop-color="#420c60" stop-opacity="0.769"/><stop offset="1" stop-color="#2d0d53" stop-opacity="0"/></linearGradient><linearGradient id="i" x1="0.334" y1="-0.39" x2="1.232" y2="-0.39" xlink:href="#h"/><linearGradient id="j" x1="0.153" y1="0.063" x2="1.066" y2="1.213" xlink:href="#e"/><linearGradient id="k" x1="0.153" y1="0.063" x2="1.066" y2="1.213" xlink:href="#e"/><linearGradient id="l" x1="3.976" y1="-6.798" x2="4.976" y2="-6.798" gradientUnits="objectBoundingBox"><stop offset="0" stop-color="#45ecdb"/><stop offset="0.111" stop-color="#44b8be" stop-opacity="0.976"/><stop offset="0.256" stop-color="#437b9d" stop-opacity="0.949"/><stop offset="0.388" stop-color="#424b82" stop-opacity="0.929"/><stop offset="0.504" stop-color="#42286f" stop-opacity="0.914"/><stop offset="0.599" stop-color="#421364" stop-opacity="0.902"/><stop offset="0.661" stop-color="#420c60" stop-opacity="0.902"/><stop offset="0.782" stop-color="#410c5f" stop-opacity="0.875"/><stop offset="0.845" stop-color="#3f0c5e" stop-opacity="0.796"/><stop offset="0.895" stop-color="#3c0c5c" stop-opacity="0.655"/><stop offset="0.938" stop-color="#370c59" stop-opacity="0.455"/><stop offset="0.977" stop-color="#310c55" stop-opacity="0.2"/><stop offset="1" stop-color="#2d0d53" stop-opacity="0"/></linearGradient><linearGradient id="m" x1="0.06" y1="-0.021" x2="1.026" y2="1.122" xlink:href="#a"/><linearGradient id="n" x1="0.06" y1="-0.021" x2="1.026" y2="1.122" xlink:href="#a"/><linearGradient id="o" x1="0.153" y1="0.063" x2="1.066" y2="1.213" gradientUnits="objectBoundingBox"><stop offset="0.002" stop-color="#fff"/><stop offset="0.046" stop-color="#ded9e4" stop-opacity="0.843"/><stop offset="0.102" stop-color="#b9aec6" stop-opacity="0.671"/><stop offset="0.163" stop-color="#9788aa" stop-opacity="0.51"/><stop offset="0.23" stop-color="#7a6692" stop-opacity="0.373"/><stop offset="0.301" stop-color="#624a7e" stop-opacity="0.255"/><stop offset="0.38" stop-color="#4e336e" stop-opacity="0.161"/><stop offset="0.469" stop-color="#3f2262" stop-opacity="0.09"/><stop offset="0.574" stop-color="#341659" stop-opacity="0.039"/><stop offset="0.712" stop-color="#2e0f54" stop-opacity="0.008"/><stop offset="1" stop-color="#2d0d53" stop-opacity="0"/></linearGradient><linearGradient id="p" x1="-0.038" y1="0.098" x2="1.129" y2="0.969" gradientUnits="objectBoundingBox"><stop offset="0.002" stop-color="#cb1b5e"/><stop offset="0.579" stop-color="#300d5d"/><stop offset="1" stop-color="#2d0d53" stop-opacity="0"/></linearGradient><linearGradient id="q" x1="-0.038" y1="0.098" x2="1.129" y2="0.969" gradientUnits="objectBoundingBox"><stop offset="0" stop-color="#fc57c6"/><stop offset="0.19" stop-color="#dc43bf" stop-opacity="0.776"/><stop offset="0.486" stop-color="#ad26b7" stop-opacity="0.447"/><stop offset="0.729" stop-color="#8b11b0" stop-opacity="0.204"/><stop offset="0.907" stop-color="#7604ac" stop-opacity="0.055"/><stop offset="1" stop-color="#6f00ab" stop-opacity="0"/></linearGradient><linearGradient id="r" x1="0.052" y1="0.1" x2="1.266" y2="1.185" gradientUnits="objectBoundingBox"><stop offset="0" stop-color="#ff543c"/><stop offset="0.081" stop-color="#ff4b3f"/><stop offset="0.212" stop-color="#ff3349"/><stop offset="0.375" stop-color="#ff0c58"/><stop offset="0.423" stop-color="#ff005e"/><stop offset="0.572" stop-color="#b0055e" stop-opacity="0.749"/><stop offset="0.729" stop-color="#610a5f" stop-opacity="0.498"/><stop offset="0.8" stop-color="#420c60" stop-opacity="0.4"/><stop offset="1" stop-color="#2d0d53" stop-opacity="0"/></linearGradient><linearGradient id="t" x1="-0.069" y1="-4.794" x2="0.825" y2="-4.794" xlink:href="#a"/><linearGradient id="u" y1="0.5" x2="1" y2="0.5" gradientUnits="objectBoundingBox"><stop offset="0" stop-color="#b7bed0"/><stop offset="0.13" stop-color="#9896b4" stop-opacity="0.776"/><stop offset="0.286" stop-color="#776c96" stop-opacity="0.541"/><stop offset="0.441" stop-color="#5c4a7e" stop-opacity="0.345"/><stop offset="0.592" stop-color="#472f6b" stop-opacity="0.196"/><stop offset="0.738" stop-color="#391c5d" stop-opacity="0.086"/><stop offset="0.877" stop-color="#301055" stop-opacity="0.024"/><stop offset="1" stop-color="#2d0d53" stop-opacity="0"/></linearGradient><linearGradient id="v" x1="0.06" y1="-0.021" x2="1.026" y2="1.122" xlink:href="#a"/><linearGradient id="x" x1="0.06" y1="-0.021" x2="1.026" y2="1.123" xlink:href="#a"/><linearGradient id="y" x1="0.06" y1="-0.021" x2="1.026" y2="1.123" xlink:href="#a"/><linearGradient id="z" x1="-0.112" y1="-0.011" x2="1.554" y2="1.38" xlink:href="#e"/><linearGradient id="aa" x1="0.153" y1="0.063" x2="1.066" y2="1.213" xlink:href="#p"/><linearGradient id="ab" x1="0.153" y1="0.063" x2="1.066" y2="1.213" xlink:href="#a"/><linearGradient id="ac" x1="0.07" y1="-0.848" x2="1.002" y2="-0.848" gradientUnits="objectBoundingBox"><stop offset="0" stop-color="#fee662"/><stop offset="0.064" stop-color="#fed15d"/><stop offset="0.197" stop-color="#fe9b50"/><stop offset="0.349" stop-color="#ff5740"/><stop offset="1" stop-color="#2d0d53" stop-opacity="0"/></linearGradient><linearGradient id="ad" x1="0.716" y1="-1.021" x2="1.621" y2="-1.021" xlink:href="#a"/><linearGradient id="ae" x1="0.881" y1="-1.393" x2="1.778" y2="-1.393" xlink:href="#h"/><linearGradient id="af" x1="-0.387" y1="-2.108" x2="0.613" y2="-2.108" xlink:href="#a"/><linearGradient id="ag" x1="0.026" y1="-0.075" x2="1.468" y2="1.674" xlink:href="#p"/><linearGradient id="ai" x1="0.026" y1="-0.075" x2="1.468" y2="1.674" xlink:href="#p"/><linearGradient id="aj" x1="0.026" y1="-0.075" x2="1.468" y2="1.674" xlink:href="#p"/><linearGradient id="am" x1="-0.112" y1="-0.011" x2="1.554" y2="1.38" xlink:href="#e"/><linearGradient id="an" x1="-0.112" y1="-0.011" x2="1.554" y2="1.38" xlink:href="#e"/><linearGradient id="aq" x1="0" y1="0.5" x2="1" y2="0.5" xlink:href="#l"/><linearGradient id="ar" x1="0.008" y1="-0.041" x2="1.084" y2="1.365" xlink:href="#p"/><linearGradient id="as" x1="0.464" y1="-0.701" x2="0.537" y2="1.721" xlink:href="#p"/><linearGradient id="au" x1="0.603" y1="-3.32" x2="1.497" y2="-3.32" xlink:href="#a"/><linearGradient id="aw" x1="0.535" y1="-4.199" x2="1.429" y2="-4.199" xlink:href="#a"/><linearGradient id="ay" x1="-0.007" y1="-3.044" x2="0.887" y2="-3.044" xlink:href="#a"/><linearGradient id="ba" x1="-0.632" y1="-3.974" x2="0.262" y2="-3.974" xlink:href="#a"/><linearGradient id="bc" x1="1.209" y1="-2.259" x2="2.103" y2="-2.259" xlink:href="#a"/><linearGradient id="be" x1="-0.209" y1="-1.449" x2="0.685" y2="-1.449" xlink:href="#a"/><linearGradient id="bg" x1="0.486" y1="-2.022" x2="1.379" y2="-2.022" xlink:href="#a"/><linearGradient id="bi" x1="-0.109" y1="-0.079" x2="1.056" y2="1.028" gradientUnits="objectBoundingBox"><stop offset="0.002" stop-color="#cbfffe"/><stop offset="0.315" stop-color="#94aac2" stop-opacity="0.651"/><stop offset="0.65" stop-color="#5d5687" stop-opacity="0.306"/><stop offset="0.886" stop-color="#3a2161" stop-opacity="0.086"/><stop offset="1" stop-color="#2d0d53" stop-opacity="0"/></linearGradient><linearGradient id="bj" x1="0.06" y1="-0.021" x2="1.026" y2="1.122" gradientUnits="objectBoundingBox"><stop offset="0" stop-color="#ff543c"/><stop offset="0.074" stop-color="#f7513d" stop-opacity="0.976"/><stop offset="0.193" stop-color="#e34941" stop-opacity="0.914"/><stop offset="0.342" stop-color="#c33d47" stop-opacity="0.812"/><stop offset="0.517" stop-color="#962c4f" stop-opacity="0.671"/><stop offset="0.71" stop-color="#5e165a" stop-opacity="0.49"/><stop offset="0.8" stop-color="#420c60" stop-opacity="0.4"/><stop offset="1" stop-color="#2d0d53" stop-opacity="0"/></linearGradient><linearGradient id="bl" x1="0.06" y1="-0.021" x2="1.026" y2="1.122" xlink:href="#a"/><linearGradient id="bn" x1="0.153" y1="0.063" x2="1.066" y2="1.213" xlink:href="#e"/><linearGradient id="bo" x1="-2.644" y1="-14.239" x2="-1.644" y2="-14.239" xlink:href="#l"/><linearGradient id="br" x1="0.153" y1="0.063" x2="1.066" y2="1.213" xlink:href="#o"/><linearGradient id="bw" x1="-0.48" y1="-2.321" x2="0.414" y2="-2.321" xlink:href="#a"/><linearGradient id="by" x1="0.06" y1="-0.021" x2="1.026" y2="1.122" xlink:href="#a"/><linearGradient id="cb" x1="0.06" y1="-0.021" x2="1.026" y2="1.123" xlink:href="#a"/><linearGradient id="cd" x1="0.06" y1="-0.021" x2="1.026" y2="1.122" xlink:href="#a"/><linearGradient id="cf" x1="0.06" y1="-0.021" x2="1.026" y2="1.122" xlink:href="#a"/><linearGradient id="cg" x1="0.25" y1="-1.376" x2="1.144" y2="-1.376" xlink:href="#a"/><linearGradient id="ci" x1="-0.1" y1="-1.361" x2="0.794" y2="-1.361" xlink:href="#a"/><linearGradient id="ck" x1="0.463" y1="-1.299" x2="1.407" y2="-1.299" xlink:href="#a"/><linearGradient id="cl" x1="0.571" y1="-1.735" x2="1.512" y2="-1.735" xlink:href="#h"/><linearGradient id="cm" x1="0.175" y1="-0.699" x2="1.12" y2="-0.699" xlink:href="#a"/><linearGradient id="cn" x1="0.216" y1="-0.987" x2="1.157" y2="-0.987" xlink:href="#h"/><linearGradient id="co" x1="0.449" y1="-1.089" x2="1.343" y2="-1.089" xlink:href="#a"/><linearGradient id="cq" x1="0.718" y1="-2.868" x2="1.612" y2="-2.868" xlink:href="#a"/></defs><g transform="translate(-625)"><path class="b" d="M1104.663,343.447l9.939,20.137,22.225,3.229-16.081,15.675,3.795,22.135-19.877-10.449-19.877,10.449,3.8-22.135L1072.5,366.814l22.225-3.229Z" transform="translate(697.95 535.663)"/><g transform="translate(625)"><rect class="c" width="1920" height="1280"/></g><g transform="translate(1648.808 858.599)"><path class="d" d="M1241,354.606,1059.913,535.9a20.718,20.718,0,0,1-29.285-.845h0a20.718,20.718,0,0,1,.845-29.285L1222.9,335.434Z" transform="translate(-1024.977 -335.434)"/><path class="e" d="M1202.666,357.442l-156.621,152.72a10.829,10.829,0,0,1-15.3-.44h0a10.826,10.826,0,0,1,.44-15.3L1193.21,347.426Z" transform="translate(-1020.595 -316.73)"/><path class="f" d="M1037.328,404.916l2.412,5.569,5.954,1.17-4.552,4.015.728,6.024-5.224-3.087-5.5,2.552,1.322-5.922-4.129-4.447,6.042-.572Z" transform="translate(-1019.742 -227.065)"/></g><g transform="translate(625)"><g class="g"><g transform="translate(-602.272 -177.226)"><path class="h" d="M1456.555,744.215c149.925-2.524,314.168-10.426,425.327-111.059,42.432-38.413,73.759-88.16,94.557-141.483,19.62-50.295,30.1-106.523,14.856-158.308-23.992-81.518-108.66-134.293-193.224-142.648s-168.549,19.9-245.556,55.821-150.583,80.041-231.235,106.8c-197.606,65.556-412.1,20.477-619.109-1.764-65.435-7.029-135.993-10.643-192.451,23.178-28.868,17.293-51.664,43.2-70.762,70.905-35.234,51.114-59.86,114.781-44.684,174.976C413.218,695.775,487.016,743,558.494,772.919c245.2,102.63,525.9,89.6,782.774,21.238,77.806-20.708,154.962-46.4,235.141-53.755" transform="translate(-389.707 472.379)"/><path class="i" d="M1140.161,88.629c-129.57,19.784-270.91,45.9-355.387,146.118C752.528,273,731.232,319.772,719.472,368.4c-11.091,45.867-13.569,95.8,5.711,138.87,30.352,67.8,109.886,103.574,184.117,100.887s143.661-37.018,206.151-77.174,121.041-87.006,187.764-119.649c163.473-79.974,354.562-66.1,536.48-71.133,57.508-1.59,119.048-6.742,163.985-42.664,22.978-18.366,39.682-43.484,52.972-69.723,24.522-48.411,38.38-106.449,18.171-156.813C2049.6,8.138,1980.131-24.1,1914.7-41.632c-224.437-60.124-466.059-15.9-680.538,73.473C1169.2,58.909,1105.38,90.216,1036.792,106" transform="translate(111.257 69.238)"/><path class="j" d="M1776.7,887.387c149.925-2.524,314.168-10.423,425.329-111.056,42.429-38.415,73.757-88.165,94.556-141.488,19.617-50.29,30.1-106.518,14.854-158.3-23.992-81.52-108.66-134.3-193.226-142.65s-168.546,19.9-245.554,55.821-150.583,80.043-231.235,106.8c-197.606,65.556-412.1,20.477-619.106-1.761-65.44-7.031-135.995-10.643-192.456,23.178-28.865,17.293-51.659,43.2-70.759,70.905-35.234,51.114-59.86,114.778-44.684,174.974,18.942,75.141,92.739,122.365,164.221,152.285,245.2,102.632,525.9,89.6,782.774,21.238,77.809-20.708,154.962-46.4,235.141-53.755" transform="translate(109.604 695.681)"/><g transform="translate(1401.794 106.456)"><path class="k" d="M1228.1-.892,979.949,213.388a25.861,25.861,0,0,1-36.89-4.31h0a27.272,27.272,0,0,1,4.211-37.732L1207.3-27.648Z" transform="translate(-937.354 27.648)"/><path class="l" d="M1177.362.737,963.17,180.794a13.511,13.511,0,0,1-19.274-2.25h0a14.253,14.253,0,0,1,2.2-19.717L1166.5-13.244Z" transform="translate(-931.802 50.113)"/><path class="f" d="M953.69,54.362l2.447,7.458,7.394,2.167-6.179,4.684.27,7.862-6.264-4.563-7.226,2.694,2.307-7.505-4.737-6.2,7.689-.076Z" transform="translate(-930.575 155.557)"/></g><g transform="translate(863.17 858.168)"><path class="m" d="M962.655,279.656l-213.538,175.5A13.68,13.68,0,0,1,729.9,452.96h0a13.678,13.678,0,0,1,2.191-19.218L951.822,266.028Z" transform="translate(-726.927 -266.028)"/><path class="f" d="M739.665,331.923l2.437,7.269,7.372,2.112-6.159,4.564.27,7.664-6.247-4.447-7.2,2.622,2.3-7.314-4.722-6.039,7.667-.075Z" transform="translate(-725.703 -163.254)"/></g></g><g transform="translate(-142.788 968.225)"><path class="n" d="M915.265,676.688C855.394,762.864,737,784.186,650.823,724.313s-107.5-178.27-47.628-264.444,178.27-107.5,264.447-47.625S975.14,590.514,915.265,676.688Z" transform="translate(-569.216 -378.262)"/><path class="o" d="M855.754,628.211A149.74,149.74,0,1,1,818.221,419.8,149.738,149.738,0,0,1,855.754,628.211Z" transform="translate(-547.673 -355.249)"/><path class="p" d="M722.633,462.633a46.075,46.075,0,1,1,6,64.882A46.077,46.077,0,0,1,722.633,462.633Z" transform="translate(-346.522 -272.615)"/><path class="q" d="M741.715,459.992a40.957,40.957,0,1,1-40.957-40.957A40.955,40.955,0,0,1,741.715,459.992Z" transform="translate(-427.934 -314.671)"/><path class="r" d="M685.559,423.682a19.006,19.006,0,1,1-19-19A19,19,0,0,1,685.559,423.682Z" transform="translate(-447.045 -337.061)"/></g><g transform="translate(1704.786 418.367)"><path class="s" d="M1511.25,379.761a120.917,120.917,0,1,1-30.309-168.3A120.916,120.916,0,0,1,1511.25,379.761Z" transform="translate(-1291.019 -122.28)"/><circle class="t" cx="97.267" cy="97.267" r="97.267" transform="translate(24.908 91.646)"/><circle class="u" cx="83.189" cy="83.189" r="83.189" transform="translate(38.986 105.724)"/><g transform="translate(168.889 142.2)"><circle class="v" cx="35.5" cy="35.5" r="35.5" transform="translate(0.325 0.433)"/><circle class="w" cx="28.669" cy="28.669" r="28.669" transform="translate(7.167 7.167)"/></g><g transform="translate(10.75)"><path class="x" d="M1389.366,171.936l-80.637,65.576a8.4,8.4,0,0,1-11.777-1.566h0a8.4,8.4,0,0,1,1.561-11.78l84.351-60.72Z" transform="translate(-1295.219 -163.446)"/><path class="y" d="M1303.487,186.577l2.64,4.824,4.824,2.639-4.824,2.638-2.64,4.824-2.637-4.824-4.824-2.638,4.824-2.639Z" transform="translate(-1293.961 -127.369)"/><path class="z" d="M1353.959,172.18c-1.231,0-55.476,38.216-55.476,38.216l1.237,7.4h6.164l50.543-43.146Z" transform="translate(-1290.126 -149.824)"/></g><g transform="translate(124.797 120.35)"><circle class="aa" cx="20.03" cy="20.03" r="20.03" transform="translate(9.198 27.162) rotate(-22.5)"/><path class="aa" d="M1358.365,219.761a9.3,9.3,0,1,1-9.3-9.3A9.3,9.3,0,0,1,1358.365,219.761Z" transform="translate(-1339.774 -210.464)"/></g><g transform="translate(200.109 152.438)"><path class="ab" d="M1392.528,236.7a10.148,10.148,0,1,1-10.146-10.146A10.146,10.146,0,0,1,1392.528,236.7Z" transform="translate(-1364.464 -217.452)"/><path class="ac" d="M1378.616,227.71a4.71,4.71,0,1,1-4.71-4.71A4.71,4.71,0,0,1,1378.616,227.71Z" transform="translate(-1369.197 -223)"/></g></g></g></g><path class="y" d="M688.429,319.893l2.312,4.227,4.224,2.31-4.224,2.312-2.312,4.224-2.312-4.224-4.225-2.312,4.225-2.31Z" transform="translate(88.733 498.925)"/><path class="y" d="M654.429,172.893l2.312,4.226,4.224,2.311-4.224,2.311-2.312,4.226-2.312-4.226-4.225-2.311,4.225-2.311Z" transform="translate(35.705 269.655)"/><path class="y" d="M655.429,39.893l2.312,4.226,4.224,2.311-4.224,2.311-2.312,4.226-2.312-4.226-4.225-2.311,4.225-2.311Z" transform="translate(37.264 62.219)"/><path class="ad" d="M690.49,123.1l4.029,7.365,7.367,4.029-7.367,4.028-4.029,7.366-4.027-7.366-7.367-4.028,7.367-4.029Z" transform="translate(84.373 191.99)"/><path class="ae" d="M1364.517,576.7a117.522,117.522,0,1,1-29.459-163.57A117.524,117.524,0,0,1,1364.517,576.7Z" transform="translate(819.557 611.557)"/><path class="af" d="M945.467,352.554a96.554,96.554,0,1,1-24.2-134.388A96.553,96.553,0,0,1,945.467,352.554Z" transform="translate(225.541 313.335)"/><g transform="translate(1308.229 514.003)"><path class="ag" d="M1184.114,180.028,966.673,368.1a14.923,14.923,0,0,1-20.408-1.236h0a13.42,13.42,0,0,1,1.413-19.517L1172.024,166.82Z" transform="translate(-942.709 -166.82)"/><path class="ah" d="M955.812,237.55l2.92,7.215,7.889,1.756-6.3,4.924.645,7.723L954.16,255l-7.491,3.017,2.087-7.5-5.275-5.859,8.1-.465Z" transform="translate(-941.504 -56.504)"/></g><g transform="translate(1227.58 1081.128)"><path class="ai" d="M1031.38,437.752,885.461,560.941a15.438,15.438,0,0,1-21.691-2.478h0a15.436,15.436,0,0,1,2.475-21.693l152.907-114.4Z" transform="translate(-860.414 -422.371)"/><path class="aj" d="M1001.548,438.687,875.594,542.2a8.065,8.065,0,0,1-11.334-1.29h0a8.071,8.071,0,0,1,1.293-11.337l129.6-98.921Z" transform="translate(-857.148 -409.455)"/><path class="f" d="M870.021,469.519l1.438,4.287,4.347,1.245-3.632,2.692.16,4.52-3.684-2.622-4.25,1.547,1.355-4.314-2.785-3.562,4.522-.042Z" transform="translate(-856.427 -348.837)"/></g><path class="ak" d="M1158.3,153.678a73.339,73.339,0,1,1,56.766,86.8A73.337,73.337,0,0,1,1158.3,153.678Z" transform="translate(829.321 148.703)"/><path class="y" d="M1226.49,235.1l4.03,7.365,7.366,4.029-7.366,4.028-4.03,7.366-4.027-7.366-7.366-4.028,7.366-4.029Z" transform="translate(920.353 366.672)"/><path class="y" d="M1208.669,42.079l4.03,7.366,7.366,4.028L1212.7,57.5l-4.03,7.366L1204.64,57.5l-7.367-4.029,7.367-4.028Z" transform="translate(892.555 65.629)"/><path class="y" d="M1280.669,287.079l4.03,7.366,7.366,4.03L1284.7,302.5l-4.03,7.366-4.029-7.366-7.367-4.027,7.367-4.03Z" transform="translate(1004.851 447.747)"/><path class="y" d="M1025.692,451.125l4.03,7.366,7.366,4.029-7.366,4.027-4.03,7.366-4.027-7.366-7.367-4.027,7.367-4.029Z" transform="translate(607.176 703.604)"/><path class="y" d="M1055.71,343.961l2.417,4.417,4.417,2.415-4.417,2.417-2.417,4.417-2.415-4.417-4.417-2.417,4.417-2.415Z" transform="translate(661.109 536.464)"/><path class="y" d="M942.373,365.791l2.415,4.414,4.417,2.417-4.417,2.415-2.415,4.417-2.415-4.417-4.417-2.415,4.417-2.417Z" transform="translate(484.342 570.512)"/><path class="y" d="M843.87,433.225l2.415,4.414,4.417,2.417-4.417,2.415-2.415,4.417-2.415-4.417-4.417-2.415,4.417-2.417Z" transform="translate(330.709 675.686)"/><path class="y" d="M1203.221,172.908l2.415,4.417,4.417,2.416-4.417,2.415-2.415,4.417-2.417-4.417-4.417-2.415,4.417-2.416Z" transform="translate(891.172 269.678)"/><path class="y" d="M1129.873,159.373l2.417,4.417,4.417,2.416-4.417,2.415-2.417,4.418-2.415-4.418-4.417-2.415,4.417-2.416Z" transform="translate(776.777 248.568)"/><path class="y" d="M797.515,145.481l2.415,4.416,4.417,2.416-4.417,2.416-2.415,4.417-2.417-4.417-4.417-2.416L795.1,149.9Z" transform="translate(258.406 226.902)"/><path class="y" d="M1290.515,56.481l2.415,4.417,4.417,2.416-4.417,2.416-2.415,4.417L1288.1,65.73l-4.417-2.416L1288.1,60.9Z" transform="translate(1027.322 88.091)"/><path class="y" d="M1349.515,132.481l2.415,4.416,4.417,2.416-4.417,2.416-2.415,4.417-2.417-4.417-4.417-2.416,4.417-2.416Z" transform="translate(1119.342 206.627)"/><path class="y" d="M1357.515,355.481l2.415,4.417,4.417,2.415-4.417,2.415-2.415,4.417-2.417-4.417-4.417-2.415,4.417-2.415Z" transform="translate(1131.819 554.432)"/><path class="y" d="M1203.515,358.481l2.415,4.417,4.417,2.415-4.417,2.415-2.415,4.417-2.417-4.417-4.417-2.415,4.417-2.415Z" transform="translate(891.631 559.111)"/><path class="y" d="M1296.515,414.481l2.415,4.417,4.417,2.415-4.417,2.415-2.415,4.417-2.417-4.417-4.417-2.415,4.417-2.415Z" transform="translate(1036.679 646.452)"/><path class="y" d="M751.515,15.481l2.415,4.417,4.417,2.416-4.417,2.416-2.415,4.417L749.1,24.73l-4.417-2.416L749.1,19.9Z" transform="translate(186.662 24.145)"/><path class="y" d="M1189.552,78.831l2.415,4.417,4.417,2.416-4.417,2.416-2.415,4.417-2.417-4.417-4.417-2.416,4.417-2.416Z" transform="translate(869.853 122.949)"/><path class="y" d="M874.429,200.893l2.312,4.226,4.225,2.311-4.225,2.311-2.312,4.226-2.312-4.226-4.225-2.311,4.225-2.311Z" transform="translate(378.831 313.325)"/><path class="y" d="M731.429,227.893l2.312,4.226,4.224,2.311-4.224,2.311-2.312,4.226-2.312-4.226-4.225-2.311,4.225-2.311Z" transform="translate(155.799 355.436)"/><path class="y" d="M987.429,246.893l2.312,4.226,4.225,2.311-4.225,2.311-2.312,4.226-2.312-4.226-4.225-2.311,4.225-2.311Z" transform="translate(555.073 385.07)"/><path class="al" d="M899.243,256l3.267,5.974,5.974,3.27-5.974,3.267-3.267,5.974-3.27-5.974L890,265.243l5.974-3.27Z" transform="translate(413.31 399.273)"/><path class="al" d="M750.243,386l3.267,5.974,5.974,3.27-5.974,3.267-3.267,5.974-3.27-5.974L741,395.243l5.974-3.27Z" transform="translate(180.92 602.029)"/><path class="am" d="M1042.979,249.638l3.27,5.976,5.974,3.267-5.974,3.267-3.27,5.974-3.267-5.974-5.974-3.267,5.974-3.267Z" transform="translate(637.495 389.352)"/><path class="an" d="M1024.343,378.357l5.3,9.686,9.688,5.3-9.688,5.3-5.3,9.689-5.3-9.689-9.686-5.3,9.686-5.3Z" transform="translate(599.469 590.111)"/><path class="an" d="M1124.173,462.058l5.3,9.689,9.689,5.3-9.689,5.3-5.3,9.689-5.3-9.689-9.689-5.3,9.689-5.3Z" transform="translate(755.171 720.655)"/><path class="ad" d="M912.49,153.1l4.029,7.365,7.367,4.029-7.367,4.028-4.029,7.366-4.027-7.366-7.366-4.028,7.366-4.029Z" transform="translate(430.618 238.78)"/><path class="ao" d="M1144.49,345.1l4.03,7.366,7.366,4.027-7.366,4.029-4.03,7.366-4.027-7.366-7.366-4.029,7.366-4.027Z" transform="translate(792.461 538.235)"/><path class="ap" d="M1235.4,181.1l4.027,7.365,7.367,4.029-7.367,4.028-4.027,7.366-4.03-7.366L1224,192.491l7.366-4.029Z" transform="translate(934.24 282.45)"/><path class="ap" d="M1125.534,90.936l4.027,7.367,7.367,4.028-7.367,4.029-4.027,7.365-4.03-7.365-7.366-4.029L1121.5,98.3Z" transform="translate(762.891 141.829)"/><path class="ao" d="M1058.49,181.1l4.03,7.365,7.366,4.029-7.366,4.028-4.03,7.366-4.027-7.366-7.366-4.028,7.366-4.029Z" transform="translate(658.329 282.45)"/><path class="aq" d="M999.12,326.343c19.013,13.308,19.216,28.957,22.4,49.151,1.42,9,.287,18.158-1.692,27.076a134.97,134.97,0,0,1-43.46,73.316c-22.94,19.692-54.664,32.331-87.136,32.193a148.807,148.807,0,0,1-49.5-9.2c-25.064-9.028-48.319-24.824-57.354-46.8s.369-50.177,25.034-59.981c18.629-7.4,41.3-3.43,60.019-10.659,30.058-11.6,39.713-47.515,70.357-57.93C937.785,323.515,973.523,308.426,999.12,326.343Z" transform="translate(240.2 495.309)"/><path class="ar" d="M1099.613,197c-6.148-7.139-4.664-13.318-3.9-21.583a29.485,29.485,0,0,1,3.374-10.487,54.082,54.082,0,0,1,61.944-28.463,60.425,60.425,0,0,1,18.565,8.572c8.959,6.059,16.533,14.6,17.889,24.15s-5.16,19.712-15.849,21.1c-8.071,1.049-16.6-2.78-24.688-1.807-12.988,1.559-20.38,14.728-33.48,15.762C1123.469,204.249,1107.9,206.614,1099.613,197Z" transform="translate(733.019 210.265)"/><path class="b" d="M989.613,471c-6.148-7.139-4.664-13.318-3.9-21.583a29.56,29.56,0,0,1,3.376-10.487,54.091,54.091,0,0,1,61.944-28.464,60.439,60.439,0,0,1,18.563,8.572c8.961,6.059,16.535,14.6,17.892,24.15s-5.16,19.712-15.849,21.1c-8.071,1.049-16.6-2.78-24.688-1.807-12.988,1.561-20.38,14.728-33.48,15.762C1013.469,478.249,997.893,480.614,989.613,471Z" transform="translate(561.456 637.614)"/><ellipse class="as" cx="40" cy="39.5" rx="40" ry="39.5" transform="translate(1495 730)"/><circle class="as" cx="29.5" cy="29.5" r="29.5" transform="translate(1544 765)"/><g transform="translate(1580.315 775.072)"><path class="at" d="M1092.367,311.295l-80.637,65.574a8.4,8.4,0,0,1-11.78-1.564h0a8.4,8.4,0,0,1,1.564-11.78l84.351-60.723Z" transform="translate(-998.219 -302.802)"/><path class="y" d="M1006.487,325.934l2.64,4.824,4.824,2.637-4.824,2.64-2.64,4.824-2.637-4.824-4.825-2.64,4.825-2.637Z" transform="translate(-996.96 -266.724)"/><path class="z" d="M1056.959,311.537c-1.231,0-55.475,38.216-55.475,38.216l1.236,7.395h6.161L1059.427,314Z" transform="translate(-993.126 -289.178)"/></g><g transform="translate(2018.018 766.479)"><path class="au" d="M1263.366,307.941l-80.637,65.573a8.4,8.4,0,0,1-11.777-1.564h0a8.4,8.4,0,0,1,1.562-11.782l84.351-60.723Z" transform="translate(-1169.219 -299.445)"/><path class="y" d="M1177.487,322.577l2.64,4.825,4.824,2.637-4.824,2.64-2.64,4.824-2.637-4.824-4.824-2.64,4.824-2.637Z" transform="translate(-1167.961 -263.367)"/><path class="z" d="M1227.959,308.181c-1.231,0-55.476,38.213-55.476,38.213l1.237,7.4h6.163l50.543-43.146Z" transform="translate(-1164.126 -285.82)"/></g><g transform="translate(1472.809 390.211)"><path class="av" d="M1050.367,160.936l-80.637,65.576a8.4,8.4,0,0,1-11.78-1.567h0a8.4,8.4,0,0,1,1.564-11.78l84.351-60.72Z" transform="translate(-956.219 -152.446)"/><path class="y" d="M964.487,175.577l2.64,4.824,4.824,2.639-4.824,2.638-2.64,4.824-2.637-4.824-4.824-2.638,4.824-2.639Z" transform="translate(-954.96 -116.369)"/><path class="z" d="M1014.959,161.18c-1.231,0-55.476,38.216-55.476,38.216l1.236,7.4h6.161l50.546-43.146Z" transform="translate(-951.125 -138.824)"/></g><g transform="translate(1961.705 42.096)"><path class="aw" d="M1241.366,24.936l-80.637,65.576a8.4,8.4,0,0,1-11.777-1.567h0a8.4,8.4,0,0,1,1.561-11.78l84.351-60.72Z" transform="translate(-1147.219 -16.446)"/><path class="y" d="M1155.487,39.577l2.64,4.824,4.824,2.639-4.824,2.638-2.64,4.824-2.637-4.824-4.824-2.638,4.824-2.639Z" transform="translate(-1145.961 19.631)"/><path class="z" d="M1205.96,25.18c-1.231,0-55.476,38.216-55.476,38.216l1.236,7.4h6.164l50.543-43.146Z" transform="translate(-1142.126 -2.824)"/></g><g transform="translate(1027.427 1106.915)"><path class="ax" d="M876.367,440.94l-80.637,65.573a8.4,8.4,0,0,1-11.78-1.564h0a8.4,8.4,0,0,1,1.567-11.782l84.349-60.723Z" transform="translate(-782.219 -432.445)"/><path class="y" d="M790.487,455.577l2.64,4.825,4.824,2.637-4.824,2.64-2.64,4.824-2.637-4.824-4.824-2.64,4.824-2.637Z" transform="translate(-780.96 -396.367)"/><path class="z" d="M840.959,441.181c-1.231,0-55.475,38.213-55.475,38.213l1.236,7.4h6.161l50.546-43.146Z" transform="translate(-777.126 -418.82)"/></g><path class="ay" d="M1237.7,45.495l-167.43,136.156a17.444,17.444,0,0,1-24.46-3.248h0a17.444,17.444,0,0,1,3.25-24.458L1224.2,27.864Z" transform="translate(650.722 -0.541)"/><path class="y" d="M1059.388,75.893l5.479,10.017,10.016,5.478-10.016,5.478-5.479,10.018-5.479-10.018-10.016-5.478,10.016-5.478Z" transform="translate(653.332 71.367)"/><path class="z" d="M1164.185,46C1161.625,46,1049,125.35,1049,125.35l2.56,15.358h12.8L1169.3,51.119Z" transform="translate(661.298 27.745)"/><path class="az" d="M1109.059,107.723a37.117,37.117,0,1,1-33.334-40.545A37.12,37.12,0,0,1,1109.059,107.723Z" transform="translate(639.461 60.497)"/><path class="az" d="M987.534,190.461a17.481,17.481,0,1,1-15.7-19.1A17.477,17.477,0,0,1,987.534,190.461Z" transform="translate(511.031 267.143)"/><g transform="translate(1276.593 746.916)"><g transform="translate(6.802)"><path class="ba" d="M1003.465,302.737,899.619,387.188a10.822,10.822,0,0,1-15.171-2.014h0A10.823,10.823,0,0,1,886.463,370l108.63-78.2Z" transform="translate(-882.219 -291.802)"/><path class="y" d="M892.868,321.592l3.4,6.212,6.214,3.4-6.214,3.4-3.4,6.214-3.4-6.214-6.214-3.4,6.214-3.4Z" transform="translate(-880.601 -245.34)"/><path class="z" d="M957.868,303.051c-1.587,0-71.443,49.215-71.443,49.215l1.587,9.527h7.938l65.092-55.568Z" transform="translate(-875.659 -274.257)"/></g><path class="az" d="M926.571,340.06A23.546,23.546,0,1,1,901.1,318.6,23.546,23.546,0,0,1,926.571,340.06Z" transform="translate(-879.562 -250.139)"/></g><path class="bb" d="M1364.142,577.234a117.522,117.522,0,1,1-29.459-163.57A117.526,117.526,0,0,1,1364.142,577.234Z" transform="translate(818.975 612.396)"/><path class="b" d="M1003.24,402.389c3.046-1.523,8.6-.932,11.777,2.928s3.86,9.379,2.606,14.222a21.186,21.186,0,0,1-16.229,15.166,35.511,35.511,0,0,1-9.381.2c-6.762-.532-14.406-2.153-16.894-9.22a14.018,14.018,0,0,1,2.055-12.412c1.874-2.767,4.521-5.449,7.833-6.461a19.908,19.908,0,0,1,5.26-.635c.253-.005.507-.013.76-.021a24.724,24.724,0,0,0,11.275-3.276C1002.59,402.724,1002.9,402.557,1003.24,402.389Z" transform="translate(545.021 626.382)"/><path class="b" d="M991.841,401.613" transform="translate(572.149 626.382)"/><path class="bc" d="M844.75,412.825a60.184,60.184,0,1,1,60.186,60.188A60.183,60.183,0,0,1,844.75,412.825Z" transform="translate(342.736 550.004)"/><path class="r" d="M902.635,373.9a13.3,13.3,0,1,1-13.3-13.3A13.3,13.3,0,0,1,902.635,373.9Z" transform="translate(391.526 562.406)"/><path class="bd" d="M884.706,362.05a6.652,6.652,0,1,1-6.652-6.653A6.651,6.651,0,0,1,884.706,362.05Z" transform="translate(384.303 554.3)"/><g transform="translate(1713.432 445.928)"><path class="n" d="M1405.265,480.688c-59.871,86.176-178.268,107.5-264.442,47.625s-107.5-178.27-47.628-264.444,178.271-107.5,264.447-47.625S1465.14,394.514,1405.265,480.688Z" transform="translate(-1036.2 -161.659)"/><circle class="be" cx="149.74" cy="149.74" r="149.74" transform="matrix(0.564, -0.825, 0.825, 0.564, 0, 247.212)"/><path class="bf" d="M1212.633,266.633a46.074,46.074,0,1,1,6,64.882A46.077,46.077,0,0,1,1212.633,266.633Z" transform="translate(-813.506 -56.012)"/><path class="q" d="M1231.715,263.992a40.957,40.957,0,1,1-40.957-40.957A40.955,40.955,0,0,1,1231.715,263.992Z" transform="translate(-894.918 -98.068)"/><path class="aa" d="M1175.559,227.686a19.005,19.005,0,1,1-19-19.008A19,19,0,0,1,1175.559,227.686Z" transform="translate(-914.029 -120.46)"/></g><path class="b" d="M990.4,103.458l9.939,20.139,22.225,3.23L1006.483,142.5l3.795,22.135L990.4,154.186l-19.877,10.45,3.794-22.135-16.08-15.675,22.225-3.23Z" transform="translate(519.739 161.359)"/><path class="b" d="M820.207,302.3l9.939,20.137,22.225,3.23L836.29,341.344l3.794,22.134-19.877-10.451L800.33,363.479l3.794-22.134-16.081-15.675,22.225-3.23Z" transform="translate(254.294 471.49)"/><g transform="translate(1126.743 72.812)"><path class="bg" d="M1041.25,244.761a120.917,120.917,0,1,1-30.309-168.3A120.915,120.915,0,0,1,1041.25,244.761Z" transform="translate(-821.019 12.72)"/><circle class="t" cx="97.267" cy="97.267" r="97.267" transform="translate(24.908 91.646)"/><circle class="bh" cx="83.189" cy="83.189" r="83.189" transform="translate(38.986 105.724)"/><g transform="translate(168.889 142.2)"><ellipse class="v" cx="35.5" cy="36" rx="35.5" ry="36" transform="translate(0.368 -0.012)"/><circle class="w" cx="28.669" cy="28.669" r="28.669" transform="translate(7.167 7.167)"/></g><g transform="translate(10.75)"><path class="bi" d="M919.367,36.936l-80.637,65.576a8.4,8.4,0,0,1-11.78-1.567h0a8.4,8.4,0,0,1,1.567-11.78l84.349-60.72Z" transform="translate(-825.219 -28.446)"/><path class="y" d="M833.487,51.577l2.64,4.824,4.824,2.639-4.824,2.638-2.64,4.824-2.637-4.824-4.824-2.638L830.85,56.4Z" transform="translate(-823.96 7.631)"/><path class="z" d="M883.96,37.18c-1.231,0-55.476,38.216-55.476,38.216l1.236,7.4h6.161l50.546-43.146Z" transform="translate(-820.126 -14.824)"/></g><g transform="translate(124.797 120.35)"><circle class="bj" cx="20.03" cy="20.03" r="20.03" transform="translate(9.759 25.897) rotate(-19.702)"/><path class="aa" d="M888.365,84.761a9.3,9.3,0,1,1-9.3-9.3A9.3,9.3,0,0,1,888.365,84.761Z" transform="translate(-869.774 -75.464)"/></g><g transform="translate(200.11 152.438)"><path class="ab" d="M922.528,101.7a10.148,10.148,0,1,1-10.146-10.147A10.146,10.146,0,0,1,922.528,101.7Z" transform="translate(-894.464 -82.452)"/><path class="bk" d="M908.616,92.71a4.71,4.71,0,1,1-4.71-4.71A4.71,4.71,0,0,1,908.616,92.71Z" transform="translate(-899.197 -88)"/></g></g><path class="aa" d="M1231.072,124.92a19.72,19.72,0,1,1-19.719-19.722A19.719,19.719,0,0,1,1231.072,124.92Z" transform="translate(883.758 164.074)"/><path class="bl" d="M1204.039,107.437a9.153,9.153,0,1,1-9.151-9.151A9.152,9.152,0,0,1,1204.039,107.437Z" transform="translate(874.554 153.293)"/><circle class="r" cx="33.368" cy="33.368" r="33.368" transform="translate(2113.271 1114.014) rotate(-76.717)"/><path class="bm" d="M1230.065,416.277a15.485,15.485,0,1,1-15.483-15.483A15.486,15.486,0,0,1,1230.065,416.277Z" transform="translate(895.398 625.105)"/><g transform="translate(2207.234 763.712)"><g transform="translate(4.758)"><path class="bn" d="M1509.619,322.235,1282.976,506.542a23.622,23.622,0,0,1-33.112-4.395h0a23.62,23.62,0,0,1,4.4-33.112l237.084-170.671Z" transform="translate(-1245 -298.364)"/><path class="y" d="M1268.24,363.379l7.417,13.561,13.561,7.414-13.561,7.417-7.417,13.561-7.414-13.561-13.561-7.417,13.561-7.414Z" transform="translate(-1241.465 -196.963)"/><path class="z" d="M1410.1,322.914c-3.466,0-155.919,107.414-155.919,107.414l3.463,20.79h17.324l142.064-121.272Z" transform="translate(-1230.681 -260.074)"/></g><path class="az" d="M1311.146,395.292a34.082,34.082,0,1,1-30.609-37.233A34.087,34.087,0,0,1,1311.146,395.292Z" transform="translate(-1243.141 -205.516)"/></g><g transform="translate(2232.831 159.631)"><g transform="translate(4.758)"><path class="bo" d="M1519.619,86.233,1292.976,270.544a23.622,23.622,0,0,1-33.112-4.4h0a23.617,23.617,0,0,1,4.4-33.109L1501.348,62.364Z" transform="translate(-1255 -62.364)"/><path class="y" d="M1278.24,127.379l7.417,13.56,13.561,7.416-13.561,7.415-7.417,13.56-7.414-13.56-13.561-7.415,13.561-7.416Z" transform="translate(-1251.465 39.038)"/><path class="z" d="M1420.1,86.915c-3.466,0-155.919,107.411-155.919,107.411l3.463,20.79h17.324L1427.031,93.844Z" transform="translate(-1240.681 -24.073)"/></g><path class="az" d="M1321.146,159.291a34.082,34.082,0,1,1-30.609-37.233A34.081,34.081,0,0,1,1321.146,159.291Z" transform="translate(-1253.141 30.485)"/></g><g transform="translate(2325.29 1011.664)"><path class="bp" d="M1508.973,414.812,1323.855,591.984a20.716,20.716,0,0,1-29.257-1.5h0a20.717,20.717,0,0,1,1.5-29.26l195.208-165.989Z" transform="translate(-1289.262 -395.233)"/><path class="bq" d="M1470.166,417.228,1310.149,566.388a10.827,10.827,0,0,1-15.289-.788h0a10.822,10.822,0,0,1,.786-15.286L1460.938,407Z" transform="translate(-1284.881 -376.88)"/><path class="f" d="M1301.759,463.114l2.287,5.622,5.927,1.3-4.642,3.912.592,6.039-5.154-3.2-5.559,2.427,1.455-5.892-4.029-4.537,6.054-.437Z" transform="translate(-1284.003 -289.361)"/></g><g transform="translate(681.983 77.389)"><path class="br" d="M866.974,49.808,681.856,226.983a20.717,20.717,0,0,1-29.257-1.5h0a20.715,20.715,0,0,1,1.5-29.26L849.309,30.234Z" transform="translate(-647.262 -30.234)"/><path class="bs" d="M828.166,52.227,668.149,201.384a10.824,10.824,0,0,1-15.289-.786h0a10.821,10.821,0,0,1,.786-15.286L818.939,42Z" transform="translate(-642.88 -11.881)"/><path class="f" d="M659.761,98.114l2.285,5.622,5.927,1.3-4.642,3.91.593,6.04-5.154-3.2-5.559,2.427,1.455-5.89-4.029-4.538,6.054-.436Z" transform="translate(-642.002 75.636)"/></g><g transform="translate(685.31 672.685)"><g transform="translate(6.802)"><path class="bt" d="M772.465,273.737,668.619,358.188a10.822,10.822,0,0,1-15.171-2.014h0A10.823,10.823,0,0,1,655.463,341l108.63-78.2Z" transform="translate(-651.219 -262.802)"/><path class="y" d="M661.868,292.592l3.4,6.212,6.214,3.4-6.214,3.4-3.4,6.214-3.4-6.214-6.214-3.4,6.214-3.4Z" transform="translate(-649.601 -216.34)"/><path class="z" d="M726.868,274.051c-1.587,0-71.443,49.215-71.443,49.215l1.587,9.527h7.938l65.092-55.568Z" transform="translate(-644.66 -245.257)"/></g><path class="az" d="M695.57,311.06A23.546,23.546,0,1,1,670.1,289.6,23.546,23.546,0,0,1,695.57,311.06Z" transform="translate(-648.562 -221.139)"/></g><g transform="translate(1801.324 972.166)"><g transform="translate(6.802)"><path class="bu" d="M1208.465,390.737l-103.846,84.451a10.822,10.822,0,0,1-15.171-2.015h0A10.823,10.823,0,0,1,1091.463,458l108.63-78.2Z" transform="translate(-1087.219 -379.802)"/><path class="y" d="M1097.868,409.592l3.4,6.212,6.214,3.4-6.214,3.4-3.4,6.214-3.4-6.214-6.214-3.4,6.214-3.4Z" transform="translate(-1085.601 -333.34)"/><path class="z" d="M1162.868,391.051c-1.587,0-71.443,49.215-71.443,49.215l1.587,9.527h7.94l65.09-55.568Z" transform="translate(-1080.659 -362.257)"/></g><path class="az" d="M1131.57,428.06A23.546,23.546,0,1,1,1106.1,406.6,23.546,23.546,0,0,1,1131.57,428.06Z" transform="translate(-1084.562 -338.139)"/></g><path class="bv" d="M838.663,465.447l9.939,20.137,22.225,3.229L854.746,504.49l3.795,22.135-19.878-10.449-19.877,10.449,3.8-22.135L806.5,488.814l22.225-3.229Z" transform="translate(283.079 725.942)"/><path class="bv" d="M971.663,457.447l9.939,20.137,22.225,3.229L987.746,496.49l3.795,22.135-19.878-10.449-19.877,10.449,3.8-22.135L939.5,480.814l22.224-3.229Z" transform="translate(490.515 713.465)"/><path class="bv" d="M1081.663,465.447l9.939,20.137,22.225,3.229-16.081,15.675,3.795,22.135-19.877-10.449-19.877,10.449,3.8-22.135L1049.5,488.814l22.225-3.229Z" transform="translate(662.078 725.942)"/></g></svg>