<svg xmlns="http://www.w3.org/2000/svg" width="543.909" height="543.909" viewBox="0 0 543.909 543.909"><defs><style>.a{fill:#fff;opacity:0.1;}.b{fill:#c2c2c2;}.c{fill:#d6d6d6;}.d{fill:#f6f6f6;}.e{fill:#230753;opacity:0.15;mix-blend-mode:multiply;isolation:isolate;}.f{fill:#e3e3e3;}.g{fill:#ddd;}.h{fill:#ff1200;}.i{fill:#f4f2ed;}.j{fill:#cec9ff;}.k{fill:none;stroke:#f4f2ed;stroke-linecap:round;stroke-linejoin:round;stroke-width:0.3px;}</style></defs><g transform="translate(-1572.311 -146.537)"><g transform="matrix(0.914, -0.407, 0.407, 0.914, 620.505, 684.769)"><circle class="a" cx="196.686" cy="196.686" r="196.686" transform="translate(1004.731 422.698) rotate(-82.209)"/><g transform="translate(1063.865 85.169)"><path class="b" d="M1086.282,154.3l13.234,1.623a18.855,18.855,0,0,1,16.366,20.951l-1.235,10.1a18.859,18.859,0,0,1-20.951,16.371l-13.231-1.623a18.859,18.859,0,0,1-16.371-20.951l1.243-10.1A18.852,18.852,0,0,1,1086.282,154.3Z" transform="translate(-956.472 134.619)"/><path class="b" d="M5.542,0H45.389a5.54,5.54,0,0,1,5.54,5.54v36.7a5.539,5.539,0,0,1-5.539,5.539H5.54A5.54,5.54,0,0,1,0,42.236V5.542A5.542,5.542,0,0,1,5.542,0Z" transform="translate(336.102 192.266) rotate(110.947)"/><path class="c" d="M1158.389,79.566l6.907,9.267a19.743,19.743,0,0,1-4.02,27.546l-6.735,5.022a19.739,19.739,0,0,1-27.549-4.018l-6.91-9.267a19.747,19.747,0,0,1,4.021-27.552l6.738-5.019A19.744,19.744,0,0,1,1158.389,79.566Z" transform="translate(-861.728 -14.978)"/><path class="c" d="M5.661,0H45.27a5.661,5.661,0,0,1,5.661,5.661V42.113a5.66,5.66,0,0,1-5.66,5.66H5.661A5.661,5.661,0,0,1,0,42.113V5.661A5.661,5.661,0,0,1,5.661,0Z" transform="matrix(-0.999, -0.034, 0.034, -0.999, 176.786, 49.498)"/><path class="c" d="M1081.052,110.189l-7.127,9.025a23.965,23.965,0,0,1-33.558,3.93h0a23.963,23.963,0,0,1-3.925-33.555l7.132-9.02a23.958,23.958,0,0,1,33.55-3.933h0A23.953,23.953,0,0,1,1081.052,110.189Z" transform="translate(-1015.646 -15.241)"/><path class="d" d="M1350.086,217.1A162.168,162.168,0,1,1,1187.919,54.927,162.167,162.167,0,0,1,1350.086,217.1Z" transform="translate(-1025.75 -45.329)"/><path class="e" d="M1187.919,229.165a162.214,162.214,0,0,1-158.658-128.547,162.166,162.166,0,1,0,317.317,0A162.215,162.215,0,0,1,1187.919,229.165Z" transform="translate(-1025.75 37.526)"/><path class="f" d="M1092.734,83.686c2.746,6.595-2.934,15.235-12.7,19.3s-19.9,2.009-22.645-4.586,2.94-15.24,12.7-19.305S1089.986,77.089,1092.734,83.686Z" transform="translate(-969.62 -5.282)"/><path class="f" d="M1056.968,108.863c-4.138-9.94,4.426-22.966,19.137-29.09,10.874-4.527,22.052-4,28.815.594-6.2-6.5-18.965-7.9-31.347-2.743-14.711,6.119-23.278,19.145-19.137,29.088a14.3,14.3,0,0,0,5.309,6.319A13.665,13.665,0,0,1,1056.968,108.863Z" transform="translate(-975.622 -9.862)"/><path class="e" d="M1092.491,81.952a9.353,9.353,0,0,0-3.216-3.984c1.871,6.457-3.711,14.483-13.009,18.355-7.383,3.075-14.976,2.645-19.429-.6.093.315.189.63.312.942,2.749,6.595,12.885,8.648,22.645,4.586S1095.237,88.546,1092.491,81.952Z" transform="translate(-969.377 -3.547)"/><path class="f" d="M1105.793,69.882c.436,3.936-4.915,7.757-11.948,8.533s-13.088-1.781-13.521-5.717,4.912-7.757,11.946-8.533S1105.358,65.946,1105.793,69.882Z" transform="translate(-926.831 -28.83)"/><path class="f" d="M1104.115,94.054c-3.12-1.8-3.725-6.654-1.637-11.29a14.81,14.81,0,0,0-.855,1.274c-2.9,5.019-2.468,10.691.962,12.669s8.558-.481,11.453-5.5c.264-.456.464-.917.675-1.379C1111.739,93.956,1107.235,95.855,1104.115,94.054Z" transform="translate(-891.647 5.15)"/><path class="e" d="M1080.448,77.482c-.7-6.3,7.864-12.415,19.126-13.662a31.8,31.8,0,0,1,12.88,1.063c-4-1.964-9.619-2.858-15.716-2.189-11.259,1.249-19.823,7.36-19.123,13.662.4,3.632,3.807,6.527,8.764,8.089C1082.991,82.791,1080.766,80.369,1080.448,77.482Z" transform="translate(-931.772 -31.642)"/><path class="e" d="M1102.14,69.877c-.371-3.4-4.96-5.773-10.741-5.849,3.188.962,5.385,2.794,5.641,5.1.433,3.933-4.915,7.757-11.948,8.536a22.256,22.256,0,0,1-2.777.129,19.913,19.913,0,0,0,7.878.613C1097.225,77.634,1102.576,73.813,1102.14,69.877Z" transform="translate(-923.177 -28.826)"/><path class="f" d="M1057.5,101.139c6.06,3.784,6.507,13.994,1,22.805s-14.877,12.88-20.934,9.09-6.516-14-1.01-22.805S1051.435,97.352,1057.5,101.139Z" transform="translate(-1013.134 35.903)"/><path class="e" d="M1049.189,100.393c6.462,4.043,7.824,13.9,3.857,23.557,5.537-9.7,4.845-20.583-1.761-24.71-3.424-2.138-7.782-2.059-12.061-.205A13.007,13.007,0,0,1,1049.189,100.393Z" transform="translate(-1001.317 32.125)"/><path class="e" d="M1039.955,132.617c-8.305-5.182-9.481-18.506-3.171-30.8-.672.9-1.328,1.832-1.941,2.813-8.154,13.048-7.489,28.173,1.491,33.786s22.862-.422,31.018-13.47c.613-.982,1.162-1.981,1.677-2.982C1060.743,133.028,1048.255,137.808,1039.955,132.617Z" transform="translate(-1019.606 39.699)"/><path class="e" d="M1056.389,101.139c-6.063-3.787-15.437.281-20.94,9.09a27.033,27.033,0,0,0-2.13,4.212c5.515-6.108,12.973-8.522,18.082-5.326s6.218,10.958,3.14,18.591a26.5,26.5,0,0,0,2.853-3.762C1062.9,115.133,1062.449,104.923,1056.389,101.139Z" transform="translate(-1012.025 35.903)"/><path class="f" d="M1083.383,126.4c13.124,8.2,18.329,23.548,11.627,34.278s-22.78,12.776-35.907,4.575-18.332-23.548-11.628-34.278S1070.258,118.2,1083.383,126.4Z" transform="translate(-991.661 75.165)"/><path class="e" d="M1047.472,146.028c6.7-10.73,22.783-12.781,35.907-4.577a31.419,31.419,0,0,1,13.189,16.036c4.043-10.4-1.314-23.663-13.189-31.085-13.125-8.2-29.2-6.156-35.907,4.575-3.379,5.407-3.725,11.991-1.564,18.242A19.281,19.281,0,0,1,1047.472,146.028Z" transform="translate(-991.657 75.165)"/><path class="e" d="M1116.5,131.973a27.953,27.953,0,0,1-3.618,15.378c-9.04,15.657-31.893,19.384-51.044,8.325-10.5-6.063-17.676-15.308-20.557-25.005.56,12.4,8.567,25.27,21.93,32.987,19.154,11.057,42,7.332,51.046-8.322C1118.337,148.262,1118.872,139.965,1116.5,131.973Z" transform="translate(-997.592 92.022)"/><path class="e" d="M1063.949,162.077c5.14-8.226,18.813-8.955,30.542-1.621,8.086,5.05,13.13,12.61,13.805,19.514.642-7.585-4.6-16.579-13.805-22.33-11.729-7.329-25.4-6.6-30.542,1.62a13.572,13.572,0,0,0-1.876,8.646A12.952,12.952,0,0,1,1063.949,162.077Z" transform="translate(-960.023 131.763)"/><path class="e" d="M1096.717,163.577a9.338,9.338,0,0,1-1.185,3.261c-3.784,6.054-13.853,6.586-22.485,1.193a22.965,22.965,0,0,1-8.969-9.971c-1.1,5.782,2.76,12.978,9.968,17.48,8.631,5.4,18.7,4.864,22.484-1.193C1098.448,171.275,1098.374,167.378,1096.717,163.577Z" transform="translate(-956.579 141.691)"/><path class="f" d="M1152.633,128.373c19.651,12.28,26.69,36.473,15.724,54.028s-35.8,21.829-55.449,9.549-26.694-36.47-15.727-54.026S1132.981,116.095,1152.633,128.373Z" transform="translate(-905.601 75.149)"/><path class="e" d="M1108.137,159.888c10.972-17.556,35.795-21.832,55.446-9.549A46.472,46.472,0,0,1,1173,158.11c-1.868-11.507-8.983-22.62-20.372-29.738-19.652-12.278-44.483-8-55.452,9.551-8.977,14.362-5.88,33.167,6.308,46.255A34.87,34.87,0,0,1,1108.137,159.888Z" transform="translate(-905.598 75.149)"/><path class="e" d="M1191.882,132.7a55.755,55.755,0,0,1-8.552,30.013c-15.9,25.439-48.54,33.716-72.909,18.49a50.762,50.762,0,0,1-22.648-32.478c.132,17.367,8.53,34.02,23.892,43.622,24.37,15.229,57.01,6.952,72.909-18.492A55.327,55.327,0,0,0,1191.882,132.7Z" transform="translate(-913.28 95.703)"/><path class="f" d="M1082.341,112.426c-1.136,3.278-5.917,4.591-10.677,2.937s-7.695-5.646-6.558-8.918,5.917-4.591,10.677-2.937S1083.48,109.157,1082.341,112.426Z" transform="translate(-954.827 41.47)"/><path class="e" d="M1085.305,104.316a6.9,6.9,0,0,1,.6,5.5c-1.542,4.44-8.015,6.218-14.469,3.978a15.8,15.8,0,0,1-7.039-4.724,14.654,14.654,0,0,0,8.285,6.592c6.448,2.239,12.93.459,14.469-3.978C1087.984,109.29,1087.2,106.626,1085.305,104.316Z" transform="translate(-955.664 44.232)"/><path class="e" d="M1067.343,108.766c1.14-3.275,5.919-4.589,10.677-2.934a12.384,12.384,0,0,1,3.43,1.829,11.212,11.212,0,0,0-5.669-4.153c-4.76-1.654-9.537-.34-10.677,2.937-.824,2.377.518,5.129,3.131,7.093A5.378,5.378,0,0,1,1067.343,108.766Z" transform="translate(-954.825 41.47)"/><path class="e" d="M1102.321,102.522a8.062,8.062,0,0,0-8.721,1.848,9.249,9.249,0,0,1,4.574.4c4.22,1.463,6.654,5.511,5.427,9.037a5.766,5.766,0,0,1-1.063,1.851,6.524,6.524,0,0,0,5.21-4.1C1108.971,108.03,1106.541,103.987,1102.321,102.522Z" transform="translate(-902.713 40.023)"/><path class="e" d="M1105.959,121.135c-8.628-2.369-14.016-10.131-12.038-17.336a11.582,11.582,0,0,1,1.652-3.466,12.02,12.02,0,0,0-4.884,6.7c-1.983,7.205,3.4,14.967,12.03,17.339,7.084,1.944,14.087-.391,17.485-5.264A17.268,17.268,0,0,1,1105.959,121.135Z" transform="translate(-908.737 37.009)"/><path class="e" d="M1132.308,106.581a5.668,5.668,0,0,1-1.238,3.837c-1.778,2.265-4.752,2.9-6.645,1.409a3.644,3.644,0,0,1-.886-1.007,3.927,3.927,0,0,0,1.415,2.8c1.891,1.483,4.867.85,6.646-1.41A5.182,5.182,0,0,0,1132.308,106.581Z" transform="translate(-848.421 48.34)"/><path class="e" d="M1102.749,84.716c2.571-1.637,5.762-1.218,7.129.928a4.247,4.247,0,0,1,.388,3.587,4.682,4.682,0,0,0,.563-5.382c-1.367-2.147-4.56-2.566-7.132-.928a6,6,0,0,0-2.518,3.255A6.256,6.256,0,0,1,1102.749,84.716Z" transform="translate(-888.968 3.623)"/><path class="e" d="M1132.413,92.311c-.757-2.431-3.731-3.66-6.64-2.749a6.137,6.137,0,0,0-2.982,2.031,6.327,6.327,0,0,1,1.787-.909c2.906-.909,5.883.321,6.642,2.752a4.35,4.35,0,0,1-.917,4.032A4.708,4.708,0,0,0,1132.413,92.311Z" transform="translate(-849.777 16.932)"/><path class="e" d="M1106.182,76.484c.669-3.266,6.012-4.932,11.937-3.722a18.541,18.541,0,0,1,4.349,1.46,14.934,14.934,0,0,0-8.251-4.31c-5.928-1.21-11.271.456-11.937,3.722-.487,2.394,1.688,4.966,5.2,6.654A4.53,4.53,0,0,1,1106.182,76.484Z" transform="translate(-887.095 -18.871)"/><g transform="translate(9.181 224.858)"><g transform="translate(0.941)"><path class="e" d="M1045.916,145.1c-4.42-9.264-11.293-15.26-15.3-13.29a3.937,3.937,0,0,0-1.269,1.227c2.67.917,8.094,6.189,12.007,14.39,3.767,7.892,3.269,15.223,2.549,18.118a3.5,3.5,0,0,0,2.721-.188C1050.656,163.44,1050.339,154.369,1045.916,145.1Z" transform="translate(-1029.348 -131.44)"/></g><path class="b" d="M1041.895,146.359c4.282,8.972,5.916,17.128,3.649,18.208s-7.576-5.315-11.859-14.289-5.916-17.125-3.652-18.205S1037.613,137.388,1041.895,146.359Z" transform="translate(-1029.013 -130.508)"/><path class="e" d="M1039.627,138.7c-.417-.875-.853-1.7-1.283-2.524,3.387,7.9,4.541,14.644,2.493,15.623s-6.561-4.158-10.573-11.763c.363.852.737,1.708,1.156,2.583,4.279,8.975,9.588,15.372,11.855,14.289S1043.909,147.673,1039.627,138.7Z" transform="translate(-1026.746 -122.85)"/></g><path class="e" d="M1133.11,99.681c-4.4,1.426-8.955-.473-10.182-4.243a6.793,6.793,0,0,1,1.193-6.15,7.239,7.239,0,0,0-2.791,7.838c1.221,3.77,5.779,5.669,10.176,4.245a9.185,9.185,0,0,0,4.558-3.264A9.527,9.527,0,0,1,1133.11,99.681Z" transform="translate(-852.978 16.981)"/></g></g><g transform="matrix(0.799, -0.602, 0.602, 0.799, 1588.371, 286.975)"><g transform="translate(191.665 72.226)"><path class="g" d="M124.932,122.154a2,2,0,0,0,2.8-.393l2.321-3.078a13.623,13.623,0,0,0-2.68-19.08h0a13.623,13.623,0,0,0-19.08,2.68l-2.321,3.078a2,2,0,0,0,.393,2.8Z" transform="translate(-92.021 -41.199)"/><path class="h" d="M127.109,118.315l-20.834-15.7a1.736,1.736,0,0,1-.341-2.429h0a1.736,1.736,0,0,1,2.429-.341l20.834,15.7a1.736,1.736,0,0,1,.341,2.429h0A1.732,1.732,0,0,1,127.109,118.315Z" transform="translate(-92.001 -37.877)"/><rect class="i" width="55.101" height="32.037" transform="translate(20.374 52.277) rotate(-52.996)"/><path class="h" d="M150.931,79.129a5.984,5.984,0,0,0-8.381-6.318L123.267,80.5l12.792,9.644,12.794,9.64Z" transform="translate(-69.73 -72.226)"/><path class="h" d="M138.949,118.476a1.953,1.953,0,0,1-2.734.384L107.931,97.545a1.952,1.952,0,0,1-.382-2.734h0a1.952,1.952,0,0,1,2.732-.384l28.284,21.315a1.955,1.955,0,0,1,.384,2.734Z" transform="translate(-90.024 -44.756)"/><path class="h" d="M138.906,100.277a11.275,11.275,0,1,1-2.217-15.79A11.274,11.274,0,0,1,138.906,100.277Z" transform="translate(-75.577 -59.644)"/><rect class="h" width="3.47" height="32.036" transform="matrix(0.602, -0.799, 0.799, 0.602, 24.195, 47.209)"/><g transform="translate(0 27.583)"><path class="g" d="M138.341,84.433,118.518,86.6a10.062,10.062,0,0,0-6.86,4.061l-11.91,15.8,17.4-4.8a8.473,8.473,0,0,1,6.869,1.783Z" transform="translate(-99.356 -84.433)"/><path class="h" d="M100.971,109.811h0a3.507,3.507,0,0,1-.691-4.91L112.248,89.02a10.962,10.962,0,0,1,7.12-3.681Z" transform="translate(-99.574 -83.292)"/><g transform="translate(17.411 0.802)"><path class="h" d="M119.576,85l-12.3,16.314.382-.1a6.713,6.713,0,0,1,1.561-.131L121.5,84.788Z" transform="translate(-107.279 -84.788)"/></g></g><g transform="translate(49.434 46.864)"><path class="g" d="M136.132,92.966l3.383,19.654a10.06,10.06,0,0,1-2.013,7.714l-11.908,15.8-.176-18.052a8.484,8.484,0,0,0-3.606-6.112Z" transform="translate(-120.998 -92.966)"/><path class="h" d="M121.451,125.807h0a3.506,3.506,0,0,0,4.91-.689l11.969-15.881a10.965,10.965,0,0,0,1.577-7.857Z" transform="translate(-121.451 -82.366)"/><g transform="translate(4.099 7.231)"><path class="h" d="M135.546,96.166l-12.281,16.3a6.843,6.843,0,0,1,.321,1.591l0,.319,12.283-16.3Z" transform="translate(-123.265 -96.166)"/></g></g><path class="j" d="M136.319,96.547a8.9,8.9,0,1,1-1.979-11.16A8.9,8.9,0,0,1,136.319,96.547Z" transform="translate(-74.258 -58.315)"/><path class="k" d="M124.269,84.191c.212.045.425.1.633.167" transform="translate(-68.467 -57.155)"/><path class="k" d="M121.766,85.509a6.988,6.988,0,0,1,4.7-1.369" transform="translate(-71.62 -57.244)"/></g></g></g></svg>