<svg xmlns="http://www.w3.org/2000/svg" width="456.643" height="370.166" viewBox="0 0 456.643 370.166"><defs><style>.a,.h,.i{fill:none;stroke-miterlimit:10;}.a{stroke:#ddd;stroke-width:2px;}.b{fill:#f4f2ed;}.c,.g{fill:#230753;}.c,.f{opacity:0.1;mix-blend-mode:multiply;isolation:isolate;}.d{fill:#ddd;}.e{fill:#ff0e00;}.h{stroke:#ff0e00;}.i{stroke:#72727c;}.j{fill:#72727c;}.k{fill:#00b8e2;}.l{fill:#040028;}.m{fill:#fff;}.n{fill:#cfcfcf;}.o{fill:#00add4;}.p{fill:#b5052f;}.q{fill:#ce0636;}</style></defs><g transform="translate(-444.591 -620.895) rotate(30)"><path class="a" d="M791.715,394.621s66.221-68.384,118.445-25.093,84.363,108.662,167.314,89.88,102.651-107.9,84.064-143.68" transform="translate(4.191 3.414)"/><g transform="translate(1128.866 268.036)"><path class="b" d="M1153.157,308.9l-29.908-18.562a5.543,5.543,0,0,0-7.637,1.786l-5.241,8.442a5.547,5.547,0,0,0,1.788,7.638l29.906,18.564Z" transform="translate(-1101.927 -266.5)"/><path class="c" d="M1113.945,294.962a5.542,5.542,0,0,1,7.636-1.786l29.822,18.509,1.729-2.786-29.908-18.562a5.543,5.543,0,0,0-7.637,1.786l-5.241,8.442a5.5,5.5,0,0,0-.448.914Z" transform="translate(-1101.902 -266.5)"/><path class="d" d="M1145.289,316.781h0l-5.393,8.689,10.615,2,3.337-5.38h0l3.339-5.379-6.2-9.113Z" transform="translate(-1099.755 -265.204)"/><rect class="e" width="12.645" height="3.24" transform="matrix(0.527, -0.85, 0.85, 0.527, 50.754, 62.27)"/><path class="d" d="M1166.594,319.263l-7.552-1.553-3.174,5.113-.161.258-3.338,5.379,4.745,6.077,4.738-7.632-.159-.11.162.1Z" transform="translate(-1098.862 -264.481)"/><g class="f" transform="translate(40.14 42.399)"><path class="g" d="M1143.574,319.562h0l5.7-9.178,6.149,9.036,2.8,1.8,0-.006,7.543,1.552,1.724-2.777-7.552-1.553,0,.005-2.8-1.8-6.149-9.037-5.7,9.179h0l-5.393,8.689h.009Z" transform="translate(-1139.894 -307.603)"/><path class="g" d="M1159.47,328.782l.15.1.005-.006Z" transform="translate(-1138.493 -306.087)"/></g><path class="e" d="M1127.741,290.866a1.408,1.408,0,0,1,.454,1.937l-11.765,18.954a1.406,1.406,0,0,1-1.936.453h0a1.408,1.408,0,0,1-.454-1.937l11.766-18.953a1.4,1.4,0,0,1,1.935-.454Z" transform="translate(-1101.62 -266.417)"/><path class="c" d="M1127.672,290.865a1.391,1.391,0,0,0-1.431-.009,1.359,1.359,0,0,1,.375.139,1.4,1.4,0,0,1,.452,1.936L1115.3,311.887a1.383,1.383,0,0,1-.5.464,1.392,1.392,0,0,0,1.562-.594l11.765-18.954A1.408,1.408,0,0,0,1127.672,290.865Z" transform="translate(-1101.551 -266.416)"/><g transform="translate(0 50.441)"><path class="h" d="M1136.573,326.756a.49.49,0,0,1,.214.652L1122,351.223a.488.488,0,0,1-.677.1l-18.619-11.556a.49.49,0,0,1-.216-.652l14.784-23.815a.485.485,0,0,1,.679-.1Z" transform="translate(-1102.436 -315.108)"/><g transform="translate(2.416 1.987)"><g transform="translate(0.911)"><line class="h" y1="24.564" x2="15.247"/><line class="h" y1="24.563" x2="15.246" transform="translate(3.871 2.404)"/><line class="h" y1="24.564" x2="15.248" transform="translate(7.739 4.804)"/><line class="h" y1="24.565" x2="15.247" transform="translate(11.61 7.206)"/></g><g transform="translate(0 1.868)"><line class="h" x2="19.512" y2="12.111" transform="translate(0 16.349)"/><line class="h" x2="19.512" y2="12.111" transform="translate(2.538 12.262)"/><line class="h" x2="19.514" y2="12.111" transform="translate(5.073 8.174)"/><line class="h" x2="19.512" y2="12.112" transform="translate(7.612 4.085)"/><line class="h" x2="19.513" y2="12.109" transform="translate(10.149)"/></g></g><line class="h" y1="4.007" x2="2.486" transform="translate(23.951 1.319)"/></g><g transform="translate(31.31)"><path class="h" d="M1150.542,304.248a.49.49,0,0,0,.679-.1l14.784-23.819a.485.485,0,0,0-.216-.647l-18.618-11.558a.491.491,0,0,0-.678.094l-14.782,23.818a.489.489,0,0,0,.213.653Z" transform="translate(-1131.654 -268.036)"/><g transform="translate(2.332 1.988)"><g transform="translate(0.993)"><line class="h" x1="15.246" y2="24.563"/><line class="h" x1="15.244" y2="24.565" transform="translate(3.871 2.401)"/><line class="h" x1="15.247" y2="24.563" transform="translate(7.74 4.804)"/><line class="h" x1="15.247" y2="24.563" transform="translate(11.609 7.207)"/></g><g transform="translate(0 1.999)"><line class="h" x2="19.511" y2="12.112" transform="translate(10.149)"/><line class="h" x2="19.512" y2="12.111" transform="translate(7.611 4.088)"/><line class="h" x2="19.514" y2="12.11" transform="translate(5.072 8.177)"/><line class="h" x2="19.513" y2="12.111" transform="translate(2.536 12.264)"/><line class="h" x2="19.51" y2="12.111" transform="translate(0 16.352)"/></g></g><line class="h" x1="2.486" y2="4.004" transform="translate(6.218 29.889)"/></g><line class="i" x2="5.807" y2="3.602" transform="translate(62.993 62.417)"/><path class="e" d="M1167.215,327.92a1.784,1.784,0,1,1-2.457.574A1.785,1.785,0,0,1,1167.215,327.92Z" transform="translate(-1097.994 -263.769)"/><path class="c" d="M1167.139,327.92a1.779,1.779,0,0,0-1.414-.2,1.707,1.707,0,0,1,.295.145,1.779,1.779,0,0,1-.467,3.231,1.783,1.783,0,0,0,1.587-3.176Z" transform="translate(-1097.918 -263.769)"/><path class="j" d="M1131.3,315.072a.6.6,0,0,1,.2.829h0a.6.6,0,0,1-.83.194l-10.215-6.342a.6.6,0,0,1-.2-.829h0a.6.6,0,0,1,.829-.194Z" transform="translate(-1101.167 -265.13)"/></g><g transform="translate(733.154 293.345)"><path class="k" d="M759.961,369.115s-11.578-1.24-10.414-14.42l-4.777-4.348s-5.011,9.976,2.616,18.88,15.8,5.535,15.8,5.535Z" transform="translate(-732.438 -287.453)"/><path class="c" d="M744.77,350.346l.84.764a17.426,17.426,0,0,0,3.467,16.574c5.166,6.028,10.568,6.425,13.523,6.055l.582,1.021s-8.162,3.371-15.8-5.535S744.77,350.346,744.77,350.346Z" transform="translate(-732.438 -287.453)"/><path class="d" d="M787.241,409.038a14.456,14.456,0,0,0,20.367,1.777l12.926-10.849a14.455,14.455,0,0,0,1.779-20.368l-26.754-31.861a14.446,14.446,0,0,0-20.36-1.781L762.27,356.81a14.455,14.455,0,0,0-1.777,20.367Z" transform="translate(-731.439 -288.01)"/><path class="c" d="M758.485,360.469a14.424,14.424,0,0,0,3.159,11.827l26.747,31.861a14.46,14.46,0,0,0,20.37,1.777l12.924-10.848a14.408,14.408,0,0,0,3.785-4.943,14.4,14.4,0,0,1-4.936,8.543l-12.926,10.849a14.456,14.456,0,0,1-20.367-1.777L760.492,375.9A14.447,14.447,0,0,1,758.485,360.469Z" transform="translate(-731.439 -286.729)"/><path class="d" d="M733.772,322.617c-1.545,18.723,13.95,35.285,34.6,36.99s38.648-12.1,40.189-30.818S794.616,293.5,773.966,291.8,735.317,303.891,733.772,322.617Z" transform="translate(-733.117 -291.654)"/><path class="l" d="M740.037,327.143c-1.445,17.5,12.056,32.9,30.154,34.388s33.939-11.483,35.381-28.98-12.058-32.9-30.155-34.389S741.479,309.644,740.037,327.143Z" transform="translate(-732.669 -291.197)"/><path class="m" d="M801.205,346.13c-6.509,12.242-20.31,21.153-40.77,16.609-19.461-4.324-28.751-18.785-27.093-38.89a37.661,37.661,0,0,1,5.346-16.513s-7.117,39.128,23.7,46.331C790.456,360.232,801.205,346.13,801.205,346.13Z" transform="translate(-733.154 -290.532)"/><g transform="translate(2.145 54.337)"><path class="d" d="M747.066,354.65l2.106-2.83c1.244-1.725-.361-5.009-3.583-7.337s-6.841-2.813-8.086-1.089l-1.953,2.649Z" transform="translate(-735.127 -342.362)"/><path class="m" d="M735.577,345.866c-1.244,1.724.359,5.011,3.58,7.337s6.846,2.815,8.091,1.088-.357-5.01-3.584-7.334S736.823,344.14,735.577,345.866Z" transform="translate(-735.156 -342.185)"/></g><path class="m" d="M788.716,308.525s-3.814-4.74-12.53-6.367c0,0-6.84-1.418-7.057.992,0,0-.64,2.724,4.967,2.316C774.1,305.466,782.794,304.7,788.716,308.525Z" transform="translate(-730.581 -290.932)"/><g transform="translate(83.808 26.395)"><g transform="translate(26.054)"><path class="m" d="M839.977,324.692a8.176,8.176,0,0,0-3.333,11.075l1.945,3.679a8.172,8.172,0,0,0,11.02,3.5h0a8.177,8.177,0,0,0,3.327-11.076l-1.942-3.679a8.173,8.173,0,0,0-11.018-3.5Z" transform="translate(-835.678 -315.751)"/><path class="m" d="M849.528,330.6a2.689,2.689,0,0,0-1.488,3.508h0a2.691,2.691,0,0,0,3.507,1.486l7.5-3.033a2.689,2.689,0,0,0,1.493-3.508h0a2.693,2.693,0,0,0-3.509-1.49Z" transform="translate(-834.807 -315.493)"/><path class="m" d="M848.018,326.082a2.839,2.839,0,0,0-1.01,3.879h0a2.845,2.845,0,0,0,3.951.641l7.45-4.849a2.839,2.839,0,0,0,1.012-3.877h0a2.834,2.834,0,0,0-3.953-.64Z" transform="translate(-834.896 -315.969)"/><path class="m" d="M843.055,324.635a2.838,2.838,0,0,0,.378,3.987h0a2.835,2.835,0,0,0,3.931-.744l5.345-7.1a2.838,2.838,0,0,0-.369-3.991h0a2.84,2.84,0,0,0-3.939.747Z" transform="translate(-835.196 -316.286)"/><path class="m" d="M837.905,328.752a2.639,2.639,0,0,0,2.372,2.881h0a2.64,2.64,0,0,0,2.984-2.234l.926-7.682a2.638,2.638,0,0,0-2.366-2.887h0a2.641,2.641,0,0,0-2.988,2.236Z" transform="translate(-835.52 -316.105)"/><path class="m" d="M848.309,334.186a2.647,2.647,0,0,0-2.693,2.589h0a2.64,2.64,0,0,0,2.456,2.8l7.728.336a2.631,2.631,0,0,0,2.7-2.574h0a2.636,2.636,0,0,0-2.452-2.808Z" transform="translate(-834.967 -315.005)"/></g><g class="f" transform="translate(29.372 0.567)"><path class="g" d="M848.216,326.155l3.383-6.318c.565-1.2.811-2.1.392-3.022a2.839,2.839,0,0,1,.3,3.926l-4.077,5.414Z" transform="translate(-838.098 -316.815)"/><path class="g" d="M843.635,323.684l-.452-2.887c-.052-.614-.228-1.591-.931-1.786,2.494.989,1.433,3.852,1.383,4.673Z" transform="translate(-838.525 -316.658)"/><path class="g" d="M848.695,341.233a7.948,7.948,0,0,0,2.8-2.467l4.105.179a2.631,2.631,0,0,0,2.7-2.573,2.764,2.764,0,0,0-.278-1.315,2.719,2.719,0,0,1,.968,2.22,2.63,2.63,0,0,1-2.695,2.574l-4.1-.18a7.941,7.941,0,0,1-2.8,2.466,8.157,8.157,0,0,1-10.614-2.815A8.134,8.134,0,0,0,848.695,341.233Z" transform="translate(-838.774 -315.509)"/><path class="g" d="M850.954,330.362h0l6.448-5.556c1.208-1.227,1.726-2.316,1.191-3.524a2.555,2.555,0,0,1,.516.554,2.839,2.839,0,0,1-1.012,3.877Z" transform="translate(-837.902 -316.495)"/><path class="g" d="M854.835,334.075s-1.937.785-1.943.785h0l5.1-3.249c1.316-.881,2.048-2.13,1.492-3.512-.021-.044-.05-.085-.07-.13a2.631,2.631,0,0,1,.761,1.036,2.689,2.689,0,0,1-1.493,3.508Z" transform="translate(-837.763 -316.017)"/></g><path class="m" d="M840.634,345.241s-21.613,15.362-29.27,8.848l.888-18.6s9.371,2.076,21.107-4.345c0,0-.673,1.007,3.971,8.976Z" transform="translate(-811.364 -315.222)"/><g transform="translate(0 15.924)"><path class="c" d="M838.84,341.7l1.794,2.784s-21.613,15.362-29.27,8.848l.12-2.454C819.058,354.642,835.357,344.065,838.84,341.7Z" transform="translate(-811.364 -330.39)"/><path class="m" d="M831.751,331.221c.054-.029.1-.046.149-.075a.658.658,0,0,0-.027.341C831.832,331.4,831.791,331.3,831.751,331.221Z" transform="translate(-809.905 -331.146)"/></g><path class="k" d="M833.172,329.521a3.116,3.116,0,0,0-.889,4.295l5.734,10.31a3.124,3.124,0,0,0,4.118,1.506h0a3.117,3.117,0,0,0,.895-4.295l-5.74-10.315a3.122,3.122,0,0,0-4.117-1.5Z" transform="translate(-809.901 -315.361)"/><path class="c" d="M840.361,345.722a3.118,3.118,0,0,0,.893-4.295l-5.737-10.313a3.521,3.521,0,0,0-2.168-1.712,3.171,3.171,0,0,1,3.83,1.618l5.74,10.315a3.117,3.117,0,0,1-.895,4.295,2.651,2.651,0,0,1-1.95.211C840.171,345.8,840.267,345.773,840.361,345.722Z" transform="translate(-809.79 -315.36)"/></g><path class="m" d="M806.013,332.043s-2.6-1.352-6.874.193-19.929,7.3-19.929,7.3a14.8,14.8,0,0,0-7.749,7.109c-2.865,5.534-8.625,15.168-8.625,15.168a5.132,5.132,0,0,0,.691,5.741C765.893,370.5,786.7,393.67,786.7,393.67s3.76,3.142,3.4,6.539a2.63,2.63,0,0,0,2.794,3.213s2.347-.478,2.546,2.519,11.131,17.658,18.52,9.377,29.851-31.347,29.851-31.347,4.261-4.231-.708-9-5.967-1.279-6.388-7.01c0,0-.079-3.1-2.322-3.5s-1.291-1.9-1.291-1.9a2.613,2.613,0,0,0,.01-3.313c-1.4-1.566,1.357-4.695-4.3-5.156Z" transform="translate(-731.07 -288.803)"/><g class="f" transform="translate(31.191 42.692)"><path class="g" d="M833.106,362.564a1.364,1.364,0,0,0-.1.214c-.508-1.657,1.02-4.126-3.957-4.53l-22.8-22.054s-2.607-1.35-6.874.195-19.929,7.3-19.929,7.3a14.794,14.794,0,0,0-7.749,7.108c-2.866,5.536-8.626,15.17-8.626,15.17a3.572,3.572,0,0,0-.238.516,5.055,5.055,0,0,1,.005-4.67s5.76-9.635,8.625-15.168a14.8,14.8,0,0,1,7.749-7.109s15.671-5.746,19.929-7.3,6.874-.193,6.874-.193l22.8,22.052c5.658.462,2.9,3.591,4.3,5.156A2.613,2.613,0,0,1,833.106,362.564Z" transform="translate(-762.262 -331.495)"/><path class="g" d="M838.605,376.935c-4.971-4.769-5.964-1.278-6.387-7.009,0,0-.079-3.1-2.322-3.5s-1.291-1.9-1.291-1.9a2.936,2.936,0,0,0,.513-2.4,3.521,3.521,0,0,0,.544.146c2.243.406,2.322,3.5,2.322,3.5.421,5.731,1.417,2.242,6.388,7.01,2.684,2.572,2.671,4.984,2.1,6.663A8.435,8.435,0,0,0,838.605,376.935Z" transform="translate(-757.528 -329.303)"/></g><path class="n" d="M791.434,341.562l-1.456,7.65a3.929,3.929,0,0,0,.751,2.93l13.8,19.956c1.247,1.676,3.073,1.642,5.037.963l18.465-7.766a3.369,3.369,0,0,0,1.321-2.884l.664-5.19" transform="translate(-729.09 -288.082)"/><path class="n" d="M792.766,367.964c-1.135,1.12-.784,3.31.777,4.895s3.749,1.956,4.887.836.779-3.31-.78-4.891S793.9,366.846,792.766,367.964Z" transform="translate(-728.935 -286.238)"/><path class="n" d="M785.3,355.446c-.948.933-.649,2.764.647,4.081s3.129,1.634,4.073.7.653-2.76-.649-4.076S786.251,354.517,785.3,355.446Z" transform="translate(-729.461 -287.126)"/><path class="c" d="M797.367,369.674c-1.565-1.582-3.75-1.959-4.886-.841a2.208,2.208,0,0,0-.338.443,2.242,2.242,0,0,1,.62-1.312c1.134-1.118,3.32-.74,4.884.84,1.376,1.393,1.807,3.261,1.114,4.452A4.428,4.428,0,0,0,797.367,369.674Z" transform="translate(-728.932 -286.238)"/><path class="c" d="M789.091,357.02c-1.3-1.319-3.123-1.634-4.069-.7a1.689,1.689,0,0,0-.251.327,1.908,1.908,0,0,1,.53-1.2c.948-.929,2.768-.615,4.071.705,1.164,1.178,1.516,2.761.9,3.747A3.741,3.741,0,0,0,789.091,357.02Z" transform="translate(-729.459 -287.126)"/><path class="d" d="M807.023,365.648c1.121,1.5,2.781,1.521,4.387.972l17.382-6.881a3.188,3.188,0,0,0,.323-4.475l-15.137-20.349a3.254,3.254,0,0,0-4.378-.972l-17.385,6.882a3.187,3.187,0,0,0-.333,4.476Z" transform="translate(-729.004 -288.659)"/><path class="d" d="M794.9,369.22a1.9,1.9,0,0,0,.129,2.694h0a1.9,1.9,0,0,0,2.685,0l5.685-5.934a1.908,1.908,0,0,0-.126-2.7h0a1.9,1.9,0,0,0-2.694,0Z" transform="translate(-728.77 -286.567)"/><path class="c" d="M794.9,369.22l5.678-5.933a1.9,1.9,0,0,1,2.694,0,2.026,2.026,0,0,1,.45.637,1.887,1.887,0,0,0-2.5.154l-5.676,5.937a1.85,1.85,0,0,0-.325,2.052,1.84,1.84,0,0,1-.2-.153A1.9,1.9,0,0,1,794.9,369.22Z" transform="translate(-728.77 -286.567)"/><path class="l" d="M801.463,350.27a1.972,1.972,0,0,0,2.769.251l10.633-4.365a1.973,1.973,0,0,0,.6-2.716l-4.118-5.643c-.6-.821-1.425-.862-2.772-.254l-10.63,4.366a1.974,1.974,0,0,0-.6,2.716Z" transform="translate(-728.582 -288.399)"/><g transform="translate(60.926 98.482)"><path class="m" d="M827.562,400.566s1.275-1.911-2.973-6.362-14.8-21.11-34.58-.766l27.254,22.733s3.081,1.439,4.83-.8S827.562,400.566,827.562,400.566Z" transform="translate(-790.01 -383.558)"/><g transform="translate(18.786 0.315)"><path class="k" d="M815.734,396.1l-6.521-4.764a4.519,4.519,0,0,1-.7-6.341,5.166,5.166,0,0,1,1.176-1.14c6.3,1.358,10.491,6.782,12.99,9.611a5.231,5.231,0,0,1-.691,1.364A4.525,4.525,0,0,1,815.734,396.1Z" transform="translate(-807.541 -383.852)"/></g><path class="c" d="M826.033,403.981s1.275-1.913-2.971-6.362c-4.06-4.247-14.951-20.512-33.052-4.181h0c19.781-20.344,30.329-3.682,34.58.766s2.973,6.362,2.973,6.362.312.289-1.529,3.415Z" transform="translate(-790.01 -383.558)"/><path class="k" d="M847.271,424.356s-4.118,2.97-13.589-4.128c0,0-6.968-5.217-13.306-4.587,0,0-2.8.871-2.752-2.367s7.055-14.39,7.055-14.39.477-1.3,3.253-.14a29.3,29.3,0,0,1,11.863,7.781s1.075-1.677,4.647-9.091,8.056-1.548,8.056-1.548Z" transform="translate(-788.034 -382.833)"/><path class="k" d="M847.271,424.356s-4.118,2.97-13.589-4.128c0,0-6.968-5.217-13.306-4.587,0,0-2.8.871-2.752-2.367s7.055-14.39,7.055-14.39.477-1.3,3.253-.14a29.3,29.3,0,0,1,11.863,7.781s1.075-1.677,4.647-9.091,8.056-1.548,8.056-1.548Z" transform="translate(-788.034 -382.833)"/><g class="f" transform="translate(35.5 10.852)"><path class="g" d="M848.919,398.286s-3.007-3.933-6.059-1.285c3.536-6.742,7.834-1.118,7.834-1.118l-5.229,28.472a3.9,3.9,0,0,1-1.428.5Z" transform="translate(-821.727 -393.685)"/><path class="g" d="M837.627,408.618a29.378,29.378,0,0,0-11.868-7.782,3.712,3.712,0,0,0-2.62-.374c.685-1.147,1.147-1.885,1.147-1.885s.477-1.3,3.253-.14a29.459,29.459,0,0,1,11.567,7.467C838.02,408,837.627,408.618,837.627,408.618Z" transform="translate(-823.139 -393.379)"/></g><path class="d" d="M842.188,417.083c-.573,3.628.634,6.837,2.7,7.169h0c2.065.326,4.21-2.347,4.787-5.977l2.546-15.945c.572-3.628-.64-6.836-2.7-7.166h0c-2.068-.33-4.209,2.345-4.789,5.973Z" transform="translate(-786.286 -382.729)"/><path class="c" d="M851,397.328c-2.065-.333-4.208,2.34-4.787,5.971l-2.546,15.947a9.807,9.807,0,0,0,.3,4.6c-1.482-1.007-2.26-3.726-1.781-6.768l2.545-15.946c.58-3.628,2.721-6.3,4.789-5.973a3.413,3.413,0,0,1,2.406,2.562A2.285,2.285,0,0,0,851,397.328Z" transform="translate(-786.286 -382.729)"/></g><g transform="translate(25.43 70.086)"><g transform="translate(0 42.195)"><path class="m" d="M779.941,405.641a8.34,8.34,0,0,0-7.773-8.869l-4.234-.313a8.348,8.348,0,0,0-8.993,7.639h0a8.343,8.343,0,0,0,7.781,8.869l4.228.309a8.335,8.335,0,0,0,8.99-7.635Z" transform="translate(-756.74 -396.436)"/><path class="m" d="M768.768,410.542a2.752,2.752,0,0,0-2.235-3.184h0a2.746,2.746,0,0,0-3.183,2.23l-1.429,8.124a2.745,2.745,0,0,0,2.227,3.188h0a2.755,2.755,0,0,0,3.189-2.23Z" transform="translate(-756.528 -395.657)"/><path class="m" d="M773.5,411.751a2.885,2.885,0,0,0-2.806-2.963h0a2.89,2.89,0,0,0-2.691,3.066l.167,9.062a2.885,2.885,0,0,0,2.8,2.969h0a2.9,2.9,0,0,0,2.7-3.067Z" transform="translate(-756.089 -395.552)"/><path class="m" d="M777.573,408.336a2.9,2.9,0,0,0-3.653-1.831h0a2.884,2.884,0,0,0-1.48,3.8l3.248,8.464a2.893,2.893,0,0,0,3.65,1.835h0a2.887,2.887,0,0,0,1.481-3.8Z" transform="translate(-755.788 -395.727)"/><path class="m" d="M776.808,401.654a2.7,2.7,0,0,0-3.778.489h0a2.7,2.7,0,0,0,.317,3.791l6.142,4.953a2.685,2.685,0,0,0,3.772-.484h0a2.694,2.694,0,0,0-.315-3.791Z" transform="translate(-755.775 -396.102)"/><path class="m" d="M766.332,407.439a2.689,2.689,0,0,0-.775-3.725h0a2.69,2.69,0,0,0-3.754.607l-4.473,6.5a2.7,2.7,0,0,0,.776,3.725h0a2.687,2.687,0,0,0,3.755-.611Z" transform="translate(-756.885 -395.951)"/></g><g class="f" transform="translate(1.071 42.712)"><path class="g" d="M781.422,410.088a2.7,2.7,0,0,0-.314-3.793L777.03,403a8.326,8.326,0,0,0-4.682-6.084,8.352,8.352,0,0,1,6.527,6.7l4.075,3.294a2.752,2.752,0,0,1-3.457,4.276l-.079-.063A2.8,2.8,0,0,0,781.422,410.088Z" transform="translate(-756.85 -396.918)"/><path class="g" d="M777.195,419.795c1.42-.544,1.743-1.416,1.483-3.8l-1.058-6.951h0c.2.165-.231-.092,0,0l2.9,7.566a2.887,2.887,0,0,1-1.481,3.8,2.7,2.7,0,0,1-2.649-.466A2.419,2.419,0,0,0,777.195,419.795Z" transform="translate(-756.561 -396.052)"/><path class="g" d="M765.685,418.265l2.7-6.144-1.167,6.427a2.749,2.749,0,0,1-3.14,2.008,2.721,2.721,0,0,1-1.242-.579A3.314,3.314,0,0,0,765.685,418.265Z" transform="translate(-757.531 -395.83)"/><path class="g" d="M760.907,412.991l2.4-1.835-1.668,2.4a2.724,2.724,0,0,1-3.608.417c-.056-.038-.1-.086-.15-.125A3.879,3.879,0,0,0,760.907,412.991Z" transform="translate(-757.885 -395.899)"/><path class="g" d="M771.742,419.98l1.683-8.069h0l.161,8.684a2.9,2.9,0,0,1-2.7,3.067,2.577,2.577,0,0,1-1.713-.631C770.634,422.927,771.224,422.371,771.742,419.98Z" transform="translate(-757.077 -395.845)"/></g><path class="m" d="M775.5,396.223l-13.264.905s-3.491-4.428-2.689-21.98l.872-9.169a9.85,9.85,0,0,1,10.737-8.875h0a9.858,9.858,0,0,1,8.879,10.739S780.41,379.74,775.5,396.223Z" transform="translate(-756.704 -357.059)"/><path class="c" d="M775.174,368.677a9.859,9.859,0,0,0-8.878-10.74c-.177-.017-.353-.015-.529-.023a9.846,9.846,0,0,1,13.812,9.929s.377,11.9-4.536,28.38l-4.243.291C775.542,380.315,775.174,368.677,775.174,368.677Z" transform="translate(-756.25 -357.059)"/><g transform="translate(2.723 12.567)"><path class="k" d="M759.976,369.752a4.95,4.95,0,0,1,2.936-.965,4.523,4.523,0,0,1,4.72,4.292l.017,8.071a4.515,4.515,0,0,1-4.7,4.312,4.893,4.893,0,0,1-3.382-1.3,93.092,93.092,0,0,1-.025-9.853Z" transform="translate(-759.427 -368.787)"/></g><path class="k" d="M759.43,397.612a3.121,3.121,0,0,0,3.538,2.586l11.762-.971A3.115,3.115,0,0,0,777.8,396.1h0a3.119,3.119,0,0,0-3.539-2.59l-11.765.97a3.111,3.111,0,0,0-3.065,3.131Z" transform="translate(-756.704 -354.451)"/><path class="c" d="M776.777,397.367a3.117,3.117,0,0,0-3.537-2.588l-11.764.97a3.66,3.66,0,0,0-1.878.7,3.36,3.36,0,0,1,2.885-1.967l11.765-.97a3.119,3.119,0,0,1,3.539,2.59,2.757,2.757,0,0,1-1.19,2.422A2.483,2.483,0,0,0,776.777,397.367Z" transform="translate(-756.691 -354.451)"/></g><g transform="translate(90.857 78.072)"><path class="m" d="M864.6,374.826s-17.312-17.964-36.93-6.477c-7.073,4.139-9.727,6.768-9.727,6.768l8.98,16.639s17.651-4.431,29.81-.15c0,0,2.775.748,4.032-1.007Z" transform="translate(-817.942 -364.512)"/><g transform="translate(26.948 0.272)"><path class="k" d="M853.453,372.949l-7.607-2.7a4.461,4.461,0,0,1-2.579-5.48,35.145,35.145,0,0,1,15.164,6.4A4.357,4.357,0,0,1,853.453,372.949Z" transform="translate(-843.09 -364.766)"/></g><path class="c" d="M828.716,370.24c-5.326,2.453-9.336,3.724-10.774,4.878h0s2.653-2.629,9.727-6.768c19.617-11.487,36.93,6.477,36.93,6.477l-.712,2.925C860.744,374.812,845.94,362.294,828.716,370.24Z" transform="translate(-817.942 -364.512)"/><path class="k" d="M885.028,398.709s-4.119,2.968-13.589-4.126a23.169,23.169,0,0,0-12-2.476s-2.731.144-2.683-3.093,4.073-14.674,4.073-14.674.481-1.3,3.26-.139,8.776,1.6,13.461,6.674c0,0,1.078-1.676,4.651-9.091s8.057-1.544,8.057-1.544Z" transform="translate(-815.164 -364.26)"/><path class="c" d="M889.153,372.335s-4.482-5.869-8.056,1.546-3.8,8.517-3.8,8.517c-4.683-5.08-11.544-4.94-14.316-6.1-1.809-.755-2.633-.469-2.994-.179.368-1.087.609-1.779.609-1.779s.481-1.3,3.26-.139,8.776,1.6,13.461,6.674c0,0,1.078-1.676,4.651-9.091s8.057-1.544,8.057-1.544l-5.23,28.47a2.77,2.77,0,0,1-.537.26Z" transform="translate(-814.932 -364.26)"/><path class="d" d="M880.031,391.436c-.572,3.63.638,6.836,2.7,7.169h0c2.076.329,4.222-2.347,4.8-5.979l2.542-15.94c.579-3.635-.633-6.84-2.7-7.167h0c-2.07-.331-4.211,2.342-4.791,5.97Z" transform="translate(-813.508 -364.155)"/><path class="c" d="M888.66,371.866c-2.069-.332-4.21,2.342-4.791,5.972l-2.547,15.945a10.169,10.169,0,0,0,.177,4.181c-1.27-1.158-1.911-3.706-1.467-6.528l2.547-15.947c.58-3.627,2.721-6.3,4.791-5.97,1.188.188,2.082,1.351,2.525,2.986A2.393,2.393,0,0,0,888.66,371.866Z" transform="translate(-813.508 -364.155)"/></g><path class="d" d="M786.883,356.365a1.6,1.6,0,0,0,.105,2.249h0a1.6,1.6,0,0,0,2.246,0l4.73-4.952a1.582,1.582,0,0,0-.1-2.243h0a1.59,1.59,0,0,0-2.244,0Z" transform="translate(-729.338 -287.41)"/><path class="c" d="M794.147,352.4a1.585,1.585,0,0,0-2.244-.005l-4.733,4.948a1.5,1.5,0,0,0-.39.977,1.556,1.556,0,0,1,.1-1.955l4.733-4.949a1.59,1.59,0,0,1,2.244,0,1.636,1.636,0,0,1,.5,1.273A1.575,1.575,0,0,0,794.147,352.4Z" transform="translate(-729.337 -287.41)"/><g transform="translate(74.967 59.519)"><path class="o" d="M803.128,354.226a2.541,2.541,0,1,0,5.054.538l.029-.983-5.06-.192Z" transform="translate(-803.114 -346.74)"/><path class="k" d="M803.149,353.721a2.561,2.561,0,1,0,2.765-1.957A2.408,2.408,0,0,0,803.149,353.721Z" transform="translate(-803.112 -346.872)"/><path class="p" d="M810.069,360.189a1.985,1.985,0,1,0,3.947.423l.025-.768-3.952-.152Z" transform="translate(-802.617 -346.303)"/><path class="q" d="M810.087,359.795a2,2,0,1,0,2.156-1.528A1.88,1.88,0,0,0,810.087,359.795Z" transform="translate(-802.615 -346.406)"/><path class="p" d="M817.416,357.128a1.985,1.985,0,0,0,3.948.423l.022-.767-3.952-.152Z" transform="translate(-802.091 -346.522)"/><path class="q" d="M817.433,356.735a2,2,0,1,0,2.157-1.528A1.88,1.88,0,0,0,817.433,356.735Z" transform="translate(-802.089 -346.625)"/><path class="o" d="M814.4,349.676a2.543,2.543,0,1,0,5.057.537l.028-.98-5.06-.194Z" transform="translate(-802.307 -347.065)"/><path class="k" d="M814.424,349.17a2.562,2.562,0,1,0,2.761-1.956A2.41,2.41,0,0,0,814.424,349.17Z" transform="translate(-802.305 -347.197)"/><path class="o" d="M808.984,351.859a2.541,2.541,0,1,0,5.054.538l.031-.983-5.061-.193Z" transform="translate(-802.694 -346.909)"/><path class="k" d="M809.006,351.353a2.562,2.562,0,1,0,2.765-1.956A2.41,2.41,0,0,0,809.006,351.353Z" transform="translate(-802.693 -347.041)"/></g><path class="m" d="M766.61,304.54a1.9,1.9,0,1,1-1.9-1.9A1.9,1.9,0,0,1,766.61,304.54Z" transform="translate(-731.031 -290.868)"/></g></g></svg>