<svg xmlns="http://www.w3.org/2000/svg" xmlns:xlink="http://www.w3.org/1999/xlink" width="305.092" height="429.535" viewBox="0 0 305.092 429.535"><defs><style>.a{fill:#fff;opacity:0.06;}.b{fill:url(#a);}.c{opacity:0.15;mix-blend-mode:multiply;isolation:isolate;}.d{fill:#230753;}.e{fill:#ddd;}.f{fill:#ff1200;}.g{fill:#f4f2ed;}.h{fill:#040028;}.i{fill:none;stroke:#f4f2ed;stroke-linecap:round;stroke-linejoin:round;stroke-width:0.3px;}</style><linearGradient id="a" x1="84.013" y1="21.401" x2="85.035" y2="20.843" gradientUnits="objectBoundingBox"><stop offset="0" stop-color="#f1c13b"/><stop offset="1" stop-color="#ff1200"/></linearGradient></defs><g transform="matrix(0.799, -0.602, 0.602, 0.799, -159.736, 151.097)"><g transform="translate(71.794 170.149)"><path class="a" d="M114.745,240,215.071,102.568c9.8-11.293,30.046-9.92,45.01,3.051l3.78,3.275c14.96,12.975,19.193,32.829,9.4,44.122L198.177,229.91a1.982,1.982,0,0,1-3.383-1.666L196,219.887,75.111,327a1.983,1.983,0,0,1-2.995-2.537l53.964-86.107-8.824,4.578A1.982,1.982,0,0,1,114.745,240Z" transform="translate(-71.794 -94.919)"/><path class="a" d="M114.915,223.255,203,104.435c8.54-9.847,25.269-9.467,37.17.854l3,2.606c11.905,10.317,14.654,26.822,6.114,36.674l-64.942,67.2A1.674,1.674,0,0,1,181.5,210.3l1.247-6.675L79.079,297.612a1.672,1.672,0,0,1-2.529-2.145l47.569-73.688-7.047,3.931A1.671,1.671,0,0,1,114.915,223.255Z" transform="translate(-56.974 -87.055)"/><path class="b" d="M111.8,181.523l56.061-76.558c5.506-6.356,16.773-5.687,25.04,1.48l2.089,1.812c8.268,7.167,10.524,18.227,5.018,24.579L158.22,175.719a1.277,1.277,0,0,1-2.175-1.087l.63-4.1L89.809,230.042a1.275,1.275,0,0,1-1.929-1.631l29.778-47.237-4.237,2.231A1.275,1.275,0,0,1,111.8,181.523Z" transform="translate(-19.164 -76.082)"/><g class="c" transform="translate(68.655 24.52)"><path class="d" d="M151.5,108.969c5.506-6.352,16.777-5.683,25.04,1.484l2.089,1.808a24.681,24.681,0,0,1,3.7,4.091,24.231,24.231,0,0,0-6.1-8.1l-2.089-1.812c-8.268-7.167-19.534-7.836-25.04-1.48L93.632,180.712a1.507,1.507,0,0,0,1.916,2.227l2.9-1.532Z" transform="translate(-69.057 -100.602)"/><path class="d" d="M94.179,161.075l25.77-40.872-7.374,3.879-24.652,39.1a1.319,1.319,0,0,0,1.989,1.691Z" transform="translate(-87.705 -35.623)"/></g></g><g transform="translate(191.665 72.226)"><path class="e" d="M142.545,145.165a3.816,3.816,0,0,0,5.351-.751l4.432-5.877A26.015,26.015,0,0,0,147.21,102.1h0a26.015,26.015,0,0,0-36.436,5.118l-4.432,5.877a3.816,3.816,0,0,0,.751,5.351Z" transform="translate(-79.696 9.431)"/><path class="f" d="M146.688,135.433,106.9,105.452a3.315,3.315,0,0,1-.652-4.639h0a3.315,3.315,0,0,1,4.639-.652l39.785,29.981a3.315,3.315,0,0,1,.652,4.639h0A3.308,3.308,0,0,1,146.688,135.433Z" transform="translate(-79.644 18.174)"/><rect class="g" width="105.224" height="61.179" transform="translate(38.908 99.831) rotate(-52.996)"/><path class="f" d="M176.1,85.408a11.427,11.427,0,0,0-16-12.065l-36.825,14.68,24.428,18.417,24.432,18.408Z" transform="translate(-21.029 -72.226)"/><path class="f" d="M167.87,140.709a3.729,3.729,0,0,1-5.221.734l-54.012-40.7a3.728,3.728,0,0,1-.729-5.221h0a3.727,3.727,0,0,1,5.217-.734l54.012,40.7a3.734,3.734,0,0,1,.734,5.221Z" transform="translate(-74.439 0.07)"/><path class="f" d="M157.355,116.707a21.531,21.531,0,1,1-4.233-30.154A21.529,21.529,0,0,1,157.355,116.707Z" transform="translate(-36.42 -39.114)"/><rect class="f" width="6.626" height="61.178" transform="matrix(0.602, -0.799, 0.799, 0.602, 46.204, 90.152)"/><g transform="translate(0 52.673)"><path class="e" d="M173.448,84.433l-37.856,4.134a19.215,19.215,0,0,0-13.1,7.754L99.747,126.5l33.23-9.174s6.343-1.709,13.118,3.4Z" transform="translate(-99 -84.433)"/><path class="f" d="M102.241,132.071h0a6.7,6.7,0,0,1-1.32-9.377l22.857-30.326s4.388-5.847,13.6-7.029Z" transform="translate(-99.574 -81.43)"/><g transform="translate(33.248 1.532)"><path class="f" d="M130.762,85.189l-23.483,31.155.729-.2a12.82,12.82,0,0,1,2.982-.25l23.444-31.107Z" transform="translate(-107.279 -84.788)"/></g></g><g transform="translate(94.402 89.494)"><path class="e" d="M149.16,92.966l6.46,37.533a19.212,19.212,0,0,1-3.845,14.732l-22.74,30.175-.337-34.473s-.108-6.563-6.887-11.672Z" transform="translate(-120.258 -92.966)"/><path class="f" d="M121.451,148.027h0a6.7,6.7,0,0,0,9.377-1.316l22.857-30.326s4.41-5.83,3.012-15Z" transform="translate(-121.451 -65.07)"/><g transform="translate(7.828 13.808)"><path class="f" d="M146.717,96.166l-23.452,31.12a13.068,13.068,0,0,1,.613,3.038l.009.608,23.457-31.125Z" transform="translate(-123.265 -96.166)"/></g></g><path class="h" d="M151.461,108.625a16.99,16.99,0,1,1-3.78-21.312A17,17,0,0,1,151.461,108.625Z" transform="translate(-32.947 -35.614)"/><path class="i" d="M124.269,84.191c.406.086.811.194,1.208.319" transform="translate(-17.708 -32.562)"/><path class="i" d="M121.766,86.772a13.345,13.345,0,0,1,8.967-2.615" transform="translate(-26.005 -32.795)"/></g></g></svg>