<svg xmlns="http://www.w3.org/2000/svg" width="263.286" height="412.57" viewBox="0 0 263.286 412.57"><defs><style>.a{opacity:0.1;isolation:isolate;}.b{fill:#3f3d56;}.c{fill:#edc106;}.d{fill:#575a89;}.e{fill:#eaa6a6;}.f{fill:#2f2e41;}.g{fill:#ffb8b8;}.h{fill:#f2f2f2;}</style></defs><g transform="translate(-22.607 -1282.688)"><ellipse class="a" cx="92.965" cy="11.328" rx="92.965" ry="11.328" transform="translate(22.607 1661.321)"/><ellipse class="b" cx="87.887" cy="93.747" rx="87.887" ry="93.747" transform="translate(27.294 1493.359)"/><rect class="c" width="54.686" height="49.998" transform="translate(88.23 1642.572)"/><path class="d" d="M395.625,607.614,392.5,624.8l20.312,3.125,13.281-7.812-.781-12.5Z" transform="translate(-181.228 1047.067)"/><path class="e" d="M263.757,194.487s-1.562,17.968-5.469,18.749,8.593,32.03,8.593,32.03h18.749l14.843-3.906-7.031-17.187s-9.375-12.5-2.344-22.655S263.757,194.487,263.757,194.487Z" transform="translate(-151.7 1137.55)"/><path class="f" d="M212.614,369.739S192.3,408.8,208.708,416.612s20.312,7.031,20.312,9.375-3.125,1.562-1.562,5.469-3.125,19.531,1.562,28.905,3.125,16.406,3.125,16.406,0,.781,1.562,3.906,2.344,5.469,1.562,7.031-5.469,11.718-.781,14.062,28.905,3.906,31.249,0-2.344-6.25,0-8.593,3.906-3.125,2.344-4.687-3.125-21.093-3.125-21.093,3.906-22.655,2.344-25.78-3.906-6.25-2.344-8.593,3.125-1.562,3.906-4.687,2.344-10.156,2.344-10.156l8.593-.781,20.312,3.906s22.655,25,47.655,32.811c0,0,7.031,7.031,9.375,7.031s2.344,0,1.562,1.562-3.125,1.562-1.562,3.125,3.906-.781,2.344,1.562-3.125,2.344-1.562,3.906-.781,10.156-.781,10.937-7.031,74.216-4.687,75.779,35.155,6.25,37.5,0-1.562-14.062-1.562-14.062,11.718-93.747,8.593-100-14.062-34.374-72.654-52.342c0,0-16.406-3.125-16.406-5.469s-1.562-17.187-4.687-17.968-21.093-1.562-21.093-1.562l-22.655,7.031-31.249-5.469Z" transform="translate(-139.618 1099.793)"/><path class="f" d="M249.075,537.958l-3.906,14.062s-3.125,22.655.781,28.124c3.068,4.3,8.547,9.554,18.706,10.478a12.555,12.555,0,0,0,13.107-8.686,3.93,3.93,0,0,0,.216-1.011c0-1.562-2.344-20.312-2.344-20.312l-3.906-19.531-.781-5.469Z" transform="translate(-148.736 1062.819)"/><path class="f" d="M394.74,622.589s-3.906-3.906-4.687,0-3.906,20.312,1.562,21.093,57.81,8.594,63.279,5.469,15.624-7.812,9.375-10.156-24.218-9.375-24.218-9.375-10.156-13.281-11.718-14.062-10.156.781-14.062,3.906S394.74,622.589,394.74,622.589Z" transform="translate(-180.343 1045.373)"/><circle class="g" cx="24.218" cy="24.218" r="24.218" transform="translate(106.588 1300.006)"/><path class="d" d="M269.581,245.886l-9.375-10.156-10.391-20.312s-7.577-2.344-9.14,1.562-29.686,16.406-29.686,16.406,7.031,65.623,3.906,71.872-8.593,31.249-3.906,33.593,26.562,0,33.593,3.125,27.343,3.125,32.811-.781,7.031-7.031,12.5-4.687c4.655,2,15.539-66.217,18.673-86.545a9.254,9.254,0,0,0-3.834-8.992c-7.01-4.917-19.634-13.39-21.87-12.272C279.737,230.262,269.581,245.886,269.581,245.886Z" transform="translate(-141.119 1133.024)"/><path class="d" d="M326.1,250.614h0a9.265,9.265,0,0,1,6.961,7.965l6.319,56.877s-15.624,33.593-23.437,10.937S326.1,250.614,326.1,250.614Z" transform="translate(-164.05 1125.171)"/><path class="d" d="M323.984,339.3l17.187-4.687s3.125,21.874,6.25,21.874-10.937,12.5-17.968,10.937-17.187-7.031-17.968-10.937,7.031-20.312,7.031-20.312Z" transform="translate(-163.492 1106.794)"/><path class="f" d="M261.666,183.429c1.647-3.632,1.361-7.867,2.723-11.614a13.85,13.85,0,0,1,21.056-6.547c1.752,1.249,3.507,3,5.645,2.765,2.3-.256,4.355-2.825,6.472-1.884,2.346,1.043,1.712,5.247,4.089,6.219a3,3,0,0,0,3.451-1.419,8.765,8.765,0,0,0,1-3.887c.327-3.332.624-6.858-.821-9.879a23.645,23.645,0,0,1-1.584-3.2,10.92,10.92,0,0,1-.3-3.151c-.013-3.916-.3-8-2.27-11.386-2.187-3.755-6.229-6.157-10.447-7.2s-8.636-.887-12.967-.52c-7.158.606-14.624,1.9-20.263,6.355a7.931,7.931,0,0,0-1.948,2.046,10.6,10.6,0,0,0-1.037,3,62.055,62.055,0,0,1-5.444,14.278,31,31,0,0,0-2.809,6.066,7.85,7.85,0,0,0,.695,6.454c1.019,1.506,2.648,2.309,3.929,3.54s1.862,3.565,3.268,4.489c1.227.807,2.7.237,3.948,1.092C259.658,180.144,259.773,182.55,261.666,183.429Z" transform="translate(-149.142 1151.242)"/><path class="h" d="M291.5,268.3l2.344-4.687s34.374,10.156,41.4,19.531c0,0,17.187-10.937,26.562-9.375l9.375,1.562-28.905,25.78-36.717-3.125Z" transform="translate(-159.131 1122.327)"/><path class="c" d="M280.53,263.614l-32.03,44.53L294.592,330.8s4.309,2.344,7.623,0l30.657-14.062,28.905-41.4-28.905,14.843s-3.125-6.25-9.375-3.125Z" transform="translate(-149.724 1122.327)"/><path class="g" d="M351.406,352.187l6.25-16.406s14.062-17.968,6.25-26.562-16.406,25-16.406,25Z" transform="translate(-171.383 1112.657)"/><path class="g" d="M260.2,351.775l13.637-11.056s21.179-8.488,18.732-19.841-26.733,13.394-26.733,13.394Z" transform="translate(-152.283 1110.451)"/><path class="a" d="M211.77,258.673h-.781s-12.109-14.453-14.453,5.078-10.156,84.372,10.156,86.716,34.764-9.765,34.764-9.765,14.843-22.655,9.375-22.655c-2.646,0-9.842-1.189-16.406-.781-7,.434-13.293,2.406-12.89.391C222.317,313.749,233.644,264.141,211.77,258.673Z" transform="translate(-137.602 1124.534)"/><path class="d" d="M209.5,240.176l-3.125-1.562s-12.5,2.344-14.843,21.874S181.38,344.86,201.692,347.2s47.655-3.125,47.655-3.125,5.469-29.686,0-29.686-33.593,3.906-32.811,0S231.379,245.645,209.5,240.176Z" transform="translate(-136.509 1127.796)"/><path class="d" d="M338,349.416l8.615-13.2,5.447,21.8L338,364.26Z" transform="translate(-169.305 1106.444)"/></g></svg>