<svg xmlns="http://www.w3.org/2000/svg" xmlns:xlink="http://www.w3.org/1999/xlink" width="187.211" height="445.092" viewBox="0 0 187.211 445.092"><defs><style>.a{fill:url(#a);}.b{fill:#ffb0b1;}.c,.k{opacity:0.1;}.c,.h,.k{isolation:isolate;}.d{fill:#2f2e41;}.e{fill:#edc106;}.f{fill:#c7daf5;}.g,.k{fill:#fff;}.h{opacity:0.03;}.i{fill:#dce7ff;}.j{fill:#be8b87;}.l{fill:#efc8c4;}.m{fill:#727a9c;}</style><linearGradient id="a" x1="0.983" y1="-0.379" x2="0.983" y2="0.621" gradientUnits="objectBoundingBox"><stop offset="0" stop-color="gray" stop-opacity="0.251"/><stop offset="0.54" stop-color="gray" stop-opacity="0.122"/><stop offset="1" stop-color="gray" stop-opacity="0.102"/></linearGradient></defs><g transform="translate(-1620 -2216.863)"><path class="a" d="M864.994,414.644s-13.078-65.042-8.077-73.136c0,0,.179-7.523-.119-17.108v-1.108a22.62,22.62,0,0,0,2.743,1.6,22.151,22.151,0,0,0,14.97,1.934l-3.979-4.413a7.333,7.333,0,0,1-2.147-3.587,7.815,7.815,0,0,1,.852-3.877c3.757-9.5,3.987-21.453-3.289-28.7-6.117-6.1-7.617-13.973-14.228-19.536-4.856-4.081-7.523-10.062-10.045-15.83a90.649,90.649,0,0,1-5.5-15c-.954-4.047-1.329-8.23-2.641-12.184s-3.749-7.8-7.574-9.56a27.835,27.835,0,0,1-4.115-1.823c-1.636-1.1-2.616-2.888-3.791-4.447-5.964-7.932-26.071-3.263-35.58-.043a20.02,20.02,0,0,0-7.029,3.894l.085-.145.239-.349a12.6,12.6,0,0,0-2.658,2.965c-1.389,2.2-1.968,4.78-3.118,7.1-1.4,2.812-9.151,10.659-5.819,13.819a2.868,2.868,0,0,0,.775.511,6.943,6.943,0,0,0,3.928.392c-.051.111-.1.221-.145.332a23.22,23.22,0,0,0-1.7,8.784,23.771,23.771,0,0,0,23.975,23.558,24.294,24.294,0,0,0,7.344-1.125c.06.3.111.6.162.895a.774.774,0,0,0,.06.366h0l-.418.588-.068-.111-12.431,17.381c-1.9,1.329-12.848,9.253-13.436,15.191-.647,6.5-1.295,14.118-1.295,14.118l-.085,1.627a4.91,4.91,0,0,1-3.953,1.074c-3.877-.639-3.877,14.28-3.877,14.28s-2.556,2.377-4.354.315S752.2,338.2,752.2,338.2l-29.386,1.269h-.673l-1.585-4.908A2.07,2.07,0,0,0,718,333.252a1.654,1.654,0,0,0-.358.145l-.1.068a1.183,1.183,0,0,0-.2.145.582.582,0,0,0-.111.094,1.455,1.455,0,0,0-.162.162,1.2,1.2,0,0,0-.085.111l-.051.051h0a2,2,0,0,0-.29,1.772L718,340.008c-5.666,1.142-11.468,4.354-6.739,13.215L687.3,348.8l7.753,6.5,40.044,8.264c-.528.954-.179,2.326,1.474,4.26,7.114,8.367,20.116,10.633,25.339,11.229a44.774,44.774,0,0,0,5.112,8.682l-.46,8.333s-13.223,63.551-15.651,66.78a37.668,37.668,0,0,0,3.28-4.43c-3.843,13.061-9.21,30.936-10.616,33.612-2.266,4.26-4.362,21.573-1.781,22.689.809.341,3.05.179,6.279-.068v1.431l-.145,54.315s.648,33.322-1.133,36.491-2.258,9.832-2.258,9.832-7.14,13.146-12.78,18.429l-.128.111-.179-1.244s-6.816,8.571-21.794,8.094c0,0-9.04,5.87,4.362,6.186s30.51-.477,30.51-.477,11.928-18.241,21.956-15.864v13.8h3.067V631.837a12.577,12.577,0,0,0,5.453-8.273,10.01,10.01,0,0,0-3.57-9.278,5.962,5.962,0,0,1-1.96-4.345l-.111.094a6.318,6.318,0,0,0-.111-.852c-.852-7.14-1.968-21.828,1.917-32.717,5.325-14.919,6.944-35.69,3.067-48.07a110.062,110.062,0,0,1-3.067-12.039c-.094-.52-.187-1.005-.264-1.465a60.457,60.457,0,0,1,7.864,1.61c9,2.471,28.653,2.931,45.437,2.8.043.46.094.937.145,1.423a51.653,51.653,0,0,0,1.891,9.883c2.1,6.356,3.067,34.268,3.067,34.268s2.718,22.961,1.235,32.317c-.852,5.2-1.568,10.411-2.036,15.651v.1s-4.447,12.686-7.668,19.6c-.085.179-.162.349-.247.52a10.759,10.759,0,0,0-2.556.554s-4.354,8.725-8.716,10.156-2.905,6.186,6.944,4.439,24.708-3.169,24.708-3.169l.648-8.886,3.025-3.783-.767,8.861,3.229-.63-.426-10.786,4.95-6.194s5.964-5.316-2.905-15.779v.221c-.094-.153-.187-.307-.29-.452v-.051c-1.466-2.283-2.641-6.535-.494-14.084,3.877-13.632,6.134-26.012,6.134-26.012s8.665-33.151-1.755-48.845h.469a26.466,26.466,0,0,1-2.249-6.969c-.051-.29-.094-.588-.145-.852,7.668-.443,15.276-1.84,21.436-4.839C871.767,505.868,868.061,427.177,864.994,414.644Zm-97.836-54.869v.153l-1.593.077Zm-5.427.75a1.694,1.694,0,0,0-.716.341,7.084,7.084,0,0,0-1.244,3.255l-2.471-.562s-1.7-.366-4.26-.775l-1.184-1.184C755.145,361.291,758.519,360.925,761.731,360.524Z" transform="translate(932.7 2013.363)"/><path class="b" d="M778.519,629.756c-3.808,10.846-2.718,25.492-1.866,32.606.315,2.633.6,4.26.6,4.26s-5.691,12.968-6.168,13.445-16.768,10.411-16.768,10.411l-11.383,6.637s-11.545-5.061-5.964-6.816a8.407,8.407,0,0,0,2.982-2.036C745.478,683,752.473,669.9,752.473,669.9s.469-6.637,2.207-9.8,1.108-36.363,1.108-36.363l.145-54.136V562.55l21.658.162a49.753,49.753,0,0,0,.937,7.131,110.22,110.22,0,0,0,3.016,12C785.309,594.2,783.733,614.889,778.519,629.756Z" transform="translate(925.574 1960.225)"/><path class="c" d="M777.25,683.96s-5.691,12.968-6.168,13.445-16.759,10.411-16.759,10.411l-11.383,6.637s-11.545-5.061-5.964-6.816a8.409,8.409,0,0,0,2.982-2.036l.494,3.459,3.8-.162,32.4-29.2C776.96,682.324,777.25,683.96,777.25,683.96Z" transform="translate(925.574 1942.887)"/><path class="d" d="M773.366,680.58l-32.649,29.411-3.8.153-.784-5.53s-6.646,8.52-21.351,8.06c0,0-8.852,5.853,4.26,6.169s29.888-.477,29.888-.477,11.7-18.182,21.5-15.8v13.751h3.008V702.4a12.5,12.5,0,0,0,5.333-8.239,10.08,10.08,0,0,0-3.493-9.253A5.965,5.965,0,0,1,773.366,680.58Z" transform="translate(929.065 1942.757)"/><path class="b" d="M869.036,646.574c-2.1,7.523-.954,11.758.477,14.032v.051a25.919,25.919,0,0,1,3.808,9.278l.136.716L858.6,692.309l-8.06,3.161s-12.967-4.422-10.6-5.691c.6-.315,1.525-1.951,2.556-4.26,3.178-6.816,7.54-19.477,7.54-19.477v-.111c.452-5.223,1.184-10.42,1.994-15.6,1.448-9.312-1.21-32.2-1.21-32.2s-.946-27.818-3.008-34.148a52.814,52.814,0,0,1-1.849-9.849c-.426-3.979-.52-7.225-.52-7.225s8.52-11.86,24.188.946a17.517,17.517,0,0,1,3.263,3.553c10.812,15.336,2.113,49.254,2.113,49.254S872.827,632.984,869.036,646.574Z" transform="translate(910.153 1960.32)"/><path class="c" d="M873.458,687.714,858.6,709.372l-8.06,3.161s-12.967-4.422-10.6-5.691c.6-.315,1.525-1.951,2.556-4.26,5.487,0,8.333,5.18,8.333,5.18l6.952-1.1s9.176-18.028,11.229-19.127.315-8.23.315-8.23V677.49l.162.2v.051a25.915,25.915,0,0,1,3.834,9.3Z" transform="translate(910.153 1943.214)"/><path class="d" d="M849.471,708.352s-3.953-7.268-11.536-4.584c0,0-4.26,8.7-8.52,10.122s-2.846,6.16,6.816,4.422,24.188-3.161,24.188-3.161l.63-8.852,9.8-12.49s5.853-5.3-2.846-15.728v1.815s1.7,7.114-.315,8.222-11.221,19.128-11.221,19.128Z" transform="translate(912.005 1943.127)"/><path class="c" d="M781.115,562.722a49.754,49.754,0,0,0,.937,7.131c-8.92-1.312-17.193-.656-22.612-.239V562.56Z" transform="translate(922.024 1960.224)"/><path class="c" d="M874.785,573.375s-12.678.614-27.775.741c-.426-3.979-.52-7.225-.52-7.225s8.52-11.86,24.188.946a17.517,17.517,0,0,1,3.263,3.553A20.931,20.931,0,0,0,874.785,573.375Z" transform="translate(909.141 1960.323)"/><path class="e" d="M860.63,547.85s-55.491,2.684-72.42-2.053-33.671-.639-36.2-1.747-.469-18.335,1.7-22.6,14.39-47.431,14.39-47.431l11.7-61.029,12.337-3.408.852-.239,21.479-5.964,15.754-4.345s31.3,122.212,28.61,131.209a23,23,0,0,0-.452,10.607A26.575,26.575,0,0,0,860.63,547.85Z" transform="translate(923.296 1984.425)"/><path class="f" d="M736,366.42s-11.076,11.86-2.692,18.5,13.913.639,13.913.639Z" transform="translate(926.356 1989.251)"/><path class="c" d="M736,366.42s-11.076,11.86-2.692,18.5,13.913.639,13.913.639Z" transform="translate(926.356 1989.251)"/><path class="b" d="M838.01,271s-1.3,1.227-3.255,3.059c-2.786,2.6-6.91,6.407-10.573,9.6-5.112,4.413-9.244,7.668-7.753,4.882s1.21-7.574.469-12.081l-.153-.895a82.824,82.824,0,0,0-2.454-9.79s8.188-10.582,12.72-14.757c1.7-1.559,2.871-2.224,2.931-1.133.085,1.482,1.2,4.72,2.556,8.23.051.1.094.213.136.315.92,2.36,1.951,4.822,2.863,6.927C836.885,268.588,838.01,271,838.01,271Z" transform="translate(913.906 2006.577)"/><path class="c" d="M832.622,258.432a23.515,23.515,0,0,1-15.745,18.028,81.333,81.333,0,0,0-2.607-10.684s15.413-19.92,15.651-15.89A44.35,44.35,0,0,0,832.622,258.432Z" transform="translate(913.909 2006.578)"/><path class="c" d="M810.4,286.933l1.994-2.8s1.321,8.06,6.186,4.507,5.112,26.753,5.112,26.753l-5.231,78.027-37.71-2.258,1.065-37.7,4.26-18.974,10.556-27.63,6.322-9.125Z" transform="translate(918.87 2001.43)"/><path class="d" d="M823.669,315.949l-4.72,70.546-.494,7.472-21.027-1.252-.852-.051-15.856-.946,1.065-37.71,4.26-18.966L796.6,307.411l6.347-9.133,7.472-10.786,1.994-2.812s1.321,8.068,6.186,4.507l.094-.068h0C823.439,286.069,823.669,315.949,823.669,315.949Z" transform="translate(918.874 2001.349)"/><path class="g" d="M779.177,335.99s-1.891,3.953-5.691,3.323-3.791,14.228-3.791,14.228-2.556,2.369-4.26.315-6.322,4.9-6.322,4.9l-28.772,1.27s12.78,5.845,10.275,23.558c0,0,43.452-2.692,44.9-6.816S779.177,335.99,779.177,335.99Z" transform="translate(926.33 1993.755)"/><path class="h" d="M779.177,335.99s-1.891,3.953-5.691,3.323-3.791,14.228-3.791,14.228-2.556,2.369-4.26.315-6.322,4.9-6.322,4.9l-28.772,1.27s12.78,5.845,10.275,23.558c0,0,43.452-2.692,44.9-6.816S779.177,335.99,779.177,335.99Z" transform="translate(926.33 1993.755)"/><path class="g" d="M689.5,375.14l7.591,6.484,62.452,13.121-7.753-7.9Z" transform="translate(932.374 1987.961)"/><path class="g" d="M807.827,289.042c-1.031,1.551-4,9.7-6.484,16.776-2.062,5.9-3.791,11.076-3.791,11.076s-4.03,26.25-6.083,30.987-.946,23.26-.946,23.26l-7.668,45.693s-3.476,23.558-8.844,37.625c-5.265,13.811-11.229,20.312-11.391,20.508,2.377-3.212,15.336-66.55,15.336-66.55l4.26-79.85s.63-7.583,1.269-14.067,13.436-15.336,13.436-15.336l12.371-17.594C810.562,283.3,809.727,286.2,807.827,289.042Z" transform="translate(921.553 2001.809)"/><path class="b" d="M772.824,407.726s-18.182-.784-27.034-11.383,20.4-4.26,20.4-4.26l7.583,1.7Z" transform="translate(924.291 1985.732)"/><path class="c" d="M866.072,514.105a23,23,0,0,0-.452,10.607c-19.869,1.414-41.126-3.97-41.126-3.97-3.953,3.638-14.39,9.014-14.39,9.014l-5.691-70.52c-3.629-9.491-5.052-59.291-5.052-59.291s.324-2.607.852-6.509a.687.687,0,0,1,.043-.29c1.423-10.906,4.26-31.379,5.606-34.148,1.9-3.791-5.845-13.9-5.845-13.9l3.519-30.059.426-3.621C811.4,308.09,817.09,297.5,817.09,297.5l4.362-7.668h0c4.763-3.05,4.993,26.83,4.993,26.83l-4.72,70.546,15.754-4.345S868.756,505.091,866.072,514.105Z" transform="translate(916.116 2000.618)"/><path class="g" d="M886.633,515.734c-21.658,10.752-61.029.792-61.029.792-3.953,3.638-14.39,9.014-14.39,9.014l-5.691-70.52c-3.63-9.483-5.052-59.282-5.052-59.282s4.584-37.156,6.475-40.947c.554-1.108.29-2.752-.366-4.524a57.323,57.323,0,0,1-3.468-26.531l1.517-12.908.426-3.621c7.43-3.323,13.121-13.922,13.121-13.922l3.962-6.935,7.293-12.78,3.451-6.049.579.528,4.482,4.056s1.9,1.568,4.746,3.979c6.2,5.223,16.921,14.424,22.442,20.048,4.865,4.967,6.4,24.248,6.816,38.766.3,9.551.119,17.04.119,17.04-4.908,8.06,7.9,72.889,7.9,72.889C883,437.316,886.633,515.734,886.633,515.734Z" transform="translate(915.951 2003.888)"/><path class="h" d="M841.238,297.386s-14.867,28.3-13.121,39.047,6.637,22.927,4.26,25.773a8.741,8.741,0,0,1-6.961,3.476c-2.369.162-8.7,4.584-8.7,5.061s-5.845.477-11.076,2.692a69.143,69.143,0,0,1-12.968,3.476s-15.021-.477-16.444.946-2.846,9.96.162,16.759,6.322,11.86,8.852,12.78,18.5-4.422,31.456-5.691,27.094-11.511,27.094-11.511,15.489-5.538,18.182-14.867-3.323-60.552-3.323-60.552S854.018,290.9,841.238,297.386Z" transform="translate(919.778 1999.633)"/><path class="h" d="M839,294.606s-14.859,28.3-13.121,39.047,6.637,22.927,4.26,25.773a8.741,8.741,0,0,1-6.961,3.476c-2.369.162-8.69,4.584-8.69,5.061s-5.853.469-11.076,2.684a68.973,68.973,0,0,1-12.967,3.476s-15.021-.469-16.444.954-2.846,9.96.162,16.759,6.322,11.86,8.852,12.78,18.5-4.43,31.464-5.691,27.051-11.536,27.051-11.536,15.489-5.53,18.182-14.859-3.323-60.552-3.323-60.552S851.8,288.122,839,294.606Z" transform="translate(920.108 2000.045)"/><path class="g" d="M840.665,295.716s-14.85,28.3-13.146,39.013,6.637,22.927,4.26,25.773a8.719,8.719,0,0,1-6.961,3.476c-2.369.162-8.69,4.584-8.69,5.061s-5.853.477-11.076,2.692a68.968,68.968,0,0,1-12.968,3.476s-15.021-.477-16.444.946-2.846,9.96.162,16.759,6.322,11.86,8.852,12.78,18.5-4.422,31.464-5.691,27.034-11.536,27.034-11.536,15.49-5.538,18.182-14.867-3.323-60.552-3.323-60.552S853.47,289.232,840.665,295.716Z" transform="translate(919.865 1999.881)"/><path class="c" d="M850.374,384.858s-11.86-2.369-7.745,1.585,4.107,7.429,9.168,7.268S850.374,384.858,850.374,384.858Z" transform="translate(909.84 1986.627)"/><path class="b" d="M728.535,364.18c-5.726.2-18.122,1.951-11.7,13.93,5.683,10.6,15.225,3.519,20.567-1.866A20.222,20.222,0,0,0,728.535,364.18Z" transform="translate(928.595 1989.583)"/><path class="b" d="M742,377.61" transform="translate(924.605 1987.595)"/><path class="b" d="M741.4,378.189c.085-.077.162-.162.239-.239C741.562,378.027,741.485,378.112,741.4,378.189Z" transform="translate(924.694 1987.545)"/><path class="c" d="M843.409,276.642c-6.083,4.158-11.187,7.668-12.175,8.4-2.735,2.011-7.949,13.871-11.272,19.92-2.675,4.874-11.34,6.126-14.612,6.433l.392-3.587c7.429-3.314,13.121-13.913,13.121-13.913l14.705-25.765,5.061,4.584S840.563,274.239,843.409,276.642Z" transform="translate(915.229 2003.798)"/><path class="i" d="M843.409,276.083c-6.083,4.149-11.187,7.668-12.175,8.392-2.735,2.019-7.949,13.871-11.272,19.92-2.675,4.873-11.34,6.126-14.612,6.433l.426-3.621c7.43-3.323,13.121-13.922,13.121-13.922L833.6,267.52l5.061,4.584S840.563,273.637,843.409,276.083Z" transform="translate(915.229 2003.888)"/><path class="b" d="M828.122,249.8a22.737,22.737,0,0,1-.52,4.908,23.152,23.152,0,0,1-3.612,8.4,23.481,23.481,0,1,1,4.132-13.308Z" transform="translate(918.81 2009.985)"/><path class="c" d="M869.4,328.8a20.854,20.854,0,0,1-7.574-8.145c-1.321-2.616-2.2-5.623-4.465-7.489-2.028-1.653-4.771-2.062-7.285-2.8-8.324-2.462-15.336-10.071-15.575-18.744-.119-4.081,1.15-8.162.571-12.2a13.459,13.459,0,0,0-2.65-6.3,19.465,19.465,0,0,0-2.283-2.462c-1.108-1.048-2.275-2.062-3.28-3.178a12.353,12.353,0,0,1-1.7-2.258,11.132,11.132,0,0,1-.912-2.1c-1.551-4.839-.145-10.6-1.883-15.5a.821.821,0,0,0-.094-.264c-.665-1.747-2-3.485-3.851-3.621s-3.459,1.406-5.231,2.1c-3.715,1.44-7.728-1.014-10.82-3.519s-6.586-5.368-10.531-4.805c-2.6.366-4.66,2.147-7.055,3.067a11.462,11.462,0,0,1-1.7.477,23.481,23.481,0,0,1,45.267,8.75,22.732,22.732,0,0,1-.52,4.908c.051.1.094.213.136.315.92,2.36,1.951,4.822,2.863,6.927l4.482,4.056s1.9,1.568,4.746,3.979c6.2,5.223,16.921,14.424,22.442,20.048C867.418,295,868.952,314.283,869.4,328.8Z" transform="translate(918.527 2009.983)"/><path class="e" d="M783.675,223c1.133-2.309,1.7-4.891,3.05-7.072,1.985-3.2,5.461-5.2,9.014-6.424,9.3-3.2,28.968-7.864,34.839,0,1.159,1.559,2.113,3.348,3.715,4.447a28.591,28.591,0,0,0,4.03,1.806c3.749,1.764,6.143,5.589,7.421,9.525s1.653,8.111,2.556,12.15a89.584,89.584,0,0,0,5.385,14.936c2.462,5.751,5.112,11.707,9.832,15.779,6.484,5.547,7.941,13.394,13.93,19.468,7.131,7.225,6.9,19.145,3.229,28.6a7.882,7.882,0,0,0-.852,3.868,7.388,7.388,0,0,0,2.1,3.578l3.894,4.4a21.9,21.9,0,0,1-23.933-11.076c-1.329-2.616-2.207-5.623-4.473-7.481-2.028-1.661-4.763-2.062-7.285-2.812-8.324-2.462-15.336-10.071-15.575-18.744-.119-4.073,1.15-8.162.579-12.2a13.569,13.569,0,0,0-2.641-6.22c-2.19-2.846-5.47-4.78-7.242-7.9-3-5.291-.724-12.175-2.888-17.892-.664-1.7-1.994-3.485-3.851-3.621s-3.459,1.414-5.231,2.1c-3.715,1.44-7.719-1.014-10.812-3.519s-6.594-5.359-10.531-4.8c-2.607.366-4.661,2.139-7.063,3.059-1.772.682-5.368,1.3-6.927-.2C774.686,233.62,782.278,225.8,783.675,223Z" transform="translate(919.404 2013.114)"/><path class="c" d="M864.085,315.7c-1.321-2.616-2.2-5.623-4.465-7.489-2.028-1.661-4.771-2.062-7.285-2.8-8.324-2.462-15.336-10.071-15.575-18.744-.128-4.081,1.15-8.162.571-12.2a13.458,13.458,0,0,0-2.65-6.3c-2.181-2.846-5.47-4.788-7.233-7.907-3.008-5.291-.724-12.175-2.888-17.892-.665-1.7-1.994-3.485-3.851-3.621s-3.459,1.406-5.231,2.1c-3.715,1.448-7.728-1.005-10.812-3.51s-6.594-5.359-10.539-4.805c-2.556.366-4.652,2.139-7.055,3.067-1.772.682-5.368,1.3-6.927-.2-3.263-3.152,4.328-10.974,5.7-13.768,1.133-2.309,1.7-4.891,3.05-7.072l.23-.358a12.55,12.55,0,0,0-2.556,2.965c-1.363,2.181-1.926,4.763-3.05,7.072-1.372,2.8-8.963,10.624-5.7,13.768,1.551,1.5,5.112.852,6.927.2,2.394-.92,4.447-2.692,7.055-3.067,3.936-.554,7.438,2.3,10.531,4.805s7.106,4.959,10.812,3.519c1.781-.69,3.331-2.249,5.231-2.1s3.2,1.874,3.86,3.621c2.164,5.683-.119,12.567,2.88,17.892,1.772,3.11,5.061,5.052,7.242,7.9a13.46,13.46,0,0,1,2.65,6.3c.579,4.039-.7,8.12-.571,12.2.264,8.682,7.25,16.29,15.575,18.744,2.513.741,5.257,1.142,7.285,2.812,2.266,1.857,3.135,4.865,4.464,7.481a21.9,21.9,0,0,0,23.933,11.076l-1.832-2.079C875.817,327.43,867.732,322.88,864.085,315.7Z" transform="translate(919.423 2011.781)"/><path class="c" d="M813.234,289.6c-1.039,1.551-4,9.7-6.484,16.767-2.317-.895-4.43-6.654-4.43-6.654l12.346-17.594C815.961,283.858,815.125,286.755,813.234,289.6Z" transform="translate(915.678 2001.728)"/><path class="i" d="M813.786,289.042c-1.031,1.551-4,9.7-6.484,16.776-2.318-.895-4.422-6.654-4.422-6.654l12.371-17.594C816.521,283.3,815.686,286.2,813.786,289.042Z" transform="translate(915.595 2001.809)"/><path class="j" d="M730.061,381.086l-6.859-21.6a2.028,2.028,0,0,1,1.3-2.553l.008,0h0a2.011,2.011,0,0,1,2.543,1.272l.013.04,6.859,21.615-.682,4.524Z" transform="translate(927.401 1990.671)"/><path class="k" d="M723.913,357.58h0a2.027,2.027,0,0,1,2.552,1.308l0,.013,6.859,21.6-.52,3.408.5.52.682-4.524-6.859-21.6a2.01,2.01,0,0,0-2.516-1.325l-.04.013h0a1.972,1.972,0,0,0-1.048.775A1.945,1.945,0,0,1,723.913,357.58Z" transform="translate(927.338 1990.662)"/><path class="l" d="M731.27,385.087l3.851-1.227-.562,3.715-.119.809-1.125-1.176Z" transform="translate(926.193 1986.67)"/><path class="m" d="M733.67,387.745a.966.966,0,0,1,.247-.2.35.35,0,0,1,.366,0,.873.873,0,0,1,.136.213.673.673,0,0,0,.494.332l-.119.852Z" transform="translate(925.838 1986.133)"/><path class="b" d="M723.18,368.93s13.76-.077,10.514,5.768-8.3,6.56-8.3,6.56Z" transform="translate(927.39 1988.88)"/><path class="d" d="M870.39,703.594l-.89,10.571,2.976-.6-.449-11.453Z" transform="translate(906.524 1939.89)"/></g></svg>